{"glyphs":{"0":{"ha":874,"x_min":0,"x_max":0,"o":"m 371 -7 l 504 -7 b 788 281 708 -7 788 108 l 788 692 b 504 979 788 864 708 979 l 371 979 b 88 692 167 979 88 864 l 88 281 b 371 -7 88 108 167 -7 z m 383 175 b 290 282 329 175 290 196 l 290 692 b 383 799 290 775 329 799 l 490 799 b 583 692 546 799 583 775 l 583 282 b 490 175 583 196 546 175 z "},"1":{"ha":500,"x_min":0,"x_max":0,"o":"m 390 972 l 74 972 b 49 947 57 972 49 964 l 49 818 b 74 793 49 801 57 793 l 210 793 l 210 24 b 233 0 210 8 218 0 l 390 0 b 414 24 406 0 414 8 l 414 950 b 390 972 414 965 406 972 z "},"2":{"ha":850,"x_min":0,"x_max":0,"o":"m 90 0 l 747 0 b 772 25 764 0 772 8 l 772 156 b 747 181 772 172 764 181 l 279 181 l 279 217 b 404 329 279 272 315 299 l 574 389 b 781 710 758 454 781 500 b 503 979 781 851 715 979 l 385 979 b 83 717 169 979 83 892 l 83 688 b 106 665 83 672 92 665 l 264 665 b 286 688 278 665 286 672 b 386 799 286 774 324 799 l 492 799 b 578 710 547 799 578 765 b 486 560 578 636 590 597 l 275 482 b 69 158 97 415 69 317 l 69 21 b 90 0 69 7 76 0 z "},"3":{"ha":826,"x_min":0,"x_max":0,"o":"m 596 489 l 596 504 b 747 710 694 526 747 567 b 464 979 747 851 676 979 l 379 979 b 78 717 164 979 78 892 l 78 688 b 100 665 78 672 86 665 l 258 665 b 281 688 272 665 281 672 b 381 799 281 774 318 799 l 453 799 b 543 710 508 799 543 765 b 438 586 543 649 547 586 l 368 586 b 343 561 351 586 343 578 l 343 432 b 368 407 343 415 351 407 l 438 407 b 557 264 547 407 557 350 b 468 174 557 208 524 174 l 369 174 b 269 285 307 174 269 200 b 247 308 269 300 261 308 l 89 308 b 67 285 75 308 67 300 l 67 256 b 368 -7 67 82 153 -7 l 479 -7 b 760 264 693 -7 760 122 b 596 489 760 435 694 468 z "},"4":{"ha":789,"x_min":0,"x_max":0,"o":"m 701 400 l 649 400 l 649 540 b 625 563 649 556 640 563 l 468 563 b 444 540 453 563 444 556 l 444 400 l 272 400 l 568 940 b 553 972 578 958 572 972 l 383 972 b 349 950 372 972 358 968 l 49 403 b 49 364 39 385 42 381 l 103 242 b 129 221 111 226 117 221 l 444 221 l 444 24 b 468 0 444 8 453 0 l 625 0 b 649 24 640 0 649 8 l 649 221 l 701 221 b 726 246 719 221 726 229 l 726 375 b 701 400 726 392 719 400 z "},"5":{"ha":831,"x_min":0,"x_max":0,"o":"m 372 -7 l 481 -7 b 765 281 694 -7 765 108 l 765 357 b 497 650 765 504 722 650 l 453 650 b 293 590 381 650 314 622 l 282 590 l 306 793 l 679 793 b 704 818 697 793 704 801 l 704 947 b 679 972 704 964 697 972 l 150 972 b 129 951 136 972 131 965 l 79 433 b 101 408 78 417 85 408 l 279 408 b 376 469 293 438 315 469 l 463 469 b 561 361 518 469 561 447 l 561 281 b 469 174 561 194 525 174 l 372 174 b 274 285 311 174 274 200 b 250 308 274 300 265 308 l 93 308 b 69 285 78 308 69 300 l 69 256 b 372 -7 69 82 156 -7 z "},"6":{"ha":851,"x_min":0,"x_max":0,"o":"m 374 -7 l 499 -7 b 785 281 701 -7 785 108 l 785 338 b 518 631 785 485 743 631 l 453 631 b 303 574 393 631 325 603 l 289 574 l 290 710 b 375 799 292 764 319 799 l 458 799 b 561 743 521 799 561 803 b 583 721 561 728 569 721 l 742 721 b 764 743 756 721 764 728 l 764 761 b 461 979 764 908 678 979 l 365 979 b 88 708 153 979 88 849 l 88 281 b 374 -7 88 108 171 -7 z m 389 175 b 290 281 335 175 290 194 l 290 342 b 389 449 290 428 335 449 l 483 449 b 582 342 539 449 582 428 l 582 281 b 483 175 582 194 539 175 z "},"7":{"ha":767,"x_min":0,"x_max":0,"o":"m 117 0 l 268 0 b 299 25 281 0 296 13 b 690 731 360 294 488 506 b 718 793 713 754 718 769 l 718 950 b 696 972 718 964 711 972 l 88 972 b 63 947 71 972 63 964 l 63 818 b 88 793 63 801 71 793 l 507 793 l 507 781 b 94 33 289 544 154 297 b 117 0 92 21 99 0 z "},"8":{"ha":872,"x_min":0,"x_max":0,"o":"m 676 531 b 753 714 729 563 753 619 b 478 979 753 889 672 979 l 394 979 b 119 714 200 979 119 889 b 196 531 119 619 143 563 b 88 319 121 496 88 428 l 88 269 b 374 -7 88 108 171 -7 l 499 -7 b 785 269 701 -7 785 108 l 785 321 b 676 531 785 429 751 496 z m 410 807 l 463 807 b 560 714 551 807 560 763 b 463 621 560 667 551 621 l 408 621 b 313 714 321 621 313 667 b 410 807 313 763 321 807 z m 582 269 b 483 175 582 194 539 175 l 389 175 b 290 269 335 175 290 194 l 290 321 b 389 425 290 406 335 425 l 483 425 b 582 321 539 425 582 406 z "},"9":{"ha":851,"x_min":0,"x_max":0,"o":"m 478 979 l 353 979 b 67 693 150 979 67 864 l 67 636 b 333 343 67 489 108 343 l 399 343 b 549 399 458 343 526 369 l 563 399 l 561 263 b 476 175 560 210 532 175 l 393 175 b 290 229 331 175 290 171 b 268 253 290 244 282 253 l 110 253 b 88 229 96 253 88 244 l 88 213 b 390 -7 88 64 174 -7 l 486 -7 b 764 264 699 -7 764 124 l 764 692 b 478 979 764 864 681 979 z m 463 799 b 561 693 517 799 561 779 l 561 632 b 463 524 561 546 517 524 l 368 524 b 269 632 313 524 269 546 l 269 693 b 368 799 269 779 313 799 z "},"A":{"ha":883,"x_min":0,"x_max":0,"o":"m 838 29 l 604 950 b 576 972 600 964 589 972 l 307 972 b 281 950 294 972 285 964 l 47 29 b 67 0 43 14 51 0 l 231 0 b 258 29 244 0 254 14 l 286 146 l 597 146 l 626 29 b 654 0 631 14 640 0 l 818 0 b 838 29 832 0 842 14 z m 331 325 l 431 736 l 453 736 l 554 325 z "},"Á":{"ha":883,"x_min":0,"x_max":0,"o":"m 383 1040 l 518 1040 b 554 1065 532 1040 546 1053 l 676 1225 b 663 1250 689 1240 678 1250 l 460 1250 b 431 1225 446 1250 439 1242 l 369 1065 b 383 1040 363 1049 368 1040 z m 838 29 l 604 950 b 576 972 600 964 589 972 l 307 972 b 281 950 294 972 285 964 l 47 29 b 67 0 43 14 51 0 l 231 0 b 258 29 244 0 254 14 l 286 146 l 597 146 l 626 29 b 654 0 631 14 640 0 l 818 0 b 838 29 832 0 842 14 z m 331 325 l 431 736 l 453 736 l 554 325 z "},"Ă":{"ha":883,"x_min":0,"x_max":0,"o":"m 394 1018 l 490 1018 b 692 1226 629 1018 692 1086 b 669 1250 692 1242 683 1250 l 549 1250 b 526 1226 535 1250 529 1242 b 458 1156 521 1192 514 1156 l 425 1156 b 357 1226 369 1156 363 1192 b 335 1250 356 1242 349 1250 l 214 1250 b 192 1226 200 1250 192 1242 b 394 1018 192 1086 254 1018 z m 838 29 l 604 950 b 576 972 600 964 589 972 l 307 972 b 281 950 294 972 285 964 l 47 29 b 67 0 43 14 51 0 l 231 0 b 258 29 244 0 254 14 l 286 146 l 597 146 l 626 29 b 654 0 631 14 640 0 l 818 0 b 838 29 832 0 842 14 z m 331 325 l 431 736 l 453 736 l 554 325 z "},"Ǎ":{"ha":883,"x_min":0,"x_max":0,"o":"m 318 1060 b 357 1039 329 1046 342 1039 l 528 1039 b 567 1060 543 1039 557 1049 l 708 1222 b 696 1250 721 1235 710 1250 l 544 1250 b 499 1221 522 1250 511 1238 l 450 1163 l 436 1163 l 388 1221 b 340 1250 374 1238 363 1250 l 189 1250 b 176 1222 175 1250 165 1235 z m 838 29 l 604 950 b 576 972 600 964 589 972 l 307 972 b 281 950 294 972 285 964 l 47 29 b 67 0 43 14 51 0 l 231 0 b 258 29 244 0 254 14 l 286 146 l 597 146 l 626 29 b 654 0 631 14 640 0 l 818 0 b 838 29 832 0 842 14 z m 331 325 l 431 736 l 453 736 l 554 325 z "},"Â":{"ha":883,"x_min":0,"x_max":0,"o":"m 193 1039 l 344 1039 b 392 1068 367 1039 378 1053 l 440 1126 l 454 1126 l 503 1068 b 549 1039 515 1053 526 1039 l 700 1039 b 713 1068 714 1039 725 1054 l 571 1231 b 532 1250 561 1242 547 1250 l 361 1250 b 322 1231 346 1250 333 1244 l 181 1068 b 193 1039 169 1054 179 1039 z m 838 29 l 604 950 b 576 972 600 964 589 972 l 307 972 b 281 950 294 972 285 964 l 47 29 b 67 0 43 14 51 0 l 231 0 b 258 29 244 0 254 14 l 286 146 l 597 146 l 626 29 b 654 0 631 14 640 0 l 818 0 b 838 29 832 0 842 14 z m 331 325 l 431 736 l 453 736 l 554 325 z "},"Ä":{"ha":883,"x_min":0,"x_max":0,"o":"m 156 1043 l 318 1043 b 340 1065 332 1043 340 1051 l 340 1228 b 318 1250 340 1242 332 1250 l 156 1250 b 133 1228 142 1250 133 1242 l 133 1065 b 156 1043 133 1051 142 1043 z m 567 1043 l 729 1043 b 751 1065 743 1043 751 1051 l 751 1228 b 729 1250 751 1242 743 1250 l 567 1250 b 544 1228 553 1250 544 1242 l 544 1065 b 567 1043 544 1051 553 1043 z m 838 29 l 604 950 b 576 972 600 964 589 972 l 307 972 b 281 950 294 972 285 964 l 47 29 b 67 0 43 14 51 0 l 231 0 b 258 29 244 0 254 14 l 286 146 l 597 146 l 626 29 b 654 0 631 14 640 0 l 818 0 b 838 29 832 0 842 14 z m 331 325 l 431 736 l 453 736 l 554 325 z "},"À":{"ha":883,"x_min":0,"x_max":0,"o":"m 340 1065 b 376 1040 349 1053 363 1040 l 511 1040 b 525 1065 526 1040 532 1049 l 464 1225 b 435 1250 456 1242 449 1250 l 232 1250 b 218 1225 217 1250 206 1240 z m 838 29 l 604 950 b 576 972 600 964 589 972 l 307 972 b 281 950 294 972 285 964 l 47 29 b 67 0 43 14 51 0 l 231 0 b 258 29 244 0 254 14 l 286 146 l 597 146 l 626 29 b 654 0 631 14 640 0 l 818 0 b 838 29 832 0 842 14 z m 331 325 l 431 736 l 453 736 l 554 325 z "},"Ā":{"ha":883,"x_min":0,"x_max":0,"o":"m 217 1069 l 667 1069 b 688 1090 679 1069 688 1076 l 688 1229 b 667 1250 688 1243 679 1250 l 217 1250 b 196 1229 203 1250 196 1243 l 196 1090 b 217 1069 196 1076 203 1069 z m 838 29 l 604 950 b 576 972 600 964 589 972 l 307 972 b 281 950 294 972 285 964 l 47 29 b 67 0 43 14 51 0 l 231 0 b 258 29 244 0 254 14 l 286 146 l 597 146 l 626 29 b 654 0 631 14 640 0 l 818 0 b 838 29 832 0 842 14 z m 331 325 l 431 736 l 453 736 l 554 325 z "},"Ą":{"ha":876,"x_min":0,"x_max":0,"o":"m 629 -146 l 739 -135 b 856 -53 810 -128 874 -122 l 838 17 b 838 29 839 21 839 25 l 604 950 b 576 972 600 964 589 972 l 307 972 b 281 950 294 972 285 964 l 47 29 b 67 0 43 14 51 0 l 231 0 b 258 29 244 0 254 14 l 286 146 l 597 146 l 626 29 b 628 26 626 28 626 28 l 624 26 l 631 4 b 576 -31 639 -28 606 -26 l 532 -35 b 436 -158 457 -43 436 -64 b 585 -289 436 -271 469 -289 l 796 -289 b 810 -275 806 -289 810 -283 l 810 -176 b 796 -158 810 -167 804 -158 l 622 -158 b 618 -156 621 -158 618 -156 b 629 -146 618 -151 619 -147 z m 331 325 l 431 736 l 453 736 l 554 325 z "},"Å":{"ha":883,"x_min":0,"x_max":0,"o":"m 432 1025 l 450 1025 b 567 1140 518 1025 567 1075 l 567 1156 b 450 1272 567 1221 518 1272 l 432 1272 b 315 1156 364 1272 315 1221 l 315 1140 b 432 1025 315 1075 364 1025 z m 419 1154 b 435 1171 419 1161 428 1171 l 447 1171 b 465 1154 457 1171 465 1161 l 465 1146 b 447 1128 465 1138 457 1128 l 435 1128 b 419 1146 428 1128 419 1138 z m 838 29 l 604 950 b 576 972 600 964 589 972 l 307 972 b 281 950 294 972 285 964 l 47 29 b 67 0 43 14 51 0 l 231 0 b 258 29 244 0 254 14 l 286 146 l 597 146 l 626 29 b 654 0 631 14 640 0 l 818 0 b 838 29 832 0 842 14 z m 331 325 l 431 736 l 453 736 l 554 325 z "},"Ã":{"ha":883,"x_min":0,"x_max":0,"o":"m 239 1060 b 268 1054 243 1053 253 1046 b 353 1081 300 1074 315 1081 b 532 1029 418 1081 433 1029 b 679 1079 581 1029 625 1038 b 693 1114 690 1089 699 1097 l 649 1226 b 622 1233 644 1233 635 1240 b 535 1206 586 1215 572 1206 b 356 1257 469 1206 454 1257 b 208 1207 307 1257 263 1249 b 194 1172 197 1197 189 1189 z m 838 29 l 604 950 b 576 972 600 964 589 972 l 307 972 b 281 950 294 972 285 964 l 47 29 b 67 0 43 14 51 0 l 231 0 b 258 29 244 0 254 14 l 286 146 l 597 146 l 626 29 b 654 0 631 14 640 0 l 818 0 b 838 29 832 0 842 14 z m 331 325 l 431 736 l 453 736 l 554 325 z "},"Æ":{"ha":1278,"x_min":0,"x_max":0,"o":"m 1211 186 l 831 186 l 831 396 l 1172 396 b 1193 418 1186 396 1193 404 l 1193 554 b 1172 576 1193 568 1186 576 l 831 576 l 831 786 l 1203 786 b 1224 808 1217 786 1224 794 l 1224 950 b 1203 972 1224 964 1217 972 l 592 972 b 564 951 578 972 572 965 l 47 25 b 60 0 38 8 46 0 l 233 0 b 261 21 247 0 253 7 l 329 146 l 622 146 l 622 22 b 643 0 622 8 629 0 l 1211 0 b 1233 22 1225 0 1233 8 l 1233 164 b 1211 186 1233 178 1225 186 z m 428 325 l 622 682 l 622 325 z "},"B":{"ha":854,"x_min":0,"x_max":0,"o":"m 650 507 l 650 519 b 758 715 733 563 758 615 b 490 972 758 893 679 972 l 110 972 b 88 950 96 972 88 964 l 88 22 b 110 0 88 8 96 0 l 493 0 b 789 257 699 0 789 71 l 789 319 b 650 507 789 404 739 472 z m 550 701 l 550 664 b 457 579 550 589 507 579 l 296 579 l 296 786 l 457 786 b 550 701 510 786 550 779 z m 581 269 b 476 186 581 203 543 186 l 296 186 l 296 415 l 476 415 b 581 324 543 415 581 392 z "},"C":{"ha":893,"x_min":0,"x_max":0,"o":"m 371 -7 l 535 -7 b 819 285 744 -7 819 104 l 819 292 b 796 317 819 307 810 317 l 636 317 b 611 292 621 317 611 308 b 514 179 611 199 567 179 l 389 179 b 296 286 333 179 296 200 l 296 686 b 389 793 296 771 333 793 l 514 793 b 611 679 567 793 611 774 b 636 654 611 663 621 654 l 796 654 b 819 679 810 654 819 664 l 819 686 b 535 979 819 868 744 979 l 371 979 b 88 692 167 979 88 864 l 88 281 b 371 -7 88 108 167 -7 z "},"Ć":{"ha":893,"x_min":0,"x_max":0,"o":"m 438 1225 l 376 1065 b 390 1040 369 1049 375 1040 l 525 1040 b 561 1065 539 1040 553 1053 l 683 1225 b 669 1250 696 1240 685 1250 l 467 1250 b 438 1225 453 1250 446 1242 z m 371 -7 l 535 -7 b 819 285 744 -7 819 104 l 819 292 b 796 317 819 307 810 317 l 636 317 b 611 292 621 317 611 308 b 514 179 611 199 567 179 l 389 179 b 296 286 333 179 296 200 l 296 686 b 389 793 296 771 333 793 l 514 793 b 611 679 567 793 611 774 b 636 654 611 663 621 654 l 796 654 b 819 679 810 654 819 664 l 819 686 b 535 979 819 868 744 979 l 371 979 b 88 692 167 979 88 864 l 88 281 b 371 -7 88 108 167 -7 z "},"Č":{"ha":893,"x_min":0,"x_max":0,"o":"m 364 1039 l 535 1039 b 574 1060 550 1039 564 1049 l 715 1222 b 703 1250 728 1235 717 1250 l 551 1250 b 506 1221 529 1250 518 1238 l 457 1163 l 443 1163 l 394 1221 b 347 1250 381 1238 369 1250 l 196 1250 b 183 1222 182 1250 172 1235 l 325 1060 b 364 1039 336 1046 349 1039 z m 371 -7 l 535 -7 b 819 285 744 -7 819 104 l 819 292 b 796 317 819 307 810 317 l 636 317 b 611 292 621 317 611 308 b 514 179 611 199 567 179 l 389 179 b 296 286 333 179 296 200 l 296 686 b 389 793 296 771 333 793 l 514 793 b 611 679 567 793 611 774 b 636 654 611 663 621 654 l 796 654 b 819 679 810 654 819 664 l 819 686 b 535 979 819 868 744 979 l 371 979 b 88 692 167 979 88 864 l 88 281 b 371 -7 88 108 167 -7 z "},"Ç":{"ha":893,"x_min":0,"x_max":0,"o":"m 389 793 l 514 793 b 611 679 567 793 611 774 b 636 654 611 663 621 654 l 796 654 b 819 679 810 654 819 664 l 819 686 b 535 979 819 868 744 979 l 371 979 b 88 692 167 979 88 864 l 88 281 b 371 -7 88 108 167 -7 l 414 -7 b 357 -82 374 -43 357 -56 b 413 -132 357 -117 382 -129 b 556 -162 538 -143 556 -146 b 522 -176 556 -174 539 -176 l 496 -176 b 468 -169 485 -176 474 -169 b 451 -154 465 -160 461 -154 l 329 -154 b 314 -174 317 -154 314 -161 b 438 -289 314 -242 346 -289 l 567 -289 b 708 -160 658 -289 708 -240 b 590 -32 708 -75 690 -42 b 583 -4 564 -31 532 -26 b 819 285 756 11 819 119 l 819 292 b 796 317 819 307 810 317 l 636 317 b 611 292 621 317 611 308 b 514 179 611 199 567 179 l 389 179 b 296 286 333 179 296 200 l 296 686 b 389 793 296 771 333 793 z "},"Ĉ":{"ha":893,"x_min":0,"x_max":0,"o":"m 368 1250 b 329 1231 353 1250 340 1244 l 188 1068 b 200 1039 176 1054 186 1039 l 351 1039 b 399 1068 374 1039 385 1053 l 447 1126 l 461 1126 l 510 1068 b 556 1039 522 1053 533 1039 l 707 1039 b 719 1068 721 1039 732 1054 l 578 1231 b 539 1250 568 1242 554 1250 z m 371 -7 l 535 -7 b 819 285 744 -7 819 104 l 819 292 b 796 317 819 307 810 317 l 636 317 b 611 292 621 317 611 308 b 514 179 611 199 567 179 l 389 179 b 296 286 333 179 296 200 l 296 686 b 389 793 296 771 333 793 l 514 793 b 611 679 567 793 611 774 b 636 654 611 663 621 654 l 796 654 b 819 679 810 654 819 664 l 819 686 b 535 979 819 868 744 979 l 371 979 b 88 692 167 979 88 864 l 88 281 b 371 -7 88 108 167 -7 z "},"Ċ":{"ha":893,"x_min":0,"x_max":0,"o":"m 367 1043 l 529 1043 b 551 1065 543 1043 551 1051 l 551 1228 b 529 1250 551 1242 543 1250 l 367 1250 b 344 1228 353 1250 344 1242 l 344 1065 b 367 1043 344 1051 353 1043 z m 371 -7 l 535 -7 b 819 285 744 -7 819 104 l 819 292 b 796 317 819 307 810 317 l 636 317 b 611 292 621 317 611 308 b 514 179 611 199 567 179 l 389 179 b 296 286 333 179 296 200 l 296 686 b 389 793 296 771 333 793 l 514 793 b 611 679 567 793 611 774 b 636 654 611 663 621 654 l 796 654 b 819 679 810 654 819 664 l 819 686 b 535 979 819 868 744 979 l 371 979 b 88 692 167 979 88 864 l 88 281 b 371 -7 88 108 167 -7 z "},"D":{"ha":889,"x_min":0,"x_max":0,"o":"m 519 972 l 110 972 b 88 950 96 972 88 964 l 88 22 b 110 0 88 8 96 0 l 519 0 b 803 288 724 0 803 115 l 803 685 b 519 972 803 857 724 972 z m 594 293 b 501 186 594 207 557 186 l 296 186 l 296 786 l 501 786 b 594 679 557 786 594 764 z "},"Ð":{"ha":922,"x_min":0,"x_max":0,"o":"m 551 972 l 142 972 b 119 950 128 972 119 964 l 119 578 l 43 578 b 18 553 25 578 18 569 l 18 422 b 43 397 18 406 25 397 l 119 397 l 119 22 b 142 0 119 8 128 0 l 551 0 b 835 288 756 0 835 115 l 835 685 b 551 972 835 857 756 972 z m 626 293 b 533 186 626 207 589 186 l 328 186 l 328 397 l 438 397 b 463 422 454 397 463 406 l 463 553 b 438 578 463 569 454 578 l 328 578 l 328 786 l 533 786 b 626 679 589 786 626 764 z "},"Ď":{"ha":889,"x_min":0,"x_max":0,"o":"m 307 1060 b 346 1039 318 1046 331 1039 l 517 1039 b 556 1060 532 1039 546 1049 l 697 1222 b 685 1250 710 1235 699 1250 l 533 1250 b 488 1221 511 1250 500 1238 l 439 1163 l 425 1163 l 376 1221 b 329 1250 363 1238 351 1250 l 178 1250 b 165 1222 164 1250 154 1235 z m 519 972 l 110 972 b 88 950 96 972 88 964 l 88 22 b 110 0 88 8 96 0 l 519 0 b 803 288 724 0 803 115 l 803 685 b 519 972 803 857 724 972 z m 594 293 b 501 186 594 207 557 186 l 296 186 l 296 786 l 501 786 b 594 679 557 786 594 764 z "},"Đ":{"ha":922,"x_min":0,"x_max":0,"o":"m 551 972 l 142 972 b 119 950 128 972 119 964 l 119 578 l 43 578 b 18 553 25 578 18 569 l 18 422 b 43 397 18 406 25 397 l 119 397 l 119 22 b 142 0 119 8 128 0 l 551 0 b 835 288 756 0 835 115 l 835 685 b 551 972 835 857 756 972 z m 626 293 b 533 186 626 207 589 186 l 328 186 l 328 397 l 438 397 b 463 422 454 397 463 406 l 463 553 b 438 578 463 569 454 578 l 328 578 l 328 786 l 533 786 b 626 679 589 786 626 764 z "},"E":{"ha":743,"x_min":0,"x_max":0,"o":"m 108 0 l 676 0 b 699 22 690 0 699 8 l 699 164 b 676 186 699 178 690 186 l 296 186 l 296 396 l 638 396 b 658 418 651 396 658 404 l 658 554 b 638 576 658 568 651 576 l 296 576 l 296 786 l 668 786 b 689 808 682 786 689 794 l 689 950 b 668 972 689 964 682 972 l 108 972 b 88 950 94 972 88 964 l 88 22 b 108 0 88 8 94 0 z "},"É":{"ha":743,"x_min":0,"x_max":0,"o":"m 374 1225 l 313 1065 b 326 1040 306 1049 311 1040 l 461 1040 b 497 1065 475 1040 489 1053 l 619 1225 b 606 1250 632 1240 621 1250 l 403 1250 b 374 1225 389 1250 382 1242 z m 108 0 l 676 0 b 699 22 690 0 699 8 l 699 164 b 676 186 699 178 690 186 l 296 186 l 296 396 l 638 396 b 658 418 651 396 658 404 l 658 554 b 638 576 658 568 651 576 l 296 576 l 296 786 l 668 786 b 689 808 682 786 689 794 l 689 950 b 668 972 689 964 682 972 l 108 972 b 88 950 94 972 88 964 l 88 22 b 108 0 88 8 94 0 z "},"Ě":{"ha":743,"x_min":0,"x_max":0,"o":"m 299 1039 l 469 1039 b 508 1060 485 1039 499 1049 l 650 1222 b 638 1250 663 1235 651 1250 l 486 1250 b 440 1221 464 1250 453 1238 l 392 1163 l 378 1163 l 329 1221 b 282 1250 315 1238 304 1250 l 131 1250 b 118 1222 117 1250 107 1235 l 260 1060 b 299 1039 271 1046 283 1039 z m 108 0 l 676 0 b 699 22 690 0 699 8 l 699 164 b 676 186 699 178 690 186 l 296 186 l 296 396 l 638 396 b 658 418 651 396 658 404 l 658 554 b 638 576 658 568 651 576 l 296 576 l 296 786 l 668 786 b 689 808 682 786 689 794 l 689 950 b 668 972 689 964 682 972 l 108 972 b 88 950 94 972 88 964 l 88 22 b 108 0 88 8 94 0 z "},"Ȩ":{"ha":743,"x_min":0,"x_max":0,"o":"m 676 186 l 296 186 l 296 396 l 638 396 b 658 418 651 396 658 404 l 658 554 b 638 576 658 568 651 576 l 296 576 l 296 786 l 668 786 b 689 808 682 786 689 794 l 689 950 b 668 972 689 964 682 972 l 108 972 b 88 950 94 972 88 964 l 88 22 b 108 0 88 8 94 0 l 338 0 b 274 -82 293 -42 274 -54 b 329 -132 274 -117 299 -129 b 472 -162 454 -143 472 -146 b 439 -176 472 -174 456 -176 l 413 -176 b 385 -169 401 -176 390 -169 b 368 -154 382 -160 378 -154 l 246 -154 b 231 -174 233 -154 231 -161 b 354 -289 231 -242 263 -289 l 483 -289 b 625 -160 575 -289 625 -240 b 507 -32 625 -75 607 -42 b 513 0 479 -31 444 -25 l 676 0 b 699 22 690 0 699 8 l 699 164 b 676 186 699 178 690 186 z "},"Ê":{"ha":743,"x_min":0,"x_max":0,"o":"m 303 1250 b 264 1231 288 1250 275 1244 l 122 1068 b 135 1039 111 1054 121 1039 l 286 1039 b 333 1068 308 1039 319 1053 l 382 1126 l 396 1126 l 444 1068 b 490 1039 457 1053 468 1039 l 642 1039 b 654 1068 656 1039 667 1054 l 513 1231 b 474 1250 503 1242 489 1250 z m 108 0 l 676 0 b 699 22 690 0 699 8 l 699 164 b 676 186 699 178 690 186 l 296 186 l 296 396 l 638 396 b 658 418 651 396 658 404 l 658 554 b 638 576 658 568 651 576 l 296 576 l 296 786 l 668 786 b 689 808 682 786 689 794 l 689 950 b 668 972 689 964 682 972 l 108 972 b 88 950 94 972 88 964 l 88 22 b 108 0 88 8 94 0 z "},"Ë":{"ha":743,"x_min":0,"x_max":0,"o":"m 97 1043 l 260 1043 b 282 1065 274 1043 282 1051 l 282 1228 b 260 1250 282 1242 274 1250 l 97 1250 b 75 1228 83 1250 75 1242 l 75 1065 b 97 1043 75 1051 83 1043 z m 508 1043 l 671 1043 b 693 1065 685 1043 693 1051 l 693 1228 b 671 1250 693 1242 685 1250 l 508 1250 b 486 1228 494 1250 486 1242 l 486 1065 b 508 1043 486 1051 494 1043 z m 108 0 l 676 0 b 699 22 690 0 699 8 l 699 164 b 676 186 699 178 690 186 l 296 186 l 296 396 l 638 396 b 658 418 651 396 658 404 l 658 554 b 638 576 658 568 651 576 l 296 576 l 296 786 l 668 786 b 689 808 682 786 689 794 l 689 950 b 668 972 689 964 682 972 l 108 972 b 88 950 94 972 88 964 l 88 22 b 108 0 88 8 94 0 z "},"Ė":{"ha":743,"x_min":0,"x_max":0,"o":"m 303 1043 l 465 1043 b 488 1065 479 1043 488 1051 l 488 1228 b 465 1250 488 1242 479 1250 l 303 1250 b 281 1228 289 1250 281 1242 l 281 1065 b 303 1043 281 1051 289 1043 z m 108 0 l 676 0 b 699 22 690 0 699 8 l 699 164 b 676 186 699 178 690 186 l 296 186 l 296 396 l 638 396 b 658 418 651 396 658 404 l 658 554 b 638 576 658 568 651 576 l 296 576 l 296 786 l 668 786 b 689 808 682 786 689 794 l 689 950 b 668 972 689 964 682 972 l 108 972 b 88 950 94 972 88 964 l 88 22 b 108 0 88 8 94 0 z "},"È":{"ha":743,"x_min":0,"x_max":0,"o":"m 406 1225 b 376 1250 397 1242 390 1250 l 174 1250 b 160 1225 158 1250 147 1240 l 282 1065 b 318 1040 290 1053 304 1040 l 453 1040 b 467 1065 468 1040 474 1049 z m 108 0 l 676 0 b 699 22 690 0 699 8 l 699 164 b 676 186 699 178 690 186 l 296 186 l 296 396 l 638 396 b 658 418 651 396 658 404 l 658 554 b 638 576 658 568 651 576 l 296 576 l 296 786 l 668 786 b 689 808 682 786 689 794 l 689 950 b 668 972 689 964 682 972 l 108 972 b 88 950 94 972 88 964 l 88 22 b 108 0 88 8 94 0 z "},"Ē":{"ha":743,"x_min":0,"x_max":0,"o":"m 160 1069 l 610 1069 b 631 1090 622 1069 631 1076 l 631 1229 b 610 1250 631 1243 622 1250 l 160 1250 b 139 1229 146 1250 139 1243 l 139 1090 b 160 1069 139 1076 146 1069 z m 108 0 l 676 0 b 699 22 690 0 699 8 l 699 164 b 676 186 699 178 690 186 l 296 186 l 296 396 l 638 396 b 658 418 651 396 658 404 l 658 554 b 638 576 658 568 651 576 l 296 576 l 296 786 l 668 786 b 689 808 682 786 689 794 l 689 950 b 668 972 689 964 682 972 l 108 972 b 88 950 94 972 88 964 l 88 22 b 108 0 88 8 94 0 z "},"Ę":{"ha":743,"x_min":0,"x_max":0,"o":"m 676 186 l 296 186 l 296 396 l 638 396 b 658 418 651 396 658 404 l 658 554 b 638 576 658 568 651 576 l 296 576 l 296 786 l 668 786 b 689 808 682 786 689 794 l 689 950 b 668 972 689 964 682 972 l 108 972 b 88 950 94 972 88 964 l 88 22 b 108 0 88 8 94 0 l 494 0 b 446 -31 493 -32 474 -28 l 397 -35 b 301 -158 322 -43 301 -64 b 450 -289 301 -271 335 -289 l 661 -289 b 675 -275 671 -289 675 -283 l 675 -176 b 661 -158 675 -167 669 -158 l 488 -158 b 483 -156 486 -158 483 -156 b 494 -146 483 -151 485 -147 l 589 -135 b 699 -53 660 -125 699 -124 l 699 164 b 676 186 699 178 690 186 z "},"F":{"ha":735,"x_min":0,"x_max":0,"o":"m 668 972 l 110 972 b 88 950 96 972 88 964 l 88 22 b 110 0 88 8 96 0 l 274 0 b 296 22 288 0 296 8 l 296 396 l 640 396 b 663 418 654 396 663 404 l 663 554 b 640 576 663 568 654 576 l 296 576 l 296 786 l 668 786 b 689 808 682 786 689 794 l 689 950 b 668 972 689 964 682 972 z "},"G":{"ha":907,"x_min":0,"x_max":0,"o":"m 371 -7 l 536 -7 b 819 281 740 -7 819 108 l 819 546 b 789 576 819 567 810 576 l 444 576 b 422 554 431 576 422 568 l 422 418 b 444 396 422 404 431 396 l 611 396 l 611 286 b 518 179 611 200 574 179 l 389 179 b 296 286 333 179 296 200 l 296 686 b 389 793 296 771 333 793 l 514 793 b 611 679 567 793 611 774 b 636 654 611 663 621 654 l 796 654 b 819 679 810 654 819 664 l 819 686 b 535 979 819 868 744 979 l 371 979 b 88 692 167 979 88 864 l 88 281 b 371 -7 88 108 167 -7 z "},"Ğ":{"ha":907,"x_min":0,"x_max":0,"o":"m 426 1018 l 522 1018 b 724 1226 661 1018 724 1086 b 701 1250 724 1242 715 1250 l 581 1250 b 558 1226 567 1250 561 1242 b 490 1156 553 1192 546 1156 l 457 1156 b 389 1226 401 1156 394 1192 b 367 1250 388 1242 381 1250 l 246 1250 b 224 1226 232 1250 224 1242 b 426 1018 224 1086 286 1018 z m 371 -7 l 536 -7 b 819 281 740 -7 819 108 l 819 546 b 789 576 819 567 810 576 l 444 576 b 422 554 431 576 422 568 l 422 418 b 444 396 422 404 431 396 l 611 396 l 611 286 b 518 179 611 200 574 179 l 389 179 b 296 286 333 179 296 200 l 296 686 b 389 793 296 771 333 793 l 514 793 b 611 679 567 793 611 774 b 636 654 611 663 621 654 l 796 654 b 819 679 810 654 819 664 l 819 686 b 535 979 819 868 744 979 l 371 979 b 88 692 167 979 88 864 l 88 281 b 371 -7 88 108 167 -7 z "},"Ǧ":{"ha":907,"x_min":0,"x_max":0,"o":"m 389 1039 l 560 1039 b 599 1060 575 1039 589 1049 l 740 1222 b 728 1250 753 1235 742 1250 l 576 1250 b 531 1221 554 1250 543 1238 l 482 1163 l 468 1163 l 419 1221 b 372 1250 406 1238 394 1250 l 221 1250 b 208 1222 207 1250 197 1235 l 350 1060 b 389 1039 361 1046 374 1039 z m 371 -7 l 536 -7 b 819 281 740 -7 819 108 l 819 546 b 789 576 819 567 810 576 l 444 576 b 422 554 431 576 422 568 l 422 418 b 444 396 422 404 431 396 l 611 396 l 611 286 b 518 179 611 200 574 179 l 389 179 b 296 286 333 179 296 200 l 296 686 b 389 793 296 771 333 793 l 514 793 b 611 679 567 793 611 774 b 636 654 611 663 621 654 l 796 654 b 819 679 810 654 819 664 l 819 686 b 535 979 819 868 744 979 l 371 979 b 88 692 167 979 88 864 l 88 281 b 371 -7 88 108 167 -7 z "},"Ĝ":{"ha":907,"x_min":0,"x_max":0,"o":"m 393 1250 b 354 1231 378 1250 365 1244 l 213 1068 b 225 1039 201 1054 211 1039 l 376 1039 b 424 1068 399 1039 410 1053 l 472 1126 l 486 1126 l 535 1068 b 581 1039 547 1053 558 1039 l 732 1039 b 744 1068 746 1039 757 1054 l 603 1231 b 564 1250 593 1242 579 1250 z m 371 -7 l 536 -7 b 819 281 740 -7 819 108 l 819 546 b 789 576 819 567 810 576 l 444 576 b 422 554 431 576 422 568 l 422 418 b 444 396 422 404 431 396 l 611 396 l 611 286 b 518 179 611 200 574 179 l 389 179 b 296 286 333 179 296 200 l 296 686 b 389 793 296 771 333 793 l 514 793 b 611 679 567 793 611 774 b 636 654 611 663 621 654 l 796 654 b 819 679 810 654 819 664 l 819 686 b 535 979 819 868 744 979 l 371 979 b 88 692 167 979 88 864 l 88 281 b 371 -7 88 108 167 -7 z "},"Ģ":{"ha":907,"x_min":0,"x_max":0,"o":"m 371 -7 l 536 -7 b 819 281 740 -7 819 108 l 819 546 b 789 576 819 567 810 576 l 444 576 b 422 554 431 576 422 568 l 422 418 b 444 396 422 404 431 396 l 611 396 l 611 286 b 518 179 611 200 574 179 l 389 179 b 296 286 333 179 296 200 l 296 686 b 389 793 296 771 333 793 l 514 793 b 611 679 567 793 611 774 b 636 654 611 663 621 654 l 796 654 b 819 679 810 654 819 664 l 819 686 b 535 979 819 868 744 979 l 371 979 b 88 692 167 979 88 864 l 88 281 b 371 -7 88 108 167 -7 z m 539 -83 l 406 -83 b 383 -106 392 -83 383 -92 l 383 -360 l 315 -360 b 293 -382 301 -360 293 -368 l 293 -507 b 315 -529 293 -521 301 -529 l 504 -529 b 561 -474 540 -529 561 -510 l 561 -106 b 539 -83 561 -92 553 -83 z "},"Ġ":{"ha":907,"x_min":0,"x_max":0,"o":"m 392 1043 l 554 1043 b 576 1065 568 1043 576 1051 l 576 1228 b 554 1250 576 1242 568 1250 l 392 1250 b 369 1228 378 1250 369 1242 l 369 1065 b 392 1043 369 1051 378 1043 z m 371 -7 l 536 -7 b 819 281 740 -7 819 108 l 819 546 b 789 576 819 567 810 576 l 444 576 b 422 554 431 576 422 568 l 422 418 b 444 396 422 404 431 396 l 611 396 l 611 286 b 518 179 611 200 574 179 l 389 179 b 296 286 333 179 296 200 l 296 686 b 389 793 296 771 333 793 l 514 793 b 611 679 567 793 611 774 b 636 654 611 663 621 654 l 796 654 b 819 679 810 654 819 664 l 819 686 b 535 979 819 868 744 979 l 371 979 b 88 692 167 979 88 864 l 88 281 b 371 -7 88 108 167 -7 z "},"H":{"ha":889,"x_min":0,"x_max":0,"o":"m 781 972 l 614 972 b 592 950 600 972 592 964 l 592 576 l 297 576 l 297 950 b 275 972 297 964 289 972 l 110 972 b 88 950 96 972 88 964 l 88 22 b 110 0 88 8 96 0 l 275 0 b 297 22 289 0 297 8 l 297 396 l 592 396 l 592 22 b 614 0 592 8 600 0 l 781 0 b 803 22 794 0 803 8 l 803 950 b 781 972 803 964 794 972 z "},"Ħ":{"ha":889,"x_min":0,"x_max":0,"o":"m 781 972 l 614 972 b 592 950 600 972 592 964 l 592 835 l 297 835 l 297 950 b 275 972 297 964 289 972 l 110 972 b 88 950 96 972 88 964 l 88 22 b 110 0 88 8 96 0 l 275 0 b 297 22 289 0 297 8 l 297 396 l 592 396 l 592 22 b 614 0 592 8 600 0 l 781 0 b 803 22 794 0 803 8 l 803 950 b 781 972 803 964 794 972 z m 297 576 l 297 653 l 592 653 l 592 576 z "},"Ĥ":{"ha":889,"x_min":0,"x_max":0,"o":"m 196 1039 l 347 1039 b 394 1068 369 1039 381 1053 l 443 1126 l 457 1126 l 506 1068 b 551 1039 518 1053 529 1039 l 703 1039 b 715 1068 717 1039 728 1054 l 574 1231 b 535 1250 564 1242 550 1250 l 364 1250 b 325 1231 349 1250 336 1244 l 183 1068 b 196 1039 172 1054 182 1039 z m 781 972 l 614 972 b 592 950 600 972 592 964 l 592 576 l 297 576 l 297 950 b 275 972 297 964 289 972 l 110 972 b 88 950 96 972 88 964 l 88 22 b 110 0 88 8 96 0 l 275 0 b 297 22 289 0 297 8 l 297 396 l 592 396 l 592 22 b 614 0 592 8 600 0 l 781 0 b 803 22 794 0 803 8 l 803 950 b 781 972 803 964 794 972 z "},"I":{"ha":382,"x_min":0,"x_max":0,"o":"m 110 0 l 274 0 b 296 22 288 0 296 8 l 296 950 b 274 972 296 964 288 972 l 110 972 b 88 950 96 972 88 964 l 88 22 b 110 0 88 8 96 0 z "},"Ĳ":{"ha":924,"x_min":0,"x_max":0,"o":"m 110 0 l 274 0 b 296 22 288 0 296 8 l 296 950 b 274 972 296 964 288 972 l 110 972 b 88 950 96 972 88 964 l 88 22 b 110 0 88 8 96 0 z m 456 -7 l 554 -7 b 838 281 758 -7 838 108 l 838 950 b 815 972 838 964 829 972 l 651 972 b 629 950 638 972 629 964 l 629 286 b 536 179 629 200 592 179 l 456 179 b 435 157 442 179 435 171 l 435 15 b 456 -7 435 1 442 -7 z "},"Í":{"ha":382,"x_min":0,"x_max":0,"o":"m 181 1225 l 119 1065 b 133 1040 113 1049 118 1040 l 268 1040 b 304 1065 282 1040 296 1053 l 426 1225 b 413 1250 439 1240 428 1250 l 210 1250 b 181 1225 196 1250 189 1242 z m 110 0 l 274 0 b 296 22 288 0 296 8 l 296 950 b 274 972 296 964 288 972 l 110 972 b 88 950 96 972 88 964 l 88 22 b 110 0 88 8 96 0 z "},"Ǐ":{"ha":382,"x_min":0,"x_max":0,"o":"m 106 1039 l 276 1039 b 315 1060 292 1039 306 1049 l 457 1222 b 444 1250 469 1235 458 1250 l 293 1250 b 247 1221 271 1250 260 1238 l 199 1163 l 185 1163 l 136 1221 b 89 1250 122 1238 111 1250 l -62 1250 b -75 1222 -76 1250 -87 1235 l 67 1060 b 106 1039 78 1046 90 1039 z m 110 0 l 274 0 b 296 22 288 0 296 8 l 296 950 b 274 972 296 964 288 972 l 110 972 b 88 950 96 972 88 964 l 88 22 b 110 0 88 8 96 0 z "},"Î":{"ha":382,"x_min":0,"x_max":0,"o":"m 110 1250 b 71 1231 94 1250 82 1244 l -71 1068 b -58 1039 -83 1054 -72 1039 l 93 1039 b 140 1068 115 1039 126 1053 l 189 1126 l 203 1126 l 251 1068 b 297 1039 264 1053 275 1039 l 449 1039 b 461 1068 463 1039 474 1054 l 319 1231 b 281 1250 310 1242 296 1250 z m 110 0 l 274 0 b 296 22 288 0 296 8 l 296 950 b 274 972 296 964 288 972 l 110 972 b 88 950 96 972 88 964 l 88 22 b 110 0 88 8 96 0 z "},"Ï":{"ha":382,"x_min":0,"x_max":0,"o":"m -96 1043 l 67 1043 b 89 1065 81 1043 89 1051 l 89 1228 b 67 1250 89 1242 81 1250 l -96 1250 b -118 1228 -110 1250 -118 1242 l -118 1065 b -96 1043 -118 1051 -110 1043 z m 315 1043 l 478 1043 b 500 1065 492 1043 500 1051 l 500 1228 b 478 1250 500 1242 492 1250 l 315 1250 b 293 1228 301 1250 293 1242 l 293 1065 b 315 1043 293 1051 301 1043 z m 110 0 l 274 0 b 296 22 288 0 296 8 l 296 950 b 274 972 296 964 288 972 l 110 972 b 88 950 96 972 88 964 l 88 22 b 110 0 88 8 96 0 z "},"İ":{"ha":382,"x_min":0,"x_max":0,"o":"m 110 1043 l 272 1043 b 294 1065 286 1043 294 1051 l 294 1228 b 272 1250 294 1242 286 1250 l 110 1250 b 88 1228 96 1250 88 1242 l 88 1065 b 110 1043 88 1051 96 1043 z m 110 0 l 274 0 b 296 22 288 0 296 8 l 296 950 b 274 972 296 964 288 972 l 110 972 b 88 950 96 972 88 964 l 88 22 b 110 0 88 8 96 0 z "},"Ì":{"ha":382,"x_min":0,"x_max":0,"o":"m 213 1225 b 183 1250 204 1242 197 1250 l -19 1250 b -33 1225 -35 1250 -46 1240 l 89 1065 b 125 1040 97 1053 111 1040 l 260 1040 b 274 1065 275 1040 281 1049 z m 110 0 l 274 0 b 296 22 288 0 296 8 l 296 950 b 274 972 296 964 288 972 l 110 972 b 88 950 96 972 88 964 l 88 22 b 110 0 88 8 96 0 z "},"Ī":{"ha":382,"x_min":0,"x_max":0,"o":"m -35 1069 l 415 1069 b 436 1090 428 1069 436 1076 l 436 1229 b 415 1250 436 1243 428 1250 l -35 1250 b -56 1229 -49 1250 -56 1243 l -56 1090 b -35 1069 -56 1076 -49 1069 z m 110 0 l 274 0 b 296 22 288 0 296 8 l 296 950 b 274 972 296 964 288 972 l 110 972 b 88 950 96 972 88 964 l 88 22 b 110 0 88 8 96 0 z "},"Į":{"ha":381,"x_min":0,"x_max":0,"o":"m 279 972 l 115 972 b 93 950 101 972 93 964 l 93 4 b 44 -31 93 -32 72 -26 l -3 -35 b -97 -158 -76 -43 -97 -64 b 51 -289 -97 -271 -65 -289 l 263 -289 b 276 -275 272 -289 276 -283 l 276 -176 b 263 -158 276 -167 271 -158 l 89 -158 b 85 -156 88 -158 85 -156 b 96 -146 85 -151 86 -147 l 190 -135 b 301 -53 264 -125 301 -124 l 301 950 b 279 972 301 964 293 972 z "},"J":{"ha":542,"x_min":0,"x_max":0,"o":"m 74 -7 l 172 -7 b 456 281 376 -7 456 108 l 456 950 b 433 972 456 964 447 972 l 269 972 b 247 950 256 972 247 964 l 247 286 b 154 179 247 200 210 179 l 74 179 b 53 157 60 179 53 171 l 53 15 b 74 -7 53 1 60 -7 z "},"Ĵ":{"ha":542,"x_min":0,"x_max":0,"o":"m 269 1250 b 231 1231 254 1250 242 1244 l 89 1068 b 101 1039 78 1054 88 1039 l 253 1039 b 300 1068 275 1039 286 1053 l 349 1126 l 363 1126 l 411 1068 b 457 1039 424 1053 435 1039 l 608 1039 b 621 1068 622 1039 633 1054 l 479 1231 b 440 1250 469 1242 456 1250 z m 74 -7 l 172 -7 b 456 281 376 -7 456 108 l 456 950 b 433 972 456 964 447 972 l 269 972 b 247 950 256 972 247 964 l 247 286 b 154 179 247 200 210 179 l 74 179 b 53 157 60 179 53 171 l 53 15 b 74 -7 53 1 60 -7 z "},"K":{"ha":893,"x_min":0,"x_max":0,"o":"m 842 38 l 508 546 l 824 935 b 815 972 840 954 832 972 l 632 972 b 589 949 613 972 601 964 l 296 578 l 296 950 b 274 972 296 964 288 972 l 110 972 b 88 950 96 972 88 964 l 88 22 b 110 0 88 8 96 0 l 274 0 b 296 22 288 0 296 8 l 296 285 l 374 381 l 607 19 b 646 0 618 1 635 0 l 835 0 b 842 38 853 0 847 26 z "},"Ķ":{"ha":893,"x_min":0,"x_max":0,"o":"m 842 38 l 508 546 l 824 935 b 815 972 840 954 832 972 l 632 972 b 589 949 613 972 601 964 l 296 578 l 296 950 b 274 972 296 964 288 972 l 110 972 b 88 950 96 972 88 964 l 88 22 b 110 0 88 8 96 0 l 274 0 b 296 22 288 0 296 8 l 296 285 l 374 381 l 607 19 b 646 0 618 1 635 0 l 835 0 b 842 38 853 0 847 26 z m 503 -83 l 369 -83 b 347 -106 356 -83 347 -92 l 347 -360 l 279 -360 b 257 -382 265 -360 257 -368 l 257 -507 b 279 -529 257 -521 265 -529 l 468 -529 b 525 -474 504 -529 525 -510 l 525 -106 b 503 -83 525 -92 517 -83 z "},"L":{"ha":715,"x_min":0,"x_max":0,"o":"m 108 0 l 642 0 b 664 22 656 0 664 8 l 664 164 b 642 186 664 178 656 186 l 296 186 l 296 950 b 274 972 296 964 288 972 l 110 972 b 88 950 96 972 88 964 l 88 22 b 108 0 88 8 94 0 z "},"Ĺ":{"ha":715,"x_min":0,"x_max":0,"o":"m 181 1225 l 119 1065 b 133 1040 113 1049 118 1040 l 268 1040 b 304 1065 282 1040 296 1053 l 426 1225 b 413 1250 439 1240 428 1250 l 210 1250 b 181 1225 196 1250 189 1242 z m 108 0 l 642 0 b 664 22 656 0 664 8 l 664 164 b 642 186 664 178 656 186 l 296 186 l 296 950 b 274 972 296 964 288 972 l 110 972 b 88 950 96 972 88 964 l 88 22 b 108 0 88 8 94 0 z "},"Ľ":{"ha":715,"x_min":0,"x_max":0,"o":"m 108 0 l 642 0 b 664 22 656 0 664 8 l 664 164 b 642 186 664 178 656 186 l 296 186 l 296 950 b 274 972 296 964 288 972 l 110 972 b 88 950 96 972 88 964 l 88 22 b 108 0 88 8 94 0 z m 619 972 l 486 972 b 464 950 472 972 464 964 l 464 696 l 396 696 b 374 674 382 696 374 688 l 374 549 b 396 526 374 535 382 526 l 585 526 b 642 583 621 526 642 547 l 642 950 b 619 972 642 964 633 972 z "},"Ļ":{"ha":715,"x_min":0,"x_max":0,"o":"m 108 0 l 642 0 b 664 22 656 0 664 8 l 664 164 b 642 186 664 178 656 186 l 296 186 l 296 950 b 274 972 296 964 288 972 l 110 972 b 88 950 96 972 88 964 l 88 22 b 108 0 88 8 94 0 z m 438 -83 l 304 -83 b 282 -106 290 -83 282 -92 l 282 -360 l 214 -360 b 192 -382 200 -360 192 -368 l 192 -507 b 214 -529 192 -521 200 -529 l 403 -529 b 460 -474 439 -529 460 -510 l 460 -106 b 438 -83 460 -92 451 -83 z "},"Ŀ":{"ha":715,"x_min":0,"x_max":0,"o":"m 108 0 l 642 0 b 664 22 656 0 664 8 l 664 164 b 642 186 664 178 656 186 l 296 186 l 296 950 b 274 972 296 964 288 972 l 110 972 b 88 950 96 972 88 964 l 88 22 b 108 0 88 8 94 0 z m 472 418 l 635 418 b 657 440 649 418 657 426 l 657 603 b 635 625 657 617 649 625 l 472 625 b 450 603 458 625 450 617 l 450 440 b 472 418 450 426 458 418 z "},"Ł":{"ha":775,"x_min":0,"x_max":0,"o":"m 701 186 l 354 186 l 354 349 l 610 626 b 597 653 624 640 614 653 l 411 653 b 379 629 400 653 397 647 l 354 603 l 354 950 b 332 972 354 964 346 972 l 168 972 b 146 950 154 972 146 964 l 146 376 l 13 232 b 26 206 -1 218 10 206 l 146 206 l 146 22 b 168 0 146 8 154 0 l 701 0 b 722 22 715 0 722 8 l 722 164 b 701 186 722 178 715 186 z "},"M":{"ha":1113,"x_min":0,"x_max":0,"o":"m 110 0 l 274 0 b 296 22 288 0 296 8 l 296 697 l 308 697 l 425 21 b 451 0 426 7 439 0 l 663 0 b 689 21 675 0 686 7 l 804 697 l 818 697 l 818 22 b 840 0 818 8 826 0 l 1004 0 b 1026 22 1018 0 1026 8 l 1026 950 b 1004 972 1026 964 1018 972 l 715 972 b 686 951 701 972 688 965 l 561 254 l 551 254 l 428 951 b 399 972 425 965 413 972 l 110 972 b 88 950 96 972 88 964 l 88 22 b 110 0 88 8 96 0 z "},"Ḿ":{"ha":1113,"x_min":0,"x_max":0,"o":"m 542 1232 l 481 1072 b 494 1047 474 1056 479 1047 l 629 1047 b 665 1072 643 1047 657 1060 l 788 1232 b 774 1257 800 1247 789 1257 l 571 1257 b 542 1232 557 1257 550 1249 z m 110 0 l 274 0 b 296 22 288 0 296 8 l 296 697 l 308 697 l 425 21 b 451 0 426 7 439 0 l 663 0 b 689 21 675 0 686 7 l 804 697 l 818 697 l 818 22 b 840 0 818 8 826 0 l 1004 0 b 1026 22 1018 0 1026 8 l 1026 950 b 1004 972 1026 964 1018 972 l 715 972 b 686 951 701 972 688 965 l 561 254 l 551 254 l 428 951 b 399 972 425 965 413 972 l 110 972 b 88 950 96 972 88 964 l 88 22 b 110 0 88 8 96 0 z "},"N":{"ha":938,"x_min":0,"x_max":0,"o":"m 110 0 l 274 0 b 296 22 288 0 296 8 l 296 697 l 308 697 l 532 15 b 557 0 535 4 546 0 l 829 0 b 851 22 843 0 851 8 l 851 950 b 829 972 851 964 843 972 l 665 972 b 643 950 651 972 643 964 l 643 275 l 629 275 l 407 957 b 382 972 403 968 393 972 l 110 972 b 88 950 96 972 88 964 l 88 22 b 110 0 88 8 96 0 z "},"Ń":{"ha":938,"x_min":0,"x_max":0,"o":"m 458 1225 l 397 1065 b 411 1040 390 1049 396 1040 l 546 1040 b 582 1065 560 1040 574 1053 l 704 1225 b 690 1250 717 1240 706 1250 l 488 1250 b 458 1225 474 1250 467 1242 z m 110 0 l 274 0 b 296 22 288 0 296 8 l 296 697 l 308 697 l 532 15 b 557 0 535 4 546 0 l 829 0 b 851 22 843 0 851 8 l 851 950 b 829 972 851 964 843 972 l 665 972 b 643 950 651 972 643 964 l 643 275 l 629 275 l 407 957 b 382 972 403 968 393 972 l 110 972 b 88 950 96 972 88 964 l 88 22 b 110 0 88 8 96 0 z "},"Ň":{"ha":938,"x_min":0,"x_max":0,"o":"m 383 1039 l 554 1039 b 593 1060 569 1039 583 1049 l 735 1222 b 722 1250 747 1235 736 1250 l 571 1250 b 525 1221 549 1250 538 1238 l 476 1163 l 463 1163 l 414 1221 b 367 1250 400 1238 389 1250 l 215 1250 b 203 1222 201 1250 192 1235 l 344 1060 b 383 1039 356 1046 368 1039 z m 110 0 l 274 0 b 296 22 288 0 296 8 l 296 697 l 308 697 l 532 15 b 557 0 535 4 546 0 l 829 0 b 851 22 843 0 851 8 l 851 950 b 829 972 851 964 843 972 l 665 972 b 643 950 651 972 643 964 l 643 275 l 629 275 l 407 957 b 382 972 403 968 393 972 l 110 972 b 88 950 96 972 88 964 l 88 22 b 110 0 88 8 96 0 z "},"Ņ":{"ha":938,"x_min":0,"x_max":0,"o":"m 110 0 l 274 0 b 296 22 288 0 296 8 l 296 697 l 308 697 l 532 15 b 557 0 535 4 546 0 l 829 0 b 851 22 843 0 851 8 l 851 950 b 829 972 851 964 843 972 l 665 972 b 643 950 651 972 643 964 l 643 275 l 629 275 l 407 957 b 382 972 403 968 393 972 l 110 972 b 88 950 96 972 88 964 l 88 22 b 110 0 88 8 96 0 z m 535 -83 l 401 -83 b 379 -106 388 -83 379 -92 l 379 -360 l 311 -360 b 289 -382 297 -360 289 -368 l 289 -507 b 311 -529 289 -521 297 -529 l 500 -529 b 557 -474 536 -529 557 -510 l 557 -106 b 535 -83 557 -92 549 -83 z "},"Ŋ":{"ha":938,"x_min":0,"x_max":0,"o":"m 829 972 l 665 972 b 643 950 651 972 643 964 l 643 275 l 629 275 l 407 957 b 382 972 403 968 393 972 l 110 972 b 88 950 96 972 88 964 l 88 22 b 110 0 88 8 96 0 l 274 0 b 296 22 288 0 296 8 l 296 697 l 308 697 l 532 15 b 557 0 535 4 546 0 l 643 0 b 550 -99 640 -79 604 -99 l 469 -99 b 449 -121 456 -99 449 -107 l 449 -262 b 469 -285 449 -276 456 -285 l 568 -285 b 851 3 772 -285 851 -169 l 851 950 b 829 972 851 964 843 972 z "},"Ñ":{"ha":938,"x_min":0,"x_max":0,"o":"m 558 1029 b 706 1079 607 1029 651 1038 b 719 1114 717 1089 725 1097 l 675 1226 b 649 1233 671 1233 661 1240 b 561 1206 613 1215 599 1206 b 382 1257 496 1206 481 1257 b 235 1207 333 1257 289 1249 b 221 1172 224 1197 215 1189 l 265 1060 b 294 1054 269 1053 279 1046 b 379 1081 326 1074 342 1081 b 558 1029 444 1081 460 1029 z m 110 0 l 274 0 b 296 22 288 0 296 8 l 296 697 l 308 697 l 532 15 b 557 0 535 4 546 0 l 829 0 b 851 22 843 0 851 8 l 851 950 b 829 972 851 964 843 972 l 665 972 b 643 950 651 972 643 964 l 643 275 l 629 275 l 407 957 b 382 972 403 968 393 972 l 110 972 b 88 950 96 972 88 964 l 88 22 b 110 0 88 8 96 0 z "},"O":{"ha":910,"x_min":0,"x_max":0,"o":"m 371 -7 l 540 -7 b 824 281 744 -7 824 108 l 824 692 b 540 979 824 864 744 979 l 371 979 b 88 692 167 979 88 864 l 88 281 b 371 -7 88 108 167 -7 z m 389 179 b 296 286 333 179 296 200 l 296 686 b 389 793 296 771 333 793 l 522 793 b 615 686 578 793 615 771 l 615 286 b 522 179 615 200 578 179 z "},"Ó":{"ha":910,"x_min":0,"x_max":0,"o":"m 444 1225 l 383 1065 b 397 1040 376 1049 382 1040 l 532 1040 b 568 1065 546 1040 560 1053 l 690 1225 b 676 1250 703 1240 692 1250 l 474 1250 b 444 1225 460 1250 453 1242 z m 371 -7 l 540 -7 b 824 281 744 -7 824 108 l 824 692 b 540 979 824 864 744 979 l 371 979 b 88 692 167 979 88 864 l 88 281 b 371 -7 88 108 167 -7 z m 389 179 b 296 286 333 179 296 200 l 296 686 b 389 793 296 771 333 793 l 522 793 b 615 686 578 793 615 771 l 615 286 b 522 179 615 200 578 179 z "},"Ǒ":{"ha":910,"x_min":0,"x_max":0,"o":"m 371 1039 l 542 1039 b 581 1060 557 1039 571 1049 l 722 1222 b 710 1250 735 1235 724 1250 l 558 1250 b 513 1221 536 1250 525 1238 l 464 1163 l 450 1163 l 401 1221 b 354 1250 388 1238 376 1250 l 203 1250 b 190 1222 189 1250 179 1235 l 332 1060 b 371 1039 343 1046 356 1039 z m 371 -7 l 540 -7 b 824 281 744 -7 824 108 l 824 692 b 540 979 824 864 744 979 l 371 979 b 88 692 167 979 88 864 l 88 281 b 371 -7 88 108 167 -7 z m 389 179 b 296 286 333 179 296 200 l 296 686 b 389 793 296 771 333 793 l 522 793 b 615 686 578 793 615 771 l 615 286 b 522 179 615 200 578 179 z "},"Ô":{"ha":910,"x_min":0,"x_max":0,"o":"m 375 1250 b 336 1231 360 1250 347 1244 l 194 1068 b 207 1039 183 1054 193 1039 l 358 1039 b 406 1068 381 1039 392 1053 l 454 1126 l 468 1126 l 517 1068 b 563 1039 529 1053 540 1039 l 714 1039 b 726 1068 728 1039 739 1054 l 585 1231 b 546 1250 575 1242 561 1250 z m 371 -7 l 540 -7 b 824 281 744 -7 824 108 l 824 692 b 540 979 824 864 744 979 l 371 979 b 88 692 167 979 88 864 l 88 281 b 371 -7 88 108 167 -7 z m 389 179 b 296 286 333 179 296 200 l 296 686 b 389 793 296 771 333 793 l 522 793 b 615 686 578 793 615 771 l 615 286 b 522 179 615 200 578 179 z "},"Ö":{"ha":910,"x_min":0,"x_max":0,"o":"m 169 1043 l 332 1043 b 354 1065 346 1043 354 1051 l 354 1228 b 332 1250 354 1242 346 1250 l 169 1250 b 147 1228 156 1250 147 1242 l 147 1065 b 169 1043 147 1051 156 1043 z m 581 1043 l 743 1043 b 765 1065 757 1043 765 1051 l 765 1228 b 743 1250 765 1242 757 1250 l 581 1250 b 558 1228 567 1250 558 1242 l 558 1065 b 581 1043 558 1051 567 1043 z m 371 -7 l 540 -7 b 824 281 744 -7 824 108 l 824 692 b 540 979 824 864 744 979 l 371 979 b 88 692 167 979 88 864 l 88 281 b 371 -7 88 108 167 -7 z m 389 179 b 296 286 333 179 296 200 l 296 686 b 389 793 296 771 333 793 l 522 793 b 615 686 578 793 615 771 l 615 286 b 522 179 615 200 578 179 z "},"Ò":{"ha":910,"x_min":0,"x_max":0,"o":"m 478 1225 b 449 1250 469 1242 463 1250 l 246 1250 b 232 1225 231 1250 219 1240 l 354 1065 b 390 1040 363 1053 376 1040 l 525 1040 b 539 1065 540 1040 546 1049 z m 371 -7 l 540 -7 b 824 281 744 -7 824 108 l 824 692 b 540 979 824 864 744 979 l 371 979 b 88 692 167 979 88 864 l 88 281 b 371 -7 88 108 167 -7 z m 389 179 b 296 286 333 179 296 200 l 296 686 b 389 793 296 771 333 793 l 522 793 b 615 686 578 793 615 771 l 615 286 b 522 179 615 200 578 179 z "},"Ő":{"ha":910,"x_min":0,"x_max":0,"o":"m 285 1225 l 224 1065 b 238 1040 217 1049 222 1040 l 372 1040 b 408 1065 386 1040 400 1053 l 531 1225 b 517 1250 543 1240 532 1250 l 314 1250 b 285 1225 300 1250 293 1242 z m 585 1225 l 524 1065 b 538 1040 517 1049 522 1040 l 672 1040 b 708 1065 686 1040 700 1053 l 831 1225 b 817 1250 843 1240 832 1250 l 614 1250 b 585 1225 600 1250 593 1242 z m 371 -7 l 540 -7 b 824 281 744 -7 824 108 l 824 692 b 540 979 824 864 744 979 l 371 979 b 88 692 167 979 88 864 l 88 281 b 371 -7 88 108 167 -7 z m 389 179 b 296 286 333 179 296 200 l 296 686 b 389 793 296 771 333 793 l 522 793 b 615 686 578 793 615 771 l 615 286 b 522 179 615 200 578 179 z "},"Ō":{"ha":910,"x_min":0,"x_max":0,"o":"m 231 1069 l 681 1069 b 701 1090 693 1069 701 1076 l 701 1229 b 681 1250 701 1243 693 1250 l 231 1250 b 210 1229 217 1250 210 1243 l 210 1090 b 231 1069 210 1076 217 1069 z m 371 -7 l 540 -7 b 824 281 744 -7 824 108 l 824 692 b 540 979 824 864 744 979 l 371 979 b 88 692 167 979 88 864 l 88 281 b 371 -7 88 108 167 -7 z m 389 179 b 296 286 333 179 296 200 l 296 686 b 389 793 296 771 333 793 l 522 793 b 615 686 578 793 615 771 l 615 286 b 522 179 615 200 578 179 z "},"Ø":{"ha":910,"x_min":0,"x_max":0,"o":"m 739 918 l 772 997 b 758 1019 778 1011 772 1019 l 596 1019 b 567 999 582 1019 572 1013 l 558 979 l 540 979 l 371 979 b 88 692 167 979 88 864 l 88 281 b 171 54 88 183 113 104 l 139 -24 b 154 -47 133 -37 140 -47 l 315 -47 b 344 -26 329 -47 339 -40 l 353 -7 l 371 -7 l 540 -7 b 824 281 744 -7 824 108 l 824 692 b 739 918 824 789 799 868 z m 296 686 b 389 793 296 771 333 793 l 481 793 l 296 351 z m 522 179 l 431 179 l 615 622 l 615 286 b 522 179 615 200 578 179 z "},"Õ":{"ha":910,"x_min":0,"x_max":0,"o":"m 546 1029 b 693 1079 594 1029 639 1038 b 707 1114 704 1089 713 1097 l 663 1226 b 636 1233 658 1233 649 1240 b 549 1206 600 1215 586 1206 b 369 1257 483 1206 468 1257 b 222 1207 321 1257 276 1249 b 208 1172 211 1197 203 1189 l 253 1060 b 282 1054 257 1053 267 1046 b 367 1081 314 1074 329 1081 b 546 1029 432 1081 447 1029 z m 371 -7 l 540 -7 b 824 281 744 -7 824 108 l 824 692 b 540 979 824 864 744 979 l 371 979 b 88 692 167 979 88 864 l 88 281 b 371 -7 88 108 167 -7 z m 389 179 b 296 286 333 179 296 200 l 296 686 b 389 793 296 771 333 793 l 522 793 b 615 686 578 793 615 771 l 615 286 b 522 179 615 200 578 179 z "},"Œ":{"ha":1271,"x_min":0,"x_max":0,"o":"m 1204 186 l 824 186 l 824 396 l 1165 396 b 1186 418 1179 396 1186 404 l 1186 554 b 1165 576 1186 568 1179 576 l 824 576 l 824 786 l 1196 786 b 1217 808 1210 786 1217 794 l 1217 950 b 1196 972 1217 964 1210 972 l 636 972 b 628 971 633 972 631 972 b 540 979 601 976 572 979 l 371 979 b 88 692 167 979 88 864 l 88 281 b 371 -7 88 108 167 -7 l 540 -7 b 628 1 572 -7 601 -4 b 636 0 631 0 633 0 l 1204 0 b 1226 22 1218 0 1226 8 l 1226 164 b 1204 186 1226 178 1218 186 z m 522 179 l 389 179 b 296 286 333 179 296 200 l 296 686 b 389 793 296 771 333 793 l 522 793 b 615 686 578 793 615 771 l 615 286 b 522 179 615 200 578 179 z "},"P":{"ha":868,"x_min":0,"x_max":0,"o":"m 508 972 l 110 972 b 88 950 96 972 88 964 l 88 22 b 110 0 88 8 96 0 l 274 0 b 296 22 288 0 296 8 l 296 238 l 508 238 b 796 528 711 238 796 357 l 796 682 b 508 972 796 853 711 972 z m 588 533 b 490 424 588 447 546 424 l 296 424 l 296 786 l 490 786 b 588 676 546 786 588 760 z "},"Þ":{"ha":882,"x_min":0,"x_max":0,"o":"m 508 854 l 296 854 l 296 950 b 274 972 296 964 288 972 l 110 972 b 88 950 96 972 88 964 l 88 22 b 110 0 88 8 96 0 l 274 0 b 296 22 288 0 296 8 l 296 118 l 508 118 b 796 410 713 118 796 238 l 796 563 b 508 854 796 735 713 854 z m 588 415 b 490 304 588 329 546 304 l 296 304 l 296 668 l 490 668 b 588 557 546 668 588 642 z "},"Q":{"ha":910,"x_min":0,"x_max":0,"o":"m 540 979 l 371 979 b 88 692 167 979 88 864 l 88 281 b 351 -7 88 114 161 0 l 351 -111 b 374 -133 351 -125 360 -133 l 538 -133 b 560 -111 551 -133 560 -125 l 560 -7 b 824 281 750 0 824 114 l 824 692 b 540 979 824 864 744 979 z m 615 286 b 522 179 615 200 578 179 l 389 179 b 296 286 333 179 296 200 l 296 686 b 389 793 296 771 333 793 l 522 793 b 615 686 578 793 615 771 z "},"R":{"ha":872,"x_min":0,"x_max":0,"o":"m 796 528 l 796 682 b 508 972 796 853 711 972 l 110 972 b 88 950 96 972 88 964 l 88 22 b 110 0 88 8 96 0 l 274 0 b 296 22 288 0 296 8 l 296 238 l 492 238 l 578 24 b 617 0 583 8 599 0 l 765 0 b 790 36 789 0 800 14 l 689 285 b 796 528 763 335 796 421 z m 296 786 l 490 786 b 588 676 546 786 588 760 l 588 533 b 490 424 588 447 546 424 l 296 424 z "},"Ŕ":{"ha":872,"x_min":0,"x_max":0,"o":"m 361 1040 l 496 1040 b 532 1065 510 1040 524 1053 l 654 1225 b 640 1250 667 1240 656 1250 l 438 1250 b 408 1225 424 1250 417 1242 l 347 1065 b 361 1040 340 1049 346 1040 z m 796 528 l 796 682 b 508 972 796 853 711 972 l 110 972 b 88 950 96 972 88 964 l 88 22 b 110 0 88 8 96 0 l 274 0 b 296 22 288 0 296 8 l 296 238 l 492 238 l 578 24 b 617 0 583 8 599 0 l 765 0 b 790 36 789 0 800 14 l 689 285 b 796 528 763 335 796 421 z m 296 786 l 490 786 b 588 676 546 786 588 760 l 588 533 b 490 424 588 447 546 424 l 296 424 z "},"Ř":{"ha":872,"x_min":0,"x_max":0,"o":"m 294 1060 b 333 1039 306 1046 318 1039 l 504 1039 b 543 1060 519 1039 533 1049 l 685 1222 b 672 1250 697 1235 686 1250 l 521 1250 b 475 1221 499 1250 488 1238 l 426 1163 l 413 1163 l 364 1221 b 317 1250 350 1238 339 1250 l 165 1250 b 153 1222 151 1250 142 1235 z m 796 528 l 796 682 b 508 972 796 853 711 972 l 110 972 b 88 950 96 972 88 964 l 88 22 b 110 0 88 8 96 0 l 274 0 b 296 22 288 0 296 8 l 296 238 l 492 238 l 578 24 b 617 0 583 8 599 0 l 765 0 b 790 36 789 0 800 14 l 689 285 b 796 528 763 335 796 421 z m 296 786 l 490 786 b 588 676 546 786 588 760 l 588 533 b 490 424 588 447 546 424 l 296 424 z "},"Ŗ":{"ha":872,"x_min":0,"x_max":0,"o":"m 796 528 l 796 682 b 508 972 796 853 711 972 l 110 972 b 88 950 96 972 88 964 l 88 22 b 110 0 88 8 96 0 l 274 0 b 296 22 288 0 296 8 l 296 238 l 492 238 l 578 24 b 617 0 583 8 599 0 l 765 0 b 790 36 789 0 800 14 l 689 285 b 796 528 763 335 796 421 z m 296 786 l 490 786 b 588 676 546 786 588 760 l 588 533 b 490 424 588 447 546 424 l 296 424 z m 485 -83 l 351 -83 b 329 -106 338 -83 329 -92 l 329 -360 l 261 -360 b 239 -382 247 -360 239 -368 l 239 -507 b 261 -529 239 -521 247 -529 l 450 -529 b 507 -474 486 -529 507 -510 l 507 -106 b 485 -83 507 -92 499 -83 z "},"S":{"ha":851,"x_min":0,"x_max":0,"o":"m 347 -7 l 497 -7 b 785 289 700 -7 785 90 b 461 578 785 519 638 558 l 385 586 b 282 703 289 596 282 651 b 376 793 282 769 319 793 l 460 793 b 551 719 515 793 543 772 b 585 688 554 699 567 688 l 731 688 b 760 719 751 688 760 699 b 479 979 760 879 665 979 l 360 979 b 74 713 165 979 74 885 b 386 414 74 488 203 436 l 461 406 b 576 289 544 397 576 372 b 468 179 576 194 524 179 l 378 179 b 275 253 322 179 283 194 b 242 285 272 274 260 285 l 96 285 b 67 253 75 285 67 274 b 347 -7 67 94 150 -7 z "},"Ś":{"ha":851,"x_min":0,"x_max":0,"o":"m 414 1225 l 353 1065 b 367 1040 346 1049 351 1040 l 501 1040 b 538 1065 515 1040 529 1053 l 660 1225 b 646 1250 672 1240 661 1250 l 443 1250 b 414 1225 429 1250 422 1242 z m 347 -7 l 497 -7 b 785 289 700 -7 785 90 b 461 578 785 519 638 558 l 385 586 b 282 703 289 596 282 651 b 376 793 282 769 319 793 l 460 793 b 551 719 515 793 543 772 b 585 688 554 699 567 688 l 731 688 b 760 719 751 688 760 699 b 479 979 760 879 665 979 l 360 979 b 74 713 165 979 74 885 b 386 414 74 488 203 436 l 461 406 b 576 289 544 397 576 372 b 468 179 576 194 524 179 l 378 179 b 275 253 322 179 283 194 b 242 285 272 274 260 285 l 96 285 b 67 253 75 285 67 274 b 347 -7 67 94 150 -7 z "},"Š":{"ha":851,"x_min":0,"x_max":0,"o":"m 340 1039 l 511 1039 b 550 1060 526 1039 540 1049 l 692 1222 b 679 1250 704 1235 693 1250 l 528 1250 b 482 1221 506 1250 494 1238 l 433 1163 l 419 1163 l 371 1221 b 324 1250 357 1238 346 1250 l 172 1250 b 160 1222 158 1250 149 1235 l 301 1060 b 340 1039 313 1046 325 1039 z m 347 -7 l 497 -7 b 785 289 700 -7 785 90 b 461 578 785 519 638 558 l 385 586 b 282 703 289 596 282 651 b 376 793 282 769 319 793 l 460 793 b 551 719 515 793 543 772 b 585 688 554 699 567 688 l 731 688 b 760 719 751 688 760 699 b 479 979 760 879 665 979 l 360 979 b 74 713 165 979 74 885 b 386 414 74 488 203 436 l 461 406 b 576 289 544 397 576 372 b 468 179 576 194 524 179 l 378 179 b 275 253 322 179 283 194 b 242 285 272 274 260 285 l 96 285 b 67 253 75 285 67 274 b 347 -7 67 94 150 -7 z "},"Ş":{"ha":851,"x_min":0,"x_max":0,"o":"m 565 -3 b 785 289 719 18 785 114 b 461 578 785 519 638 558 l 385 586 b 282 703 289 596 282 651 b 376 793 282 769 319 793 l 460 793 b 551 719 515 793 543 772 b 585 688 554 699 567 688 l 731 688 b 760 719 751 688 760 699 b 479 979 760 879 665 979 l 360 979 b 74 713 165 979 74 885 b 386 414 74 488 203 436 l 461 406 b 576 289 544 397 576 372 b 468 179 576 194 524 179 l 378 179 b 275 253 322 179 283 194 b 242 285 272 274 260 285 l 96 285 b 67 253 75 285 67 274 b 347 -7 67 94 150 -7 l 390 -7 b 333 -82 350 -43 333 -56 b 389 -132 333 -117 358 -129 b 532 -162 514 -143 532 -146 b 499 -176 532 -174 515 -176 l 472 -176 b 444 -169 461 -176 450 -169 b 428 -154 442 -160 438 -154 l 306 -154 b 290 -174 293 -154 290 -161 b 414 -289 290 -242 322 -289 l 543 -289 b 685 -160 635 -289 685 -240 b 567 -32 685 -75 667 -42 b 565 -3 540 -31 507 -25 z "},"Ŝ":{"ha":851,"x_min":0,"x_max":0,"o":"m 344 1250 b 306 1231 329 1250 317 1244 l 164 1068 b 176 1039 153 1054 163 1039 l 328 1039 b 375 1068 350 1039 361 1053 l 424 1126 l 438 1126 l 486 1068 b 532 1039 499 1053 510 1039 l 683 1039 b 696 1068 697 1039 708 1054 l 554 1231 b 515 1250 544 1242 531 1250 z m 347 -7 l 497 -7 b 785 289 700 -7 785 90 b 461 578 785 519 638 558 l 385 586 b 282 703 289 596 282 651 b 376 793 282 769 319 793 l 460 793 b 551 719 515 793 543 772 b 585 688 554 699 567 688 l 731 688 b 760 719 751 688 760 699 b 479 979 760 879 665 979 l 360 979 b 74 713 165 979 74 885 b 386 414 74 488 203 436 l 461 406 b 576 289 544 397 576 372 b 468 179 576 194 524 179 l 378 179 b 275 253 322 179 283 194 b 242 285 272 274 260 285 l 96 285 b 67 253 75 285 67 274 b 347 -7 67 94 150 -7 z "},"Ș":{"ha":851,"x_min":0,"x_max":0,"o":"m 347 -7 l 497 -7 b 785 289 700 -7 785 90 b 461 578 785 519 638 558 l 385 586 b 282 703 289 596 282 651 b 376 793 282 769 319 793 l 460 793 b 551 719 515 793 543 772 b 585 688 554 699 567 688 l 731 688 b 760 719 751 688 760 699 b 479 979 760 879 665 979 l 360 979 b 74 713 165 979 74 885 b 386 414 74 488 203 436 l 461 406 b 576 289 544 397 576 372 b 468 179 576 194 524 179 l 378 179 b 275 253 322 179 283 194 b 242 285 272 274 260 285 l 96 285 b 67 253 75 285 67 274 b 347 -7 67 94 150 -7 z m 490 -83 l 357 -83 b 335 -106 343 -83 335 -92 l 335 -360 l 267 -360 b 244 -382 253 -360 244 -368 l 244 -507 b 267 -529 244 -521 253 -529 l 456 -529 b 513 -474 492 -529 513 -510 l 513 -106 b 490 -83 513 -92 504 -83 z "},"T":{"ha":768,"x_min":0,"x_max":0,"o":"m 688 972 l 81 972 b 60 950 67 972 60 964 l 60 808 b 81 786 60 794 67 786 l 281 786 l 281 22 b 303 0 281 8 289 0 l 467 0 b 489 22 481 0 489 8 l 489 786 l 688 786 b 710 808 701 786 710 794 l 710 950 b 688 972 710 964 701 972 z "},"Ŧ":{"ha":782,"x_min":0,"x_max":0,"o":"m 688 972 l 81 972 b 60 950 67 972 60 964 l 60 808 b 81 786 60 794 67 786 l 281 786 l 281 617 l 160 617 b 139 596 146 617 139 610 l 139 456 b 160 435 139 442 146 435 l 281 435 l 281 22 b 303 0 281 8 289 0 l 467 0 b 489 22 481 0 489 8 l 489 435 l 610 435 b 631 456 622 435 631 442 l 631 596 b 610 617 631 610 622 617 l 489 617 l 489 786 l 688 786 b 710 808 701 786 710 794 l 710 950 b 688 972 710 964 701 972 z "},"Ť":{"ha":768,"x_min":0,"x_max":0,"o":"m 261 1060 b 300 1039 272 1046 285 1039 l 471 1039 b 510 1060 486 1039 500 1049 l 651 1222 b 639 1250 664 1235 653 1250 l 488 1250 b 442 1221 465 1250 454 1238 l 393 1163 l 379 1163 l 331 1221 b 283 1250 317 1238 306 1250 l 132 1250 b 119 1222 118 1250 108 1235 z m 688 972 l 81 972 b 60 950 67 972 60 964 l 60 808 b 81 786 60 794 67 786 l 281 786 l 281 22 b 303 0 281 8 289 0 l 467 0 b 489 22 481 0 489 8 l 489 786 l 688 786 b 710 808 701 786 710 794 l 710 950 b 688 972 710 964 701 972 z "},"Ţ":{"ha":768,"x_min":0,"x_max":0,"o":"m 688 972 l 81 972 b 60 950 67 972 60 964 l 60 808 b 81 786 60 794 67 786 l 281 786 l 281 22 b 303 0 281 8 289 0 l 357 0 b 293 -82 313 -42 293 -54 b 349 -132 293 -117 318 -129 b 492 -162 474 -143 492 -146 b 458 -176 492 -174 475 -176 l 432 -176 b 404 -169 421 -176 410 -169 b 388 -154 401 -160 397 -154 l 265 -154 b 250 -174 253 -154 250 -161 b 374 -289 250 -242 282 -289 l 503 -289 b 644 -160 594 -289 644 -240 b 526 -32 644 -75 626 -42 b 532 0 499 -31 464 -25 l 467 0 b 489 22 481 0 489 8 l 489 786 l 688 786 b 710 808 701 786 710 794 l 710 950 b 688 972 710 964 701 972 z "},"Ț":{"ha":768,"x_min":0,"x_max":0,"o":"m 688 972 l 81 972 b 60 950 67 972 60 964 l 60 808 b 81 786 60 794 67 786 l 281 786 l 281 22 b 303 0 281 8 289 0 l 467 0 b 489 22 481 0 489 8 l 489 786 l 688 786 b 710 808 701 786 710 794 l 710 950 b 688 972 710 964 701 972 z m 450 -83 l 317 -83 b 294 -106 303 -83 294 -92 l 294 -360 l 226 -360 b 204 -382 213 -360 204 -368 l 204 -507 b 226 -529 204 -521 213 -529 l 415 -529 b 472 -474 451 -529 472 -510 l 472 -106 b 450 -83 472 -92 464 -83 z "},"U":{"ha":910,"x_min":0,"x_max":0,"o":"m 371 -7 l 540 -7 b 824 281 744 -7 824 108 l 824 950 b 801 972 824 964 815 972 l 638 972 b 615 950 624 972 615 964 l 615 286 b 522 179 615 200 578 179 l 389 179 b 296 286 333 179 296 200 l 296 950 b 274 972 296 964 288 972 l 110 972 b 88 950 96 972 88 964 l 88 281 b 371 -7 88 108 167 -7 z "},"Ú":{"ha":910,"x_min":0,"x_max":0,"o":"m 444 1225 l 383 1065 b 397 1040 376 1049 382 1040 l 532 1040 b 568 1065 546 1040 560 1053 l 690 1225 b 676 1250 703 1240 692 1250 l 474 1250 b 444 1225 460 1250 453 1242 z m 371 -7 l 540 -7 b 824 281 744 -7 824 108 l 824 950 b 801 972 824 964 815 972 l 638 972 b 615 950 624 972 615 964 l 615 286 b 522 179 615 200 578 179 l 389 179 b 296 286 333 179 296 200 l 296 950 b 274 972 296 964 288 972 l 110 972 b 88 950 96 972 88 964 l 88 281 b 371 -7 88 108 167 -7 z "},"Ŭ":{"ha":910,"x_min":0,"x_max":0,"o":"m 408 1018 l 504 1018 b 706 1226 643 1018 706 1086 b 683 1250 706 1242 697 1250 l 563 1250 b 540 1226 549 1250 543 1242 b 472 1156 535 1192 528 1156 l 439 1156 b 371 1226 383 1156 376 1192 b 349 1250 369 1242 363 1250 l 228 1250 b 206 1226 214 1250 206 1242 b 408 1018 206 1086 268 1018 z m 371 -7 l 540 -7 b 824 281 744 -7 824 108 l 824 950 b 801 972 824 964 815 972 l 638 972 b 615 950 624 972 615 964 l 615 286 b 522 179 615 200 578 179 l 389 179 b 296 286 333 179 296 200 l 296 950 b 274 972 296 964 288 972 l 110 972 b 88 950 96 972 88 964 l 88 281 b 371 -7 88 108 167 -7 z "},"Û":{"ha":910,"x_min":0,"x_max":0,"o":"m 375 1250 b 336 1231 360 1250 347 1244 l 194 1068 b 207 1039 183 1054 193 1039 l 358 1039 b 406 1068 381 1039 392 1053 l 454 1126 l 468 1126 l 517 1068 b 563 1039 529 1053 540 1039 l 714 1039 b 726 1068 728 1039 739 1054 l 585 1231 b 546 1250 575 1242 561 1250 z m 371 -7 l 540 -7 b 824 281 744 -7 824 108 l 824 950 b 801 972 824 964 815 972 l 638 972 b 615 950 624 972 615 964 l 615 286 b 522 179 615 200 578 179 l 389 179 b 296 286 333 179 296 200 l 296 950 b 274 972 296 964 288 972 l 110 972 b 88 950 96 972 88 964 l 88 281 b 371 -7 88 108 167 -7 z "},"Ü":{"ha":910,"x_min":0,"x_max":0,"o":"m 169 1043 l 332 1043 b 354 1065 346 1043 354 1051 l 354 1228 b 332 1250 354 1242 346 1250 l 169 1250 b 147 1228 156 1250 147 1242 l 147 1065 b 169 1043 147 1051 156 1043 z m 581 1043 l 743 1043 b 765 1065 757 1043 765 1051 l 765 1228 b 743 1250 765 1242 757 1250 l 581 1250 b 558 1228 567 1250 558 1242 l 558 1065 b 581 1043 558 1051 567 1043 z m 371 -7 l 540 -7 b 824 281 744 -7 824 108 l 824 950 b 801 972 824 964 815 972 l 638 972 b 615 950 624 972 615 964 l 615 286 b 522 179 615 200 578 179 l 389 179 b 296 286 333 179 296 200 l 296 950 b 274 972 296 964 288 972 l 110 972 b 88 950 96 972 88 964 l 88 281 b 371 -7 88 108 167 -7 z "},"Ù":{"ha":910,"x_min":0,"x_max":0,"o":"m 478 1225 b 449 1250 469 1242 463 1250 l 246 1250 b 232 1225 231 1250 219 1240 l 354 1065 b 390 1040 363 1053 376 1040 l 525 1040 b 539 1065 540 1040 546 1049 z m 371 -7 l 540 -7 b 824 281 744 -7 824 108 l 824 950 b 801 972 824 964 815 972 l 638 972 b 615 950 624 972 615 964 l 615 286 b 522 179 615 200 578 179 l 389 179 b 296 286 333 179 296 200 l 296 950 b 274 972 296 964 288 972 l 110 972 b 88 950 96 972 88 964 l 88 281 b 371 -7 88 108 167 -7 z "},"Ű":{"ha":910,"x_min":0,"x_max":0,"o":"m 285 1225 l 224 1065 b 238 1040 217 1049 222 1040 l 372 1040 b 408 1065 386 1040 400 1053 l 531 1225 b 517 1250 543 1240 532 1250 l 314 1250 b 285 1225 300 1250 293 1242 z m 585 1225 l 524 1065 b 538 1040 517 1049 522 1040 l 672 1040 b 708 1065 686 1040 700 1053 l 831 1225 b 817 1250 843 1240 832 1250 l 614 1250 b 585 1225 600 1250 593 1242 z m 371 -7 l 540 -7 b 824 281 744 -7 824 108 l 824 950 b 801 972 824 964 815 972 l 638 972 b 615 950 624 972 615 964 l 615 286 b 522 179 615 200 578 179 l 389 179 b 296 286 333 179 296 200 l 296 950 b 274 972 296 964 288 972 l 110 972 b 88 950 96 972 88 964 l 88 281 b 371 -7 88 108 167 -7 z "},"Ū":{"ha":910,"x_min":0,"x_max":0,"o":"m 231 1069 l 681 1069 b 701 1090 693 1069 701 1076 l 701 1229 b 681 1250 701 1243 693 1250 l 231 1250 b 210 1229 217 1250 210 1243 l 210 1090 b 231 1069 210 1076 217 1069 z m 371 -7 l 540 -7 b 824 281 744 -7 824 108 l 824 950 b 801 972 824 964 815 972 l 638 972 b 615 950 624 972 615 964 l 615 286 b 522 179 615 200 578 179 l 389 179 b 296 286 333 179 296 200 l 296 950 b 274 972 296 964 288 972 l 110 972 b 88 950 96 972 88 964 l 88 281 b 371 -7 88 108 167 -7 z "},"Ų":{"ha":910,"x_min":0,"x_max":0,"o":"m 801 972 l 638 972 b 615 950 624 972 615 964 l 615 286 b 522 179 615 200 578 179 l 389 179 b 296 286 333 179 296 200 l 296 950 b 274 972 296 964 288 972 l 110 972 b 88 950 96 972 88 964 l 88 281 b 371 -7 88 108 167 -7 l 397 -7 b 350 -31 394 -31 376 -28 l 301 -35 b 206 -158 226 -43 206 -64 b 354 -289 206 -271 239 -289 l 565 -289 b 579 -275 575 -289 579 -283 l 579 -176 b 565 -158 579 -167 574 -158 l 392 -158 b 388 -156 390 -158 388 -156 b 399 -146 388 -151 389 -147 l 493 -135 b 603 -53 564 -125 603 -124 l 603 -3 b 824 281 761 19 824 128 l 824 950 b 801 972 824 964 815 972 z "},"Ů":{"ha":910,"x_min":0,"x_max":0,"o":"m 464 1272 l 446 1272 b 329 1156 378 1272 329 1221 l 329 1140 b 446 1025 329 1075 378 1025 l 464 1025 b 581 1140 532 1025 581 1075 l 581 1156 b 464 1272 581 1221 532 1272 z m 479 1154 l 479 1146 b 461 1128 479 1138 471 1128 l 449 1128 b 433 1146 442 1128 433 1138 l 433 1154 b 449 1171 433 1161 442 1171 l 461 1171 b 479 1154 471 1171 479 1161 z m 371 -7 l 540 -7 b 824 281 744 -7 824 108 l 824 950 b 801 972 824 964 815 972 l 638 972 b 615 950 624 972 615 964 l 615 286 b 522 179 615 200 578 179 l 389 179 b 296 286 333 179 296 200 l 296 950 b 274 972 296 964 288 972 l 110 972 b 88 950 96 972 88 964 l 88 281 b 371 -7 88 108 167 -7 z "},"Ũ":{"ha":910,"x_min":0,"x_max":0,"o":"m 546 1029 b 693 1079 594 1029 639 1038 b 707 1114 704 1089 713 1097 l 663 1226 b 636 1233 658 1233 649 1240 b 549 1206 600 1215 586 1206 b 369 1257 483 1206 468 1257 b 222 1207 321 1257 276 1249 b 208 1172 211 1197 203 1189 l 253 1060 b 282 1054 257 1053 267 1046 b 367 1081 314 1074 329 1081 b 546 1029 432 1081 447 1029 z m 371 -7 l 540 -7 b 824 281 744 -7 824 108 l 824 950 b 801 972 824 964 815 972 l 638 972 b 615 950 624 972 615 964 l 615 286 b 522 179 615 200 578 179 l 389 179 b 296 286 333 179 296 200 l 296 950 b 274 972 296 964 288 972 l 110 972 b 88 950 96 972 88 964 l 88 281 b 371 -7 88 108 167 -7 z "},"V":{"ha":883,"x_min":0,"x_max":0,"o":"m 307 0 l 576 0 b 604 22 589 0 600 8 l 838 944 b 818 972 842 960 832 972 l 654 972 b 626 944 640 972 631 960 l 453 238 l 431 238 l 258 944 b 231 972 254 960 244 972 l 67 972 b 47 944 51 972 43 960 l 281 22 b 307 0 285 8 294 0 z "},"W":{"ha":1329,"x_min":0,"x_max":0,"o":"m 1265 972 l 1101 972 b 1074 944 1088 972 1076 960 l 942 239 l 921 239 l 779 944 b 750 972 776 958 764 972 l 579 972 b 551 944 565 972 553 960 l 408 239 l 388 239 l 256 944 b 228 972 254 960 242 972 l 64 972 b 44 944 50 972 43 960 l 228 22 b 254 0 231 8 242 0 l 525 0 b 553 22 538 0 550 8 l 656 611 l 674 611 l 778 22 b 804 0 779 8 792 0 l 1075 0 b 1103 22 1088 0 1100 8 l 1285 944 b 1265 972 1288 960 1281 972 z "},"Ẃ":{"ha":1265,"x_min":0,"x_max":0,"o":"m 622 1261 l 561 1101 b 575 1076 553 1085 558 1076 l 710 1076 b 744 1101 724 1076 736 1089 l 867 1261 b 853 1286 879 1276 868 1286 l 651 1286 b 622 1261 638 1286 629 1278 z m 1265 972 l 1101 972 b 1074 944 1088 972 1076 960 l 942 239 l 921 239 l 779 944 b 750 972 776 958 764 972 l 579 972 b 551 944 565 972 553 960 l 408 239 l 388 239 l 256 944 b 228 972 254 960 242 972 l 64 972 b 44 944 50 972 43 960 l 228 22 b 254 0 231 8 242 0 l 525 0 b 553 22 538 0 550 8 l 656 611 l 674 611 l 778 22 b 804 0 779 8 792 0 l 1075 0 b 1103 22 1088 0 1100 8 l 1285 944 b 1265 972 1288 960 1281 972 z "},"Ŵ":{"ha":1265,"x_min":0,"x_max":0,"o":"m 549 1286 b 510 1267 533 1286 521 1281 l 368 1104 b 381 1075 357 1090 367 1075 l 532 1075 b 579 1104 554 1075 565 1089 l 628 1163 l 642 1163 l 690 1104 b 736 1075 703 1089 714 1075 l 888 1075 b 900 1104 901 1075 913 1090 l 758 1267 b 719 1286 749 1278 735 1286 z m 1265 972 l 1101 972 b 1074 944 1088 972 1076 960 l 942 239 l 921 239 l 779 944 b 750 972 776 958 764 972 l 579 972 b 551 944 565 972 553 960 l 408 239 l 388 239 l 256 944 b 228 972 254 960 242 972 l 64 972 b 44 944 50 972 43 960 l 228 22 b 254 0 231 8 242 0 l 525 0 b 553 22 538 0 550 8 l 656 611 l 674 611 l 778 22 b 804 0 779 8 792 0 l 1075 0 b 1103 22 1088 0 1100 8 l 1285 944 b 1265 972 1288 960 1281 972 z "},"Ẅ":{"ha":1265,"x_min":0,"x_max":0,"o":"m 408 1079 l 571 1079 b 593 1101 585 1079 593 1088 l 593 1264 b 571 1286 593 1278 585 1286 l 408 1286 b 386 1264 394 1286 386 1278 l 386 1101 b 408 1079 386 1088 394 1079 z m 819 1079 l 982 1079 b 1004 1101 996 1079 1004 1088 l 1004 1264 b 982 1286 1004 1278 996 1286 l 819 1286 b 797 1264 806 1286 797 1278 l 797 1101 b 819 1079 797 1088 806 1079 z m 1265 972 l 1101 972 b 1074 944 1088 972 1076 960 l 942 239 l 921 239 l 779 944 b 750 972 776 958 764 972 l 579 972 b 551 944 565 972 553 960 l 408 239 l 388 239 l 256 944 b 228 972 254 960 242 972 l 64 972 b 44 944 50 972 43 960 l 228 22 b 254 0 231 8 242 0 l 525 0 b 553 22 538 0 550 8 l 656 611 l 674 611 l 778 22 b 804 0 779 8 792 0 l 1075 0 b 1103 22 1088 0 1100 8 l 1285 944 b 1265 972 1288 960 1281 972 z "},"Ẁ":{"ha":1265,"x_min":0,"x_max":0,"o":"m 654 1261 b 625 1286 646 1278 639 1286 l 422 1286 b 408 1261 407 1286 396 1276 l 531 1101 b 567 1076 539 1089 553 1076 l 701 1076 b 715 1101 717 1076 722 1085 z m 1265 972 l 1101 972 b 1074 944 1088 972 1076 960 l 942 239 l 921 239 l 779 944 b 750 972 776 958 764 972 l 579 972 b 551 944 565 972 553 960 l 408 239 l 388 239 l 256 944 b 228 972 254 960 242 972 l 64 972 b 44 944 50 972 43 960 l 228 22 b 254 0 231 8 242 0 l 525 0 b 553 22 538 0 550 8 l 656 611 l 674 611 l 778 22 b 804 0 779 8 792 0 l 1075 0 b 1103 22 1088 0 1100 8 l 1285 944 b 1265 972 1288 960 1281 972 z "},"X":{"ha":842,"x_min":0,"x_max":0,"o":"m 82 0 l 250 0 b 278 19 265 0 269 6 l 415 283 l 429 283 l 567 19 b 594 0 572 6 581 0 l 763 0 b 779 28 779 0 788 10 l 531 486 l 778 944 b 761 972 786 963 778 972 l 592 972 b 563 953 578 972 569 967 l 429 689 l 415 689 l 282 953 b 253 972 275 967 267 972 l 86 972 b 67 944 69 972 58 963 l 314 486 l 65 28 b 82 0 57 10 65 0 z "},"Y":{"ha":854,"x_min":0,"x_max":0,"o":"m 789 972 l 624 972 b 592 951 607 972 599 967 l 433 588 l 421 588 l 263 951 b 232 972 256 967 247 972 l 67 972 b 49 946 50 972 39 964 l 324 351 l 324 22 b 346 0 324 8 332 0 l 510 0 b 532 22 524 0 532 8 l 532 351 l 807 946 b 789 972 815 964 806 972 z "},"Ý":{"ha":854,"x_min":0,"x_max":0,"o":"m 369 1040 l 504 1040 b 540 1065 518 1040 532 1053 l 663 1225 b 649 1250 675 1240 664 1250 l 446 1250 b 417 1225 432 1250 425 1242 l 356 1065 b 369 1040 349 1049 354 1040 z m 789 972 l 624 972 b 592 951 607 972 599 967 l 433 588 l 421 588 l 263 951 b 232 972 256 967 247 972 l 67 972 b 49 946 50 972 39 964 l 324 351 l 324 22 b 346 0 324 8 332 0 l 510 0 b 532 22 524 0 532 8 l 532 351 l 807 946 b 789 972 815 964 806 972 z "},"Ŷ":{"ha":854,"x_min":0,"x_max":0,"o":"m 178 1039 l 329 1039 b 376 1068 351 1039 363 1053 l 425 1126 l 439 1126 l 488 1068 b 533 1039 500 1053 511 1039 l 685 1039 b 697 1068 699 1039 710 1054 l 556 1231 b 517 1250 546 1242 532 1250 l 346 1250 b 307 1231 331 1250 318 1244 l 165 1068 b 178 1039 154 1054 164 1039 z m 789 972 l 624 972 b 592 951 607 972 599 967 l 433 588 l 421 588 l 263 951 b 232 972 256 967 247 972 l 67 972 b 49 946 50 972 39 964 l 324 351 l 324 22 b 346 0 324 8 332 0 l 510 0 b 532 22 524 0 532 8 l 532 351 l 807 946 b 789 972 815 964 806 972 z "},"Ÿ":{"ha":854,"x_min":0,"x_max":0,"o":"m 140 1043 l 303 1043 b 325 1065 317 1043 325 1051 l 325 1228 b 303 1250 325 1242 317 1250 l 140 1250 b 118 1228 126 1250 118 1242 l 118 1065 b 140 1043 118 1051 126 1043 z m 551 1043 l 714 1043 b 736 1065 728 1043 736 1051 l 736 1228 b 714 1250 736 1242 728 1250 l 551 1250 b 529 1228 538 1250 529 1242 l 529 1065 b 551 1043 529 1051 538 1043 z m 789 972 l 624 972 b 592 951 607 972 599 967 l 433 588 l 421 588 l 263 951 b 232 972 256 967 247 972 l 67 972 b 49 946 50 972 39 964 l 324 351 l 324 22 b 346 0 324 8 332 0 l 510 0 b 532 22 524 0 532 8 l 532 351 l 807 946 b 789 972 815 964 806 972 z "},"Ỳ":{"ha":854,"x_min":0,"x_max":0,"o":"m 325 1065 b 361 1040 333 1053 347 1040 l 496 1040 b 510 1065 511 1040 517 1049 l 449 1225 b 419 1250 440 1242 433 1250 l 217 1250 b 203 1225 201 1250 190 1240 z m 789 972 l 624 972 b 592 951 607 972 599 967 l 433 588 l 421 588 l 263 951 b 232 972 256 967 247 972 l 67 972 b 49 946 50 972 39 964 l 324 351 l 324 22 b 346 0 324 8 332 0 l 510 0 b 532 22 524 0 532 8 l 532 351 l 807 946 b 789 972 815 964 806 972 z "},"Z":{"ha":743,"x_min":0,"x_max":0,"o":"m 81 0 l 664 0 b 685 22 678 0 685 8 l 685 164 b 664 186 685 178 678 186 l 279 186 l 279 200 l 665 749 b 685 811 683 774 685 793 l 685 950 b 663 972 685 964 676 972 l 86 972 b 64 950 72 972 64 964 l 64 808 b 86 786 64 794 72 786 l 463 786 l 463 775 l 79 225 b 60 163 63 200 60 179 l 60 22 b 81 0 60 8 67 0 z "},"Ź":{"ha":743,"x_min":0,"x_max":0,"o":"m 363 1225 l 301 1065 b 315 1040 294 1049 300 1040 l 450 1040 b 486 1065 464 1040 478 1053 l 608 1225 b 594 1250 621 1240 610 1250 l 392 1250 b 363 1225 378 1250 371 1242 z m 81 0 l 664 0 b 685 22 678 0 685 8 l 685 164 b 664 186 685 178 678 186 l 279 186 l 279 200 l 665 749 b 685 811 683 774 685 793 l 685 950 b 663 972 685 964 676 972 l 86 972 b 64 950 72 972 64 964 l 64 808 b 86 786 64 794 72 786 l 463 786 l 463 775 l 79 225 b 60 163 63 200 60 179 l 60 22 b 81 0 60 8 67 0 z "},"Ž":{"ha":743,"x_min":0,"x_max":0,"o":"m 288 1039 l 458 1039 b 497 1060 474 1039 488 1049 l 639 1222 b 626 1250 651 1235 640 1250 l 475 1250 b 429 1221 453 1250 442 1238 l 381 1163 l 367 1163 l 318 1221 b 271 1250 304 1238 293 1250 l 119 1250 b 107 1222 106 1250 96 1235 l 249 1060 b 288 1039 260 1046 272 1039 z m 81 0 l 664 0 b 685 22 678 0 685 8 l 685 164 b 664 186 685 178 678 186 l 279 186 l 279 200 l 665 749 b 685 811 683 774 685 793 l 685 950 b 663 972 685 964 676 972 l 86 972 b 64 950 72 972 64 964 l 64 808 b 86 786 64 794 72 786 l 463 786 l 463 775 l 79 225 b 60 163 63 200 60 179 l 60 22 b 81 0 60 8 67 0 z "},"Ż":{"ha":743,"x_min":0,"x_max":0,"o":"m 292 1043 l 454 1043 b 476 1065 468 1043 476 1051 l 476 1228 b 454 1250 476 1242 468 1250 l 292 1250 b 269 1228 278 1250 269 1242 l 269 1065 b 292 1043 269 1051 278 1043 z m 81 0 l 664 0 b 685 22 678 0 685 8 l 685 164 b 664 186 685 178 678 186 l 279 186 l 279 200 l 665 749 b 685 811 683 774 685 793 l 685 950 b 663 972 685 964 676 972 l 86 972 b 64 950 72 972 64 964 l 64 808 b 86 786 64 794 72 786 l 463 786 l 463 775 l 79 225 b 60 163 63 200 60 179 l 60 22 b 81 0 60 8 67 0 z "},"a":{"ha":740,"x_min":0,"x_max":0,"o":"m 406 700 l 367 700 b 147 667 271 700 193 683 b 131 638 135 661 128 650 l 151 526 b 181 508 156 510 164 504 b 322 524 213 517 279 524 b 457 453 425 524 457 501 l 457 422 l 278 422 b 60 246 125 422 60 368 l 60 197 b 256 -7 60 71 125 -7 l 268 -7 b 440 82 354 -7 399 33 l 457 82 l 457 24 b 479 0 457 8 465 0 l 638 0 b 660 24 651 0 660 8 l 660 463 b 406 700 660 607 588 700 z m 376 167 l 308 167 b 258 206 281 167 258 174 l 258 233 b 307 281 258 275 279 281 l 457 281 l 457 242 b 376 167 457 206 442 167 z "},"á":{"ha":740,"x_min":0,"x_max":0,"o":"m 325 763 l 460 763 b 496 788 474 763 488 775 l 618 947 b 604 972 631 963 619 972 l 401 972 b 372 947 388 972 381 964 l 311 788 b 325 763 304 771 310 763 z m 406 700 l 367 700 b 147 667 271 700 193 683 b 131 638 135 661 128 650 l 151 526 b 181 508 156 510 164 504 b 322 524 213 517 279 524 b 457 453 425 524 457 501 l 457 422 l 278 422 b 60 246 125 422 60 368 l 60 197 b 256 -7 60 71 125 -7 l 268 -7 b 440 82 354 -7 399 33 l 457 82 l 457 24 b 479 0 457 8 465 0 l 638 0 b 660 24 651 0 660 8 l 660 463 b 406 700 660 607 588 700 z m 376 167 l 308 167 b 258 206 281 167 258 174 l 258 233 b 307 281 258 275 279 281 l 457 281 l 457 242 b 376 167 457 206 442 167 z "},"ă":{"ha":740,"x_min":0,"x_max":0,"o":"m 336 740 l 432 740 b 633 949 571 740 633 808 b 611 972 633 964 625 972 l 490 972 b 468 949 476 972 471 964 b 400 878 463 914 456 878 l 367 878 b 299 949 311 878 304 914 b 276 972 297 964 290 972 l 156 972 b 133 949 142 972 133 964 b 336 740 133 808 196 740 z m 406 700 l 367 700 b 147 667 271 700 193 683 b 131 638 135 661 128 650 l 151 526 b 181 508 156 510 164 504 b 322 524 213 517 279 524 b 457 453 425 524 457 501 l 457 422 l 278 422 b 60 246 125 422 60 368 l 60 197 b 256 -7 60 71 125 -7 l 268 -7 b 440 82 354 -7 399 33 l 457 82 l 457 24 b 479 0 457 8 465 0 l 638 0 b 660 24 651 0 660 8 l 660 463 b 406 700 660 607 588 700 z m 376 167 l 308 167 b 258 206 281 167 258 174 l 258 233 b 307 281 258 275 279 281 l 457 281 l 457 242 b 376 167 457 206 442 167 z "},"ǎ":{"ha":740,"x_min":0,"x_max":0,"o":"m 260 782 b 299 761 271 768 283 761 l 469 761 b 508 782 485 761 499 771 l 650 944 b 638 972 663 957 651 972 l 486 972 b 440 943 464 972 453 960 l 392 885 l 378 885 l 329 943 b 282 972 315 960 304 972 l 131 972 b 118 944 117 972 107 957 z m 406 700 l 367 700 b 147 667 271 700 193 683 b 131 638 135 661 128 650 l 151 526 b 181 508 156 510 164 504 b 322 524 213 517 279 524 b 457 453 425 524 457 501 l 457 422 l 278 422 b 60 246 125 422 60 368 l 60 197 b 256 -7 60 71 125 -7 l 268 -7 b 440 82 354 -7 399 33 l 457 82 l 457 24 b 479 0 457 8 465 0 l 638 0 b 660 24 651 0 660 8 l 660 463 b 406 700 660 607 588 700 z m 376 167 l 308 167 b 258 206 281 167 258 174 l 258 233 b 307 281 258 275 279 281 l 457 281 l 457 242 b 376 167 457 206 442 167 z "},"â":{"ha":740,"x_min":0,"x_max":0,"o":"m 135 761 l 286 761 b 333 790 308 761 319 775 l 382 849 l 396 849 l 444 790 b 490 761 457 775 468 761 l 642 761 b 654 790 656 761 667 776 l 513 953 b 474 972 503 964 489 972 l 303 972 b 264 953 288 972 275 967 l 122 790 b 135 761 111 776 121 761 z m 406 700 l 367 700 b 147 667 271 700 193 683 b 131 638 135 661 128 650 l 151 526 b 181 508 156 510 164 504 b 322 524 213 517 279 524 b 457 453 425 524 457 501 l 457 422 l 278 422 b 60 246 125 422 60 368 l 60 197 b 256 -7 60 71 125 -7 l 268 -7 b 440 82 354 -7 399 33 l 457 82 l 457 24 b 479 0 457 8 465 0 l 638 0 b 660 24 651 0 660 8 l 660 463 b 406 700 660 607 588 700 z m 376 167 l 308 167 b 258 206 281 167 258 174 l 258 233 b 307 281 258 275 279 281 l 457 281 l 457 242 b 376 167 457 206 442 167 z "},"ä":{"ha":740,"x_min":0,"x_max":0,"o":"m 97 765 l 260 765 b 282 788 274 765 282 774 l 282 950 b 260 972 282 964 274 972 l 97 972 b 75 950 83 972 75 964 l 75 788 b 97 765 75 774 83 765 z m 671 972 l 508 972 b 486 950 494 972 486 964 l 486 788 b 508 765 486 774 494 765 l 671 765 b 693 788 685 765 693 774 l 693 950 b 671 972 693 964 685 972 z m 406 700 l 367 700 b 147 667 271 700 193 683 b 131 638 135 661 128 650 l 151 526 b 181 508 156 510 164 504 b 322 524 213 517 279 524 b 457 453 425 524 457 501 l 457 422 l 278 422 b 60 246 125 422 60 368 l 60 197 b 256 -7 60 71 125 -7 l 268 -7 b 440 82 354 -7 399 33 l 457 82 l 457 24 b 479 0 457 8 465 0 l 638 0 b 660 24 651 0 660 8 l 660 463 b 406 700 660 607 588 700 z m 376 167 l 308 167 b 258 206 281 167 258 174 l 258 233 b 307 281 258 275 279 281 l 457 281 l 457 242 b 376 167 457 206 442 167 z "},"à":{"ha":740,"x_min":0,"x_max":0,"o":"m 282 788 b 318 763 290 775 304 763 l 453 763 b 467 788 468 763 474 771 l 406 947 b 376 972 397 964 390 972 l 174 972 b 160 947 158 972 147 963 z m 406 700 l 367 700 b 147 667 271 700 193 683 b 131 638 135 661 128 650 l 151 526 b 181 508 156 510 164 504 b 322 524 213 517 279 524 b 457 453 425 524 457 501 l 457 422 l 278 422 b 60 246 125 422 60 368 l 60 197 b 256 -7 60 71 125 -7 l 268 -7 b 440 82 354 -7 399 33 l 457 82 l 457 24 b 479 0 457 8 465 0 l 638 0 b 660 24 651 0 660 8 l 660 463 b 406 700 660 607 588 700 z m 376 167 l 308 167 b 258 206 281 167 258 174 l 258 233 b 307 281 258 275 279 281 l 457 281 l 457 242 b 376 167 457 206 442 167 z "},"ā":{"ha":740,"x_min":0,"x_max":0,"o":"m 158 792 l 608 792 b 629 813 621 792 629 799 l 629 951 b 608 972 629 965 621 972 l 158 972 b 138 951 144 972 138 965 l 138 813 b 158 792 138 799 144 792 z m 406 700 l 367 700 b 147 667 271 700 193 683 b 131 638 135 661 128 650 l 151 526 b 181 508 156 510 164 504 b 322 524 213 517 279 524 b 457 453 425 524 457 501 l 457 422 l 278 422 b 60 246 125 422 60 368 l 60 197 b 256 -7 60 71 125 -7 l 268 -7 b 440 82 354 -7 399 33 l 457 82 l 457 24 b 479 0 457 8 465 0 l 638 0 b 660 24 651 0 660 8 l 660 463 b 406 700 660 607 588 700 z m 376 167 l 308 167 b 258 206 281 167 258 174 l 258 233 b 307 281 258 275 279 281 l 457 281 l 457 242 b 376 167 457 206 442 167 z "},"ą":{"ha":740,"x_min":0,"x_max":0,"o":"m 660 28 l 660 463 b 406 700 660 607 588 700 l 367 700 b 147 667 271 700 193 683 b 131 638 135 661 128 650 l 151 526 b 181 508 156 510 164 504 b 322 524 213 517 279 524 b 457 453 425 524 457 501 l 457 422 l 278 422 b 60 246 125 422 60 368 l 60 197 b 256 -7 60 71 125 -7 l 268 -7 b 440 82 354 -7 399 33 l 457 82 l 457 4 b 408 -31 457 -32 438 -28 l 360 -35 b 264 -158 285 -43 264 -64 b 413 -289 264 -271 297 -289 l 624 -289 b 638 -275 633 -289 638 -283 l 638 -176 b 624 -158 638 -167 632 -158 l 450 -158 b 446 -156 449 -158 446 -156 b 457 -146 446 -151 447 -147 l 551 -135 b 661 -53 622 -125 661 -124 l 661 28 z m 376 167 l 308 167 b 258 206 281 167 258 174 l 258 233 b 307 281 258 275 279 281 l 457 281 l 457 242 b 376 167 457 206 442 167 z "},"å":{"ha":740,"x_min":0,"x_max":0,"o":"m 374 747 l 392 747 b 508 863 460 747 508 797 l 508 878 b 392 994 508 943 460 994 l 374 994 b 257 878 306 994 257 943 l 257 863 b 374 747 257 797 306 747 z m 361 876 b 376 893 361 883 369 893 l 389 893 b 407 876 399 893 407 883 l 407 868 b 389 850 407 860 399 850 l 376 850 b 361 868 369 850 361 860 z m 406 700 l 367 700 b 147 667 271 700 193 683 b 131 638 135 661 128 650 l 151 526 b 181 508 156 510 164 504 b 322 524 213 517 279 524 b 457 453 425 524 457 501 l 457 422 l 278 422 b 60 246 125 422 60 368 l 60 197 b 256 -7 60 71 125 -7 l 268 -7 b 440 82 354 -7 399 33 l 457 82 l 457 24 b 479 0 457 8 465 0 l 638 0 b 660 24 651 0 660 8 l 660 463 b 406 700 660 607 588 700 z m 376 167 l 308 167 b 258 206 281 167 258 174 l 258 233 b 307 281 258 275 279 281 l 457 281 l 457 242 b 376 167 457 206 442 167 z "},"ã":{"ha":740,"x_min":0,"x_max":0,"o":"m 181 782 b 210 776 185 775 194 768 b 294 803 242 796 257 803 b 474 751 360 803 375 751 b 621 801 522 751 567 760 b 635 836 632 811 640 819 l 590 949 b 564 956 586 956 576 963 b 476 928 528 938 514 928 b 297 979 411 928 396 979 b 150 929 249 979 204 971 b 136 894 139 919 131 911 z m 406 700 l 367 700 b 147 667 271 700 193 683 b 131 638 135 661 128 650 l 151 526 b 181 508 156 510 164 504 b 322 524 213 517 279 524 b 457 453 425 524 457 501 l 457 422 l 278 422 b 60 246 125 422 60 368 l 60 197 b 256 -7 60 71 125 -7 l 268 -7 b 440 82 354 -7 399 33 l 457 82 l 457 24 b 479 0 457 8 465 0 l 638 0 b 660 24 651 0 660 8 l 660 463 b 406 700 660 607 588 700 z m 376 167 l 308 167 b 258 206 281 167 258 174 l 258 233 b 307 281 258 275 279 281 l 457 281 l 457 242 b 376 167 457 206 442 167 z "},"æ":{"ha":1113,"x_min":0,"x_max":0,"o":"m 789 700 l 714 700 b 560 667 649 700 599 689 b 406 700 521 689 469 700 l 367 700 b 147 667 271 700 193 683 b 131 638 135 661 128 650 l 151 526 b 181 508 156 510 164 504 b 322 524 213 517 279 524 b 457 436 425 524 457 492 l 457 411 l 278 411 b 60 239 125 411 60 361 l 60 194 b 256 -7 60 74 125 -7 l 268 -7 b 497 90 365 -7 451 15 b 753 -7 539 29 619 -7 l 775 -7 b 1022 82 869 -7 968 29 b 1021 108 1028 89 1028 97 l 972 182 b 943 193 965 194 953 197 b 775 165 904 178 868 165 l 760 165 b 660 239 693 165 660 197 l 660 267 l 1007 267 b 1047 307 1035 267 1047 281 l 1047 454 b 789 700 1047 603 974 700 z m 843 414 l 660 414 l 660 453 b 725 519 660 501 689 519 l 779 519 b 843 453 814 519 843 500 z m 457 242 b 376 167 457 206 442 167 l 308 167 b 258 200 281 167 258 175 l 258 226 b 307 267 258 267 279 267 l 457 267 z "},"b":{"ha":753,"x_min":0,"x_max":0,"o":"m 458 700 l 449 700 b 301 636 372 700 333 672 l 283 636 l 283 950 b 261 972 283 965 275 972 l 103 972 b 81 950 89 972 81 965 l 81 24 b 103 0 81 8 89 0 l 261 0 b 283 24 275 0 283 8 l 283 57 l 301 57 b 449 -7 333 21 372 -7 l 458 -7 b 688 228 617 -7 688 79 l 688 465 b 458 700 688 615 617 700 z m 483 246 b 419 175 483 200 453 175 l 350 175 b 283 247 314 175 283 199 l 283 446 b 350 519 283 496 314 519 l 419 519 b 483 447 453 519 483 494 z "},"c":{"ha":715,"x_min":0,"x_max":0,"o":"m 358 -7 l 371 -7 b 649 143 481 -7 596 19 b 633 174 654 156 649 167 l 525 224 b 493 214 510 231 500 225 b 375 169 469 176 440 169 l 363 169 b 269 260 299 169 269 199 l 269 453 b 335 519 269 501 299 519 l 394 519 b 463 464 433 519 463 504 l 463 451 b 485 428 463 436 471 428 l 633 428 b 656 451 647 428 656 436 l 656 463 b 406 700 656 606 574 700 l 324 700 b 67 456 138 700 67 604 l 67 238 b 358 -7 67 94 140 -7 z "},"ć":{"ha":715,"x_min":0,"x_max":0,"o":"m 351 947 l 290 788 b 304 763 283 771 289 763 l 439 763 b 475 788 453 763 467 775 l 597 947 b 583 972 610 963 599 972 l 381 972 b 351 947 367 972 360 964 z m 358 -7 l 371 -7 b 649 143 481 -7 596 19 b 633 174 654 156 649 167 l 525 224 b 493 214 510 231 500 225 b 375 169 469 176 440 169 l 363 169 b 269 260 299 169 269 199 l 269 453 b 335 519 269 501 299 519 l 394 519 b 463 464 433 519 463 504 l 463 451 b 485 428 463 436 471 428 l 633 428 b 656 451 647 428 656 436 l 656 463 b 406 700 656 606 574 700 l 324 700 b 67 456 138 700 67 604 l 67 238 b 358 -7 67 94 140 -7 z "},"č":{"ha":715,"x_min":0,"x_max":0,"o":"m 276 761 l 447 761 b 486 782 463 761 476 771 l 628 944 b 615 972 640 957 629 972 l 464 972 b 418 943 442 972 431 960 l 369 885 l 356 885 l 307 943 b 260 972 293 960 282 972 l 108 972 b 96 944 94 972 85 957 l 238 782 b 276 761 249 768 261 761 z m 358 -7 l 371 -7 b 649 143 481 -7 596 19 b 633 174 654 156 649 167 l 525 224 b 493 214 510 231 500 225 b 375 169 469 176 440 169 l 363 169 b 269 260 299 169 269 199 l 269 453 b 335 519 269 501 299 519 l 394 519 b 463 464 433 519 463 504 l 463 451 b 485 428 463 436 471 428 l 633 428 b 656 451 647 428 656 436 l 656 463 b 406 700 656 606 574 700 l 324 700 b 67 456 138 700 67 604 l 67 238 b 358 -7 67 94 140 -7 z "},"ç":{"ha":715,"x_min":0,"x_max":0,"o":"m 485 428 l 633 428 b 656 451 647 428 656 436 l 656 463 b 406 700 656 606 574 700 l 324 700 b 67 456 138 700 67 604 l 67 238 b 326 -6 67 101 133 3 b 269 -82 288 -43 269 -56 b 325 -132 269 -117 294 -129 b 468 -162 450 -143 468 -146 b 435 -176 468 -174 451 -176 l 408 -176 b 381 -169 397 -176 386 -169 b 364 -154 378 -160 374 -154 l 242 -154 b 226 -174 229 -154 226 -161 b 350 -289 226 -242 258 -289 l 479 -289 b 621 -160 571 -289 621 -240 b 503 -32 621 -75 603 -42 b 508 0 475 -31 440 -25 l 458 0 b 649 143 538 14 610 53 b 633 174 654 156 649 167 l 525 224 b 493 214 510 231 500 225 b 375 169 469 176 440 169 l 363 169 b 269 260 299 169 269 199 l 269 453 b 335 519 269 501 299 519 l 394 519 b 463 464 433 519 463 504 l 463 451 b 485 428 463 436 471 428 z "},"ĉ":{"ha":715,"x_min":0,"x_max":0,"o":"m 281 972 b 242 953 265 972 253 967 l 100 790 b 113 761 89 776 99 761 l 264 761 b 311 790 286 761 297 775 l 360 849 l 374 849 l 422 790 b 468 761 435 775 446 761 l 619 761 b 632 790 633 761 644 776 l 490 953 b 451 972 481 964 467 972 z m 358 -7 l 371 -7 b 649 143 481 -7 596 19 b 633 174 654 156 649 167 l 525 224 b 493 214 510 231 500 225 b 375 169 469 176 440 169 l 363 169 b 269 260 299 169 269 199 l 269 453 b 335 519 269 501 299 519 l 394 519 b 463 464 433 519 463 504 l 463 451 b 485 428 463 436 471 428 l 633 428 b 656 451 647 428 656 436 l 656 463 b 406 700 656 606 574 700 l 324 700 b 67 456 138 700 67 604 l 67 238 b 358 -7 67 94 140 -7 z "},"ċ":{"ha":715,"x_min":0,"x_max":0,"o":"m 281 765 l 443 765 b 465 788 457 765 465 774 l 465 950 b 443 972 465 964 457 972 l 281 972 b 258 950 267 972 258 964 l 258 788 b 281 765 258 774 267 765 z m 358 -7 l 371 -7 b 649 143 481 -7 596 19 b 633 174 654 156 649 167 l 525 224 b 493 214 510 231 500 225 b 375 169 469 176 440 169 l 363 169 b 269 260 299 169 269 199 l 269 453 b 335 519 269 501 299 519 l 394 519 b 463 464 433 519 463 504 l 463 451 b 485 428 463 436 471 428 l 633 428 b 656 451 647 428 656 436 l 656 463 b 406 700 656 606 574 700 l 324 700 b 67 456 138 700 67 604 l 67 238 b 358 -7 67 94 140 -7 z "},"d":{"ha":753,"x_min":0,"x_max":0,"o":"m 650 972 l 493 972 b 469 950 478 972 469 965 l 469 636 l 453 636 b 304 700 421 672 382 700 l 296 700 b 67 465 136 700 67 615 l 67 228 b 296 -7 67 79 136 -7 l 304 -7 b 453 57 382 -7 421 21 l 469 57 l 469 24 b 493 0 469 8 478 0 l 650 0 b 674 24 665 0 674 8 l 674 950 b 650 972 674 965 665 972 z m 404 175 l 335 175 b 269 246 301 175 269 200 l 269 447 b 335 519 269 494 301 519 l 404 519 b 469 446 440 519 469 496 l 469 247 b 404 175 469 199 440 175 z "},"ð":{"ha":761,"x_min":0,"x_max":0,"o":"m 792 925 l 674 925 l 674 950 b 650 972 674 965 665 972 l 493 972 b 469 950 478 972 469 965 l 469 858 l 278 758 l 469 758 l 469 636 l 453 636 b 304 700 421 672 382 700 l 296 700 b 67 465 136 700 67 615 l 67 228 b 296 -7 67 79 136 -7 l 304 -7 b 453 57 382 -7 421 21 l 469 57 l 469 24 b 493 0 469 8 478 0 l 650 0 b 674 24 665 0 674 8 l 674 864 z m 404 175 l 335 175 b 269 246 301 175 269 200 l 269 447 b 335 519 269 494 301 519 l 404 519 b 469 446 440 519 469 496 l 469 247 b 404 175 469 199 440 175 z "},"ď":{"ha":935,"x_min":0,"x_max":0,"o":"m 650 972 l 493 972 b 469 950 478 972 469 965 l 469 636 l 453 636 b 304 700 421 672 382 700 l 296 700 b 67 465 136 700 67 615 l 67 228 b 296 -7 67 79 136 -7 l 304 -7 b 453 57 382 -7 421 21 l 469 57 l 469 24 b 493 0 469 8 478 0 l 650 0 b 674 24 665 0 674 8 l 674 950 b 650 972 674 965 665 972 z m 975 972 l 842 972 b 819 950 828 972 819 964 l 819 696 l 751 696 b 729 674 738 696 729 688 l 729 549 b 751 526 729 535 738 526 l 940 526 b 997 583 976 526 997 547 l 997 950 b 975 972 997 964 989 972 z m 404 175 l 335 175 b 269 246 301 175 269 200 l 269 447 b 335 519 269 494 301 519 l 404 519 b 469 446 440 519 469 496 l 469 247 b 404 175 469 199 440 175 z "},"đ":{"ha":729,"x_min":0,"x_max":0,"o":"m 700 913 l 674 913 l 674 950 b 650 972 674 965 665 972 l 493 972 b 469 950 478 972 469 965 l 469 913 l 250 913 b 229 892 236 913 229 906 l 229 751 b 250 731 229 738 236 731 l 469 731 l 469 636 l 453 636 b 304 700 421 672 382 700 l 296 700 b 67 465 136 700 67 615 l 67 228 b 296 -7 67 79 136 -7 l 304 -7 b 453 57 382 -7 421 21 l 469 57 l 469 24 b 493 0 469 8 478 0 l 650 0 b 674 24 665 0 674 8 l 674 731 l 700 731 b 721 751 713 731 721 738 l 721 892 b 700 913 721 906 713 913 z m 404 175 l 335 175 b 269 246 301 175 269 200 l 269 447 b 335 519 269 494 301 519 l 404 519 b 469 446 440 519 469 496 l 469 247 b 404 175 469 199 440 175 z "},"e":{"ha":722,"x_min":0,"x_max":0,"o":"m 385 -7 b 632 82 479 -7 578 29 b 631 108 638 89 638 97 l 582 182 b 553 193 575 194 563 197 b 385 165 514 178 478 165 l 369 165 b 269 239 303 165 269 197 l 269 267 l 617 267 b 657 307 644 267 657 281 l 657 454 b 399 700 657 603 583 700 l 324 700 b 67 456 138 700 67 604 l 67 238 b 363 -7 67 94 140 -7 z m 269 414 l 269 453 b 335 519 269 501 299 519 l 389 519 b 453 453 424 519 453 500 l 453 414 z "},"é":{"ha":722,"x_min":0,"x_max":0,"o":"m 354 947 l 293 788 b 307 763 286 771 292 763 l 442 763 b 478 788 456 763 469 775 l 600 947 b 586 972 613 963 601 972 l 383 972 b 354 947 369 972 363 964 z m 385 -7 b 632 82 479 -7 578 29 b 631 108 638 89 638 97 l 582 182 b 553 193 575 194 563 197 b 385 165 514 178 478 165 l 369 165 b 269 239 303 165 269 197 l 269 267 l 617 267 b 657 307 644 267 657 281 l 657 454 b 399 700 657 603 583 700 l 324 700 b 67 456 138 700 67 604 l 67 238 b 363 -7 67 94 140 -7 z m 269 414 l 269 453 b 335 519 269 501 299 519 l 389 519 b 453 453 424 519 453 500 l 453 414 z "},"ě":{"ha":722,"x_min":0,"x_max":0,"o":"m 281 761 l 451 761 b 490 782 467 761 481 771 l 632 944 b 619 972 644 957 633 972 l 468 972 b 422 943 446 972 435 960 l 374 885 l 360 885 l 311 943 b 264 972 297 960 286 972 l 113 972 b 100 944 99 972 89 957 l 242 782 b 281 761 253 768 265 761 z m 385 -7 b 632 82 479 -7 578 29 b 631 108 638 89 638 97 l 582 182 b 553 193 575 194 563 197 b 385 165 514 178 478 165 l 369 165 b 269 239 303 165 269 197 l 269 267 l 617 267 b 657 307 644 267 657 281 l 657 454 b 399 700 657 603 583 700 l 324 700 b 67 456 138 700 67 604 l 67 238 b 363 -7 67 94 140 -7 z m 269 414 l 269 453 b 335 519 269 501 299 519 l 389 519 b 453 453 424 519 453 500 l 453 414 z "},"ȩ":{"ha":722,"x_min":0,"x_max":0,"o":"m 399 700 l 324 700 b 67 456 138 700 67 604 l 67 238 b 319 -6 67 104 131 7 b 261 -82 279 -43 261 -56 b 317 -132 261 -117 286 -129 b 460 -162 442 -143 460 -146 b 426 -176 460 -174 443 -176 l 400 -176 b 372 -169 389 -176 378 -169 b 356 -154 369 -160 365 -154 l 233 -154 b 218 -174 221 -154 218 -161 b 342 -289 218 -242 250 -289 l 471 -289 b 613 -160 563 -289 613 -240 b 494 -32 613 -75 594 -42 b 500 0 467 -31 432 -25 l 458 0 b 632 82 528 13 592 43 b 631 108 638 89 638 97 l 582 182 b 553 193 575 194 563 197 b 385 165 514 178 478 165 l 369 165 b 269 239 303 165 269 197 l 269 267 l 617 267 b 657 307 644 267 657 281 l 657 454 b 399 700 657 603 583 700 z m 453 414 l 269 414 l 269 453 b 335 519 269 501 299 519 l 389 519 b 453 453 424 519 453 500 z "},"ê":{"ha":722,"x_min":0,"x_max":0,"o":"m 285 972 b 246 953 269 972 257 967 l 104 790 b 117 761 93 776 103 761 l 268 761 b 315 790 290 761 301 775 l 364 849 l 378 849 l 426 790 b 472 761 439 775 450 761 l 624 761 b 636 790 638 761 649 776 l 494 953 b 456 972 485 964 471 972 z m 385 -7 b 632 82 479 -7 578 29 b 631 108 638 89 638 97 l 582 182 b 553 193 575 194 563 197 b 385 165 514 178 478 165 l 369 165 b 269 239 303 165 269 197 l 269 267 l 617 267 b 657 307 644 267 657 281 l 657 454 b 399 700 657 603 583 700 l 324 700 b 67 456 138 700 67 604 l 67 238 b 363 -7 67 94 140 -7 z m 269 414 l 269 453 b 335 519 269 501 299 519 l 389 519 b 453 453 424 519 453 500 l 453 414 z "},"ë":{"ha":722,"x_min":0,"x_max":0,"o":"m 78 765 l 240 765 b 263 788 254 765 263 774 l 263 950 b 240 972 263 964 254 972 l 78 972 b 56 950 64 972 56 964 l 56 788 b 78 765 56 774 64 765 z m 489 765 l 651 765 b 674 788 665 765 674 774 l 674 950 b 651 972 674 964 665 972 l 489 972 b 467 950 475 972 467 964 l 467 788 b 489 765 467 774 475 765 z m 385 -7 b 632 82 479 -7 578 29 b 631 108 638 89 638 97 l 582 182 b 553 193 575 194 563 197 b 385 165 514 178 478 165 l 369 165 b 269 239 303 165 269 197 l 269 267 l 617 267 b 657 307 644 267 657 281 l 657 454 b 399 700 657 603 583 700 l 324 700 b 67 456 138 700 67 604 l 67 238 b 363 -7 67 94 140 -7 z m 269 414 l 269 453 b 335 519 269 501 299 519 l 389 519 b 453 453 424 519 453 500 l 453 414 z "},"ė":{"ha":722,"x_min":0,"x_max":0,"o":"m 283 765 l 446 765 b 468 788 460 765 468 774 l 468 950 b 446 972 468 964 460 972 l 283 972 b 261 950 269 972 261 964 l 261 788 b 283 765 261 774 269 765 z m 385 -7 b 632 82 479 -7 578 29 b 631 108 638 89 638 97 l 582 182 b 553 193 575 194 563 197 b 385 165 514 178 478 165 l 369 165 b 269 239 303 165 269 197 l 269 267 l 617 267 b 657 307 644 267 657 281 l 657 454 b 399 700 657 603 583 700 l 324 700 b 67 456 138 700 67 604 l 67 238 b 363 -7 67 94 140 -7 z m 269 414 l 269 453 b 335 519 269 501 299 519 l 389 519 b 453 453 424 519 453 500 l 453 414 z "},"è":{"ha":722,"x_min":0,"x_max":0,"o":"m 388 947 b 358 972 379 964 372 972 l 156 972 b 142 947 140 972 129 963 l 264 788 b 300 763 272 775 286 763 l 435 763 b 449 788 450 763 456 771 z m 385 -7 b 632 82 479 -7 578 29 b 631 108 638 89 638 97 l 582 182 b 553 193 575 194 563 197 b 385 165 514 178 478 165 l 369 165 b 269 239 303 165 269 197 l 269 267 l 617 267 b 657 307 644 267 657 281 l 657 454 b 399 700 657 603 583 700 l 324 700 b 67 456 138 700 67 604 l 67 238 b 363 -7 67 94 140 -7 z m 269 414 l 269 453 b 335 519 269 501 299 519 l 389 519 b 453 453 424 519 453 500 l 453 414 z "},"ē":{"ha":722,"x_min":0,"x_max":0,"o":"m 140 792 l 590 792 b 611 813 603 792 611 799 l 611 951 b 590 972 611 965 603 972 l 140 972 b 119 951 126 972 119 965 l 119 813 b 140 792 119 799 126 792 z m 385 -7 b 632 82 479 -7 578 29 b 631 108 638 89 638 97 l 582 182 b 553 193 575 194 563 197 b 385 165 514 178 478 165 l 369 165 b 269 239 303 165 269 197 l 269 267 l 617 267 b 657 307 644 267 657 281 l 657 454 b 399 700 657 603 583 700 l 324 700 b 67 456 138 700 67 604 l 67 238 b 363 -7 67 94 140 -7 z m 269 414 l 269 453 b 335 519 269 501 299 519 l 389 519 b 453 453 424 519 453 500 l 453 414 z "},"ę":{"ha":722,"x_min":0,"x_max":0,"o":"m 399 700 l 324 700 b 67 456 138 700 67 604 l 67 238 b 303 -4 67 108 126 13 b 254 -31 300 -32 281 -28 l 206 -35 b 110 -158 131 -43 110 -64 b 258 -289 110 -271 143 -289 l 469 -289 b 483 -275 479 -289 483 -283 l 483 -176 b 469 -158 483 -167 478 -158 l 296 -158 b 292 -156 294 -158 292 -156 b 303 -146 292 -151 293 -147 l 397 -135 b 507 -53 468 -125 507 -124 l 507 13 b 632 82 557 28 601 53 b 631 108 638 89 638 97 l 582 182 b 553 193 575 194 563 197 b 385 165 514 178 478 165 l 369 165 b 269 239 303 165 269 197 l 269 267 l 617 267 b 657 307 644 267 657 281 l 657 454 b 399 700 657 603 583 700 z m 453 414 l 269 414 l 269 453 b 335 519 269 501 299 519 l 389 519 b 453 453 424 519 453 500 z "},"f":{"ha":560,"x_min":0,"x_max":0,"o":"m 500 972 l 401 972 b 161 740 229 972 161 888 l 161 694 l 68 694 b 46 672 53 694 46 686 l 46 538 b 68 515 46 524 53 515 l 161 515 l 161 24 b 183 0 161 8 169 0 l 342 0 b 364 24 356 0 364 8 l 364 515 l 493 515 b 515 538 508 515 515 524 l 515 672 b 493 694 515 686 508 694 l 364 694 l 364 722 b 442 792 364 767 393 792 l 500 792 b 521 813 514 792 521 799 l 521 951 b 500 972 521 965 514 972 z "},"g":{"ha":746,"x_min":0,"x_max":0,"o":"m 368 -257 b 674 -3 575 -257 674 -193 l 674 672 b 650 694 674 688 665 694 l 490 694 b 469 672 482 694 469 688 l 469 636 l 453 636 b 304 700 421 672 382 700 l 296 700 b 67 465 136 700 67 615 l 67 228 b 296 -7 67 79 136 -7 l 304 -7 b 453 57 382 -7 421 21 l 469 57 l 469 -3 b 367 -87 469 -62 431 -87 b 242 -85 339 -87 285 -87 b 207 -115 218 -83 207 -97 l 207 -210 b 242 -246 207 -231 219 -240 b 368 -257 288 -256 343 -257 z m 335 175 b 269 246 301 175 269 200 l 269 447 b 335 519 269 494 301 519 l 404 519 b 469 446 440 519 469 496 l 469 247 b 404 175 469 199 440 175 z "},"ğ":{"ha":746,"x_min":0,"x_max":0,"o":"m 344 740 l 440 740 b 642 949 579 740 642 808 b 619 972 642 964 633 972 l 499 972 b 476 949 485 972 479 964 b 408 878 471 914 464 878 l 375 878 b 307 949 319 878 313 914 b 285 972 306 964 299 972 l 164 972 b 142 949 150 972 142 964 b 344 740 142 808 204 740 z m 368 -257 b 674 -3 575 -257 674 -193 l 674 672 b 650 694 674 688 665 694 l 490 694 b 469 672 482 694 469 688 l 469 636 l 453 636 b 304 700 421 672 382 700 l 296 700 b 67 465 136 700 67 615 l 67 228 b 296 -7 67 79 136 -7 l 304 -7 b 453 57 382 -7 421 21 l 469 57 l 469 -3 b 367 -87 469 -62 431 -87 b 242 -85 339 -87 285 -87 b 207 -115 218 -83 207 -97 l 207 -210 b 242 -246 207 -231 219 -240 b 368 -257 288 -256 343 -257 z m 335 175 b 269 246 301 175 269 200 l 269 447 b 335 519 269 494 301 519 l 404 519 b 469 446 440 519 469 496 l 469 247 b 404 175 469 199 440 175 z "},"ǧ":{"ha":746,"x_min":0,"x_max":0,"o":"m 307 761 l 478 761 b 517 782 493 761 507 771 l 658 944 b 646 972 671 957 660 972 l 494 972 b 449 943 472 972 461 960 l 400 885 l 386 885 l 338 943 b 290 972 324 960 313 972 l 139 972 b 126 944 125 972 115 957 l 268 782 b 307 761 279 768 292 761 z m 368 -257 b 674 -3 575 -257 674 -193 l 674 672 b 650 694 674 688 665 694 l 490 694 b 469 672 482 694 469 688 l 469 636 l 453 636 b 304 700 421 672 382 700 l 296 700 b 67 465 136 700 67 615 l 67 228 b 296 -7 67 79 136 -7 l 304 -7 b 453 57 382 -7 421 21 l 469 57 l 469 -3 b 367 -87 469 -62 431 -87 b 242 -85 339 -87 285 -87 b 207 -115 218 -83 207 -97 l 207 -210 b 242 -246 207 -231 219 -240 b 368 -257 288 -256 343 -257 z m 335 175 b 269 246 301 175 269 200 l 269 447 b 335 519 269 494 301 519 l 404 519 b 469 446 440 519 469 496 l 469 247 b 404 175 469 199 440 175 z "},"ĝ":{"ha":746,"x_min":0,"x_max":0,"o":"m 311 972 b 272 953 296 972 283 967 l 131 790 b 143 761 119 776 129 761 l 294 761 b 342 790 317 761 328 775 l 390 849 l 404 849 l 453 790 b 499 761 465 775 476 761 l 650 761 b 663 790 664 761 675 776 l 521 953 b 482 972 511 964 497 972 z m 368 -257 b 674 -3 575 -257 674 -193 l 674 672 b 650 694 674 688 665 694 l 490 694 b 469 672 482 694 469 688 l 469 636 l 453 636 b 304 700 421 672 382 700 l 296 700 b 67 465 136 700 67 615 l 67 228 b 296 -7 67 79 136 -7 l 304 -7 b 453 57 382 -7 421 21 l 469 57 l 469 -3 b 367 -87 469 -62 431 -87 b 242 -85 339 -87 285 -87 b 207 -115 218 -83 207 -97 l 207 -210 b 242 -246 207 -231 219 -240 b 368 -257 288 -256 343 -257 z m 335 175 b 269 246 301 175 269 200 l 269 447 b 335 519 269 494 301 519 l 404 519 b 469 446 440 519 469 496 l 469 247 b 404 175 469 199 440 175 z "},"ģ":{"ha":746,"x_min":0,"x_max":0,"o":"m 226 724 l 360 724 b 382 746 374 724 382 732 l 382 1000 l 450 1000 b 472 1022 464 1000 472 1008 l 472 1147 b 450 1169 472 1161 464 1169 l 261 1169 b 204 1114 225 1169 204 1150 l 204 746 b 226 724 204 732 213 724 z m 368 -257 b 674 -3 575 -257 674 -193 l 674 672 b 650 694 674 688 665 694 l 490 694 b 469 672 482 694 469 688 l 469 636 l 453 636 b 304 700 421 672 382 700 l 296 700 b 67 465 136 700 67 615 l 67 228 b 296 -7 67 79 136 -7 l 304 -7 b 453 57 382 -7 421 21 l 469 57 l 469 -3 b 367 -87 469 -62 431 -87 b 242 -85 339 -87 285 -87 b 207 -115 218 -83 207 -97 l 207 -210 b 242 -246 207 -231 219 -240 b 368 -257 288 -256 343 -257 z m 335 175 b 269 246 301 175 269 200 l 269 447 b 335 519 269 494 301 519 l 404 519 b 469 446 440 519 469 496 l 469 247 b 404 175 469 199 440 175 z "},"ġ":{"ha":746,"x_min":0,"x_max":0,"o":"m 310 765 l 472 765 b 494 788 486 765 494 774 l 494 950 b 472 972 494 964 486 972 l 310 972 b 288 950 296 972 288 964 l 288 788 b 310 765 288 774 296 765 z m 368 -257 b 674 -3 575 -257 674 -193 l 674 672 b 650 694 674 688 665 694 l 490 694 b 469 672 482 694 469 688 l 469 636 l 453 636 b 304 700 421 672 382 700 l 296 700 b 67 465 136 700 67 615 l 67 228 b 296 -7 67 79 136 -7 l 304 -7 b 453 57 382 -7 421 21 l 469 57 l 469 -3 b 367 -87 469 -62 431 -87 b 242 -85 339 -87 285 -87 b 207 -115 218 -83 207 -97 l 207 -210 b 242 -246 207 -231 219 -240 b 368 -257 288 -256 343 -257 z m 335 175 b 269 246 301 175 269 200 l 269 447 b 335 519 269 494 301 519 l 404 519 b 469 446 440 519 469 496 l 469 247 b 404 175 469 199 440 175 z "},"h":{"ha":767,"x_min":0,"x_max":0,"o":"m 474 700 l 464 700 b 306 626 392 700 333 674 l 283 626 l 283 950 b 261 972 283 965 275 972 l 103 972 b 81 950 89 972 81 965 l 81 24 b 103 0 81 8 89 0 l 263 0 l 265 0 b 283 24 276 1 283 10 l 283 444 b 356 519 283 496 317 519 l 422 519 b 483 446 456 519 483 494 l 483 24 b 507 0 483 8 492 0 l 667 0 b 688 24 675 0 688 8 l 688 465 b 474 700 688 615 629 700 z "},"ħ":{"ha":794,"x_min":0,"x_max":0,"o":"m 474 700 l 464 700 b 306 626 392 700 333 674 l 283 626 l 283 731 l 471 731 b 492 751 483 731 492 738 l 492 892 b 471 913 492 906 483 913 l 283 913 l 283 950 b 261 972 283 965 275 972 l 103 972 b 81 950 89 972 81 965 l 81 913 l 21 913 b 0 892 7 913 0 906 l 0 751 b 21 731 0 738 7 731 l 81 731 l 81 24 b 103 0 81 8 89 0 l 263 0 l 265 0 b 283 24 276 1 283 10 l 283 444 b 356 519 283 496 317 519 l 422 519 b 483 446 456 519 483 494 l 483 24 b 507 0 483 8 492 0 l 667 0 b 688 24 675 0 688 8 l 688 465 b 474 700 688 615 629 700 z "},"ĥ":{"ha":767,"x_min":0,"x_max":0,"o":"m 129 1068 l 178 1126 l 192 1126 l 240 1068 b 286 1039 253 1053 264 1039 l 438 1039 b 450 1068 451 1039 463 1054 l 308 1231 b 269 1250 299 1242 285 1250 l 99 1250 b 60 1231 83 1250 71 1244 l -82 1068 b -69 1039 -94 1054 -83 1039 l 82 1039 b 129 1068 104 1039 115 1053 z m 474 700 l 464 700 b 306 626 392 700 333 674 l 283 626 l 283 950 b 261 972 283 965 275 972 l 103 972 b 81 950 89 972 81 965 l 81 24 b 103 0 81 8 89 0 l 263 0 l 265 0 b 283 24 276 1 283 10 l 283 444 b 356 519 283 496 317 519 l 422 519 b 483 446 456 519 483 494 l 483 24 b 507 0 483 8 492 0 l 667 0 b 688 24 675 0 688 8 l 688 465 b 474 700 688 615 629 700 z "},"i":{"ha":363,"x_min":0,"x_max":0,"o":"m 103 781 l 260 781 b 282 803 274 781 282 788 l 282 950 b 260 972 282 965 274 972 l 103 972 b 81 950 89 972 81 965 l 81 803 b 103 781 81 788 89 781 z m 103 0 l 260 0 b 283 24 275 0 283 8 l 283 672 b 260 694 283 688 275 694 l 103 694 b 79 672 88 694 79 688 l 79 24 b 103 0 79 8 88 0 z "},"ı":{"ha":357,"x_min":0,"x_max":0,"o":"m 100 0 l 257 0 b 281 24 272 0 281 8 l 281 672 b 257 694 281 688 272 694 l 100 694 b 76 672 85 694 76 688 l 76 24 b 100 0 76 8 85 0 z "},"í":{"ha":357,"x_min":0,"x_max":0,"o":"m 164 947 l 103 788 b 117 763 96 771 101 763 l 251 763 b 288 788 265 763 279 775 l 410 947 b 396 972 422 963 411 972 l 193 972 b 164 947 179 972 172 964 z m 100 0 l 257 0 b 281 24 272 0 281 8 l 281 672 b 257 694 281 688 272 694 l 100 694 b 76 672 85 694 76 688 l 76 24 b 100 0 76 8 85 0 z "},"ǐ":{"ha":357,"x_min":0,"x_max":0,"o":"m 89 761 l 260 761 b 299 782 275 761 289 771 l 440 944 b 428 972 453 957 442 972 l 276 972 b 231 943 254 972 243 960 l 182 885 l 168 885 l 119 943 b 72 972 106 960 94 972 l -79 972 b -92 944 -93 972 -104 957 l 50 782 b 89 761 61 768 74 761 z m 100 0 l 257 0 b 281 24 272 0 281 8 l 281 672 b 257 694 281 688 272 694 l 100 694 b 76 672 85 694 76 688 l 76 24 b 100 0 76 8 85 0 z "},"î":{"ha":357,"x_min":0,"x_max":0,"o":"m 93 972 b 54 953 78 972 65 967 l -87 790 b -75 761 -100 776 -89 761 l 76 761 b 124 790 99 761 110 775 l 172 849 l 186 849 l 235 790 b 281 761 247 775 258 761 l 432 761 b 444 790 446 761 457 776 l 303 953 b 264 972 293 964 279 972 z m 100 0 l 257 0 b 281 24 272 0 281 8 l 281 672 b 257 694 281 688 272 694 l 100 694 b 76 672 85 694 76 688 l 76 24 b 100 0 76 8 85 0 z "},"ï":{"ha":357,"x_min":0,"x_max":0,"o":"m -112 765 l 50 765 b 72 788 64 765 72 774 l 72 950 b 50 972 72 964 64 972 l -112 972 b -135 950 -126 972 -135 964 l -135 788 b -112 765 -135 774 -126 765 z m 299 765 l 461 765 b 483 788 475 765 483 774 l 483 950 b 461 972 483 964 475 972 l 299 972 b 276 950 285 972 276 964 l 276 788 b 299 765 276 774 285 765 z m 100 0 l 257 0 b 281 24 272 0 281 8 l 281 672 b 257 694 281 688 272 694 l 100 694 b 76 672 85 694 76 688 l 76 24 b 100 0 76 8 85 0 z "},"ì":{"ha":357,"x_min":0,"x_max":0,"o":"m 196 947 b 167 972 188 964 181 972 l -36 972 b -50 947 -51 972 -62 963 l 72 788 b 108 763 81 775 94 763 l 243 763 b 257 788 258 763 264 771 z m 100 0 l 257 0 b 281 24 272 0 281 8 l 281 672 b 257 694 281 688 272 694 l 100 694 b 76 672 85 694 76 688 l 76 24 b 100 0 76 8 85 0 z "},"ĳ":{"ha":739,"x_min":0,"x_max":0,"o":"m 103 781 l 260 781 b 282 803 274 781 282 788 l 282 950 b 260 972 282 965 274 972 l 103 972 b 81 950 89 972 81 965 l 81 803 b 103 781 81 788 89 781 z m 481 781 l 636 781 b 660 803 651 781 660 788 l 660 950 b 636 972 660 965 651 972 l 481 972 b 457 950 465 972 457 965 l 457 803 b 481 781 457 788 465 781 z m 103 0 l 260 0 b 283 24 275 0 283 8 l 283 672 b 260 694 283 688 275 694 l 103 694 b 79 672 88 694 79 688 l 79 24 b 103 0 79 8 88 0 z m 439 -264 b 660 -7 644 -264 660 -151 l 660 672 b 636 694 660 688 651 694 l 479 694 b 456 672 464 694 456 688 l 456 -15 b 381 -86 456 -67 431 -86 b 339 -126 350 -86 339 -99 l 339 -207 b 439 -264 339 -246 361 -264 z "},"ī":{"ha":357,"x_min":0,"x_max":0,"o":"m -50 792 l 400 792 b 421 813 413 792 421 799 l 421 951 b 400 972 421 965 413 972 l -50 972 b -71 951 -64 972 -71 965 l -71 813 b -50 792 -71 799 -64 792 z m 100 0 l 257 0 b 281 24 272 0 281 8 l 281 672 b 257 694 281 688 272 694 l 100 694 b 76 672 85 694 76 688 l 76 24 b 100 0 76 8 85 0 z "},"į":{"ha":357,"x_min":0,"x_max":0,"o":"m 93 765 l 256 765 b 278 788 269 765 278 774 l 278 950 b 256 972 278 964 269 972 l 93 972 b 71 950 79 972 71 964 l 71 788 b 93 765 71 774 79 765 z m 257 694 l 100 694 b 76 672 85 694 76 688 l 76 4 b 28 -31 76 -32 57 -28 l -22 -35 b -117 -158 -96 -43 -117 -64 b 32 -289 -117 -271 -85 -289 l 243 -289 b 257 -275 253 -289 257 -283 l 257 -176 b 243 -158 257 -167 251 -158 l 69 -158 b 65 -156 68 -158 65 -156 b 76 -146 65 -151 67 -147 l 171 -135 b 281 -53 242 -125 281 -124 l 281 672 b 257 694 281 688 272 694 z "},"j":{"ha":376,"x_min":0,"x_max":0,"o":"m 118 781 l 274 781 b 297 803 289 781 297 788 l 297 950 b 274 972 297 965 289 972 l 118 972 b 94 950 103 972 94 965 l 94 803 b 118 781 94 788 103 781 z m 76 -264 b 297 -7 282 -264 297 -151 l 297 672 b 274 694 297 688 289 694 l 117 694 b 93 672 101 694 93 688 l 93 -15 b 18 -86 93 -67 68 -86 b -25 -126 -12 -86 -25 -99 l -25 -207 b 76 -264 -25 -246 -1 -264 z "},"ȷ":{"ha":374,"x_min":0,"x_max":0,"o":"m 74 -264 b 293 -7 278 -264 293 -151 l 293 672 b 271 694 293 688 285 694 l 113 694 b 90 672 99 694 90 688 l 90 -15 b 15 -86 90 -67 65 -86 b -28 -126 -17 -86 -28 -99 l -28 -207 b 74 -264 -28 -246 -6 -264 z "},"ĵ":{"ha":374,"x_min":0,"x_max":0,"o":"m 115 972 b 76 953 100 972 88 967 l -65 790 b -53 761 -78 776 -67 761 l 99 761 b 146 790 121 761 132 775 l 194 849 l 208 849 l 257 790 b 303 761 269 775 281 761 l 454 761 b 467 790 468 761 479 776 l 325 953 b 286 972 315 964 301 972 z m 74 -264 b 293 -7 278 -264 293 -151 l 293 672 b 271 694 293 688 285 694 l 113 694 b 90 672 99 694 90 688 l 90 -15 b 15 -86 90 -67 65 -86 b -28 -126 -17 -86 -28 -99 l -28 -207 b 74 -264 -28 -246 -6 -264 z "},"k":{"ha":776,"x_min":0,"x_max":0,"o":"m 739 39 l 492 418 l 715 643 b 703 694 744 672 721 694 l 543 694 b 503 675 526 694 515 688 l 283 450 l 283 950 b 261 972 283 965 275 972 l 103 972 b 81 950 89 972 81 965 l 81 24 b 103 0 81 8 89 0 l 261 0 b 283 24 275 0 283 8 l 283 210 l 357 283 l 521 28 b 574 0 535 8 553 0 l 718 0 b 739 39 743 0 753 19 z "},"ķ":{"ha":776,"x_min":0,"x_max":0,"o":"m 739 39 l 492 418 l 715 643 b 703 694 744 672 721 694 l 543 694 b 503 675 526 694 515 688 l 283 450 l 283 950 b 261 972 283 965 275 972 l 103 972 b 81 950 89 972 81 965 l 81 24 b 103 0 81 8 89 0 l 261 0 b 283 24 275 0 283 8 l 283 210 l 357 283 l 521 28 b 574 0 535 8 553 0 l 718 0 b 739 39 743 0 753 19 z m 389 -83 l 256 -83 b 233 -106 242 -83 233 -92 l 233 -360 l 165 -360 b 143 -382 151 -360 143 -368 l 143 -507 b 165 -529 143 -521 151 -529 l 354 -529 b 411 -474 390 -529 411 -510 l 411 -106 b 389 -83 411 -92 403 -83 z "},"l":{"ha":364,"x_min":0,"x_max":0,"o":"m 103 0 l 261 0 b 283 24 275 0 283 8 l 283 950 b 261 972 283 965 275 972 l 103 972 b 81 950 89 972 81 965 l 81 24 b 103 0 81 8 89 0 z "},"ĺ":{"ha":364,"x_min":0,"x_max":0,"o":"m 172 1225 l 111 1065 b 125 1040 104 1049 110 1040 l 260 1040 b 296 1065 274 1040 288 1053 l 418 1225 b 404 1250 431 1240 419 1250 l 201 1250 b 172 1225 188 1250 181 1242 z m 103 0 l 261 0 b 283 24 275 0 283 8 l 283 950 b 261 972 283 965 275 972 l 103 972 b 81 950 89 972 81 965 l 81 24 b 103 0 81 8 89 0 z "},"ľ":{"ha":583,"x_min":0,"x_max":0,"o":"m 103 0 l 261 0 b 283 24 275 0 283 8 l 283 950 b 261 972 283 965 275 972 l 103 972 b 81 950 89 972 81 965 l 81 24 b 103 0 81 8 89 0 z m 596 972 l 463 972 b 440 950 449 972 440 964 l 440 696 l 374 696 b 351 674 360 696 351 688 l 351 549 b 374 526 351 535 360 526 l 563 526 b 618 583 599 526 618 547 l 618 950 b 596 972 618 964 610 972 z "},"ļ":{"ha":364,"x_min":0,"x_max":0,"o":"m 103 0 l 261 0 b 283 24 275 0 283 8 l 283 950 b 261 972 283 965 275 972 l 103 972 b 81 950 89 972 81 965 l 81 24 b 103 0 81 8 89 0 z m 247 -83 l 114 -83 b 92 -106 100 -83 92 -92 l 92 -360 l 24 -360 b 1 -382 10 -360 1 -368 l 1 -507 b 24 -529 1 -521 10 -529 l 213 -529 b 269 -474 249 -529 269 -510 l 269 -106 b 247 -83 269 -92 261 -83 z "},"ŀ":{"ha":525,"x_min":0,"x_max":0,"o":"m 103 0 l 261 0 b 283 24 275 0 283 8 l 283 950 b 261 972 283 965 275 972 l 103 972 b 81 950 89 972 81 965 l 81 24 b 103 0 81 8 89 0 z m 382 306 l 544 306 b 567 328 558 306 567 314 l 567 490 b 544 513 567 504 558 513 l 382 513 b 360 490 368 513 360 504 l 360 328 b 382 306 360 314 368 306 z "},"ł":{"ha":458,"x_min":0,"x_max":0,"o":"m 444 660 l 331 660 l 331 950 b 308 972 331 965 322 972 l 150 972 b 128 950 136 972 128 965 l 128 526 l -3 399 b 13 372 -15 386 -4 372 l 128 372 l 128 24 b 150 0 128 8 136 0 l 308 0 b 331 24 322 0 331 8 l 331 506 l 458 632 b 444 660 474 646 461 660 z "},"m":{"ha":1139,"x_min":0,"x_max":0,"o":"m 844 700 l 815 700 b 650 625 753 700 678 671 l 636 625 b 478 700 606 674 554 700 l 458 700 b 306 626 388 700 335 672 l 283 626 l 283 672 b 263 694 283 688 271 694 l 103 694 b 81 672 89 694 81 688 l 81 24 b 103 0 81 8 89 0 l 263 0 b 283 24 271 0 283 8 l 283 444 b 351 519 283 496 313 519 l 397 519 b 468 446 435 519 468 494 l 468 24 b 490 0 468 8 476 0 l 650 0 b 671 24 658 0 671 8 l 671 444 b 739 519 671 496 700 519 l 785 519 b 856 446 822 519 856 494 l 856 24 b 878 0 856 8 864 0 l 1038 0 b 1058 24 1046 0 1058 8 l 1058 465 b 844 700 1058 615 1003 700 z "},"ḿ":{"ha":1139,"x_min":0,"x_max":0,"o":"m 514 763 l 649 763 b 685 788 663 763 676 775 l 807 947 b 793 972 819 963 808 972 l 590 972 b 561 947 576 972 569 964 l 500 788 b 514 763 493 771 499 763 z m 844 700 l 815 700 b 650 625 753 700 678 671 l 636 625 b 478 700 606 674 554 700 l 458 700 b 306 626 388 700 335 672 l 283 626 l 283 672 b 263 694 283 688 271 694 l 103 694 b 81 672 89 694 81 688 l 81 24 b 103 0 81 8 89 0 l 263 0 b 283 24 271 0 283 8 l 283 444 b 351 519 283 496 313 519 l 397 519 b 468 446 435 519 468 494 l 468 24 b 490 0 468 8 476 0 l 650 0 b 671 24 658 0 671 8 l 671 444 b 739 519 671 496 700 519 l 785 519 b 856 446 822 519 856 494 l 856 24 b 878 0 856 8 864 0 l 1038 0 b 1058 24 1046 0 1058 8 l 1058 465 b 844 700 1058 615 1003 700 z "},"n":{"ha":767,"x_min":0,"x_max":0,"o":"m 103 0 l 263 0 b 283 24 271 0 283 8 l 283 444 b 356 519 283 496 317 519 l 422 519 b 483 446 456 519 483 494 l 483 24 b 507 0 483 8 492 0 l 667 0 b 688 24 675 0 688 8 l 688 465 b 474 700 688 615 629 700 l 464 700 b 306 626 392 700 333 674 l 283 626 l 283 672 b 263 694 283 688 271 694 l 103 694 b 81 672 89 694 81 688 l 81 24 b 103 0 81 8 89 0 z "},"ń":{"ha":767,"x_min":0,"x_max":0,"o":"m 372 947 l 311 788 b 325 763 304 771 310 763 l 460 763 b 496 788 474 763 488 775 l 618 947 b 604 972 631 963 619 972 l 401 972 b 372 947 388 972 381 964 z m 103 0 l 263 0 b 283 24 271 0 283 8 l 283 444 b 356 519 283 496 317 519 l 422 519 b 483 446 456 519 483 494 l 483 24 b 507 0 483 8 492 0 l 667 0 b 688 24 675 0 688 8 l 688 465 b 474 700 688 615 629 700 l 464 700 b 306 626 392 700 333 674 l 283 626 l 283 672 b 263 694 283 688 271 694 l 103 694 b 81 672 89 694 81 688 l 81 24 b 103 0 81 8 89 0 z "},"ň":{"ha":767,"x_min":0,"x_max":0,"o":"m 299 761 l 469 761 b 508 782 485 761 499 771 l 650 944 b 638 972 663 957 651 972 l 486 972 b 440 943 464 972 453 960 l 392 885 l 378 885 l 329 943 b 282 972 315 960 304 972 l 131 972 b 118 944 117 972 107 957 l 260 782 b 299 761 271 768 283 761 z m 103 0 l 263 0 b 283 24 271 0 283 8 l 283 444 b 356 519 283 496 317 519 l 422 519 b 483 446 456 519 483 494 l 483 24 b 507 0 483 8 492 0 l 667 0 b 688 24 675 0 688 8 l 688 465 b 474 700 688 615 629 700 l 464 700 b 306 626 392 700 333 674 l 283 626 l 283 672 b 263 694 283 688 271 694 l 103 694 b 81 672 89 694 81 688 l 81 24 b 103 0 81 8 89 0 z "},"ņ":{"ha":767,"x_min":0,"x_max":0,"o":"m 103 0 l 263 0 b 283 24 271 0 283 8 l 283 444 b 356 519 283 496 317 519 l 422 519 b 483 446 456 519 483 494 l 483 24 b 507 0 483 8 492 0 l 667 0 b 688 24 675 0 688 8 l 688 465 b 474 700 688 615 629 700 l 464 700 b 306 626 392 700 333 674 l 283 626 l 283 672 b 263 694 283 688 271 694 l 103 694 b 81 672 89 694 81 688 l 81 24 b 103 0 81 8 89 0 z m 449 -83 l 315 -83 b 293 -106 301 -83 293 -92 l 293 -360 l 225 -360 b 203 -382 211 -360 203 -368 l 203 -507 b 225 -529 203 -521 211 -529 l 414 -529 b 471 -474 450 -529 471 -510 l 471 -106 b 449 -83 471 -92 463 -83 z "},"ŋ":{"ha":767,"x_min":0,"x_max":0,"o":"m 688 465 b 474 700 688 615 629 700 l 464 700 b 306 626 392 700 333 674 l 283 626 l 283 672 b 263 694 283 688 271 694 l 103 694 b 81 672 89 694 81 688 l 81 24 b 103 0 81 8 89 0 l 263 0 b 283 24 271 0 283 8 l 283 444 b 356 519 283 496 317 519 l 422 519 b 483 446 456 519 483 494 l 483 225 l 481 225 l 481 -37 b 406 -107 481 -87 456 -107 b 363 -147 375 -107 363 -121 l 363 -228 b 464 -285 363 -268 386 -285 b 683 -28 668 -285 683 -172 l 683 10 b 688 24 686 14 688 18 z "},"ñ":{"ha":767,"x_min":0,"x_max":0,"o":"m 474 751 b 621 801 522 751 567 760 b 635 836 632 811 640 819 l 590 949 b 564 956 586 956 576 963 b 476 928 528 938 514 928 b 297 979 411 928 396 979 b 150 929 249 979 204 971 b 136 894 139 919 131 911 l 181 782 b 210 776 185 775 194 768 b 294 803 242 796 257 803 b 474 751 360 803 375 751 z m 103 0 l 263 0 b 283 24 271 0 283 8 l 283 444 b 356 519 283 496 317 519 l 422 519 b 483 446 456 519 483 494 l 483 24 b 507 0 483 8 492 0 l 667 0 b 688 24 675 0 688 8 l 688 465 b 474 700 688 615 629 700 l 464 700 b 306 626 392 700 333 674 l 283 626 l 283 672 b 263 694 283 688 271 694 l 103 694 b 81 672 89 694 81 688 l 81 24 b 103 0 81 8 89 0 z "},"o":{"ha":739,"x_min":0,"x_max":0,"o":"m 324 -7 l 415 -7 b 674 239 601 -7 674 92 l 674 454 b 415 700 674 603 600 700 l 324 700 b 67 454 139 700 67 603 l 67 239 b 324 -7 67 92 139 -7 z m 335 175 b 269 243 300 175 269 193 l 269 451 b 335 519 269 500 300 519 l 406 519 b 469 451 440 519 469 500 l 469 243 b 406 175 469 193 440 175 z "},"ó":{"ha":739,"x_min":0,"x_max":0,"o":"m 358 947 l 297 788 b 311 763 290 771 296 763 l 446 763 b 482 788 460 763 474 775 l 604 947 b 590 972 617 963 606 972 l 388 972 b 358 947 374 972 367 964 z m 324 -7 l 415 -7 b 674 239 601 -7 674 92 l 674 454 b 415 700 674 603 600 700 l 324 700 b 67 454 139 700 67 603 l 67 239 b 324 -7 67 92 139 -7 z m 335 175 b 269 243 300 175 269 193 l 269 451 b 335 519 269 500 300 519 l 406 519 b 469 451 440 519 469 500 l 469 243 b 406 175 469 193 440 175 z "},"ǒ":{"ha":739,"x_min":0,"x_max":0,"o":"m 285 761 l 456 761 b 494 782 471 761 485 771 l 636 944 b 624 972 649 957 638 972 l 472 972 b 426 943 450 972 439 960 l 378 885 l 364 885 l 315 943 b 268 972 301 960 290 972 l 117 972 b 104 944 103 972 93 957 l 246 782 b 285 761 257 768 269 761 z m 324 -7 l 415 -7 b 674 239 601 -7 674 92 l 674 454 b 415 700 674 603 600 700 l 324 700 b 67 454 139 700 67 603 l 67 239 b 324 -7 67 92 139 -7 z m 335 175 b 269 243 300 175 269 193 l 269 451 b 335 519 269 500 300 519 l 406 519 b 469 451 440 519 469 500 l 469 243 b 406 175 469 193 440 175 z "},"ô":{"ha":739,"x_min":0,"x_max":0,"o":"m 289 972 b 250 953 274 972 261 967 l 108 790 b 121 761 97 776 107 761 l 272 761 b 319 790 294 761 306 775 l 368 849 l 382 849 l 431 790 b 476 761 443 775 454 761 l 628 761 b 640 790 642 761 653 776 l 499 953 b 460 972 489 964 475 972 z m 324 -7 l 415 -7 b 674 239 601 -7 674 92 l 674 454 b 415 700 674 603 600 700 l 324 700 b 67 454 139 700 67 603 l 67 239 b 324 -7 67 92 139 -7 z m 335 175 b 269 243 300 175 269 193 l 269 451 b 335 519 269 500 300 519 l 406 519 b 469 451 440 519 469 500 l 469 243 b 406 175 469 193 440 175 z "},"ö":{"ha":739,"x_min":0,"x_max":0,"o":"m 82 765 l 244 765 b 267 788 258 765 267 774 l 267 950 b 244 972 267 964 258 972 l 82 972 b 60 950 68 972 60 964 l 60 788 b 82 765 60 774 68 765 z m 493 765 l 656 765 b 678 788 669 765 678 774 l 678 950 b 656 972 678 964 669 972 l 493 972 b 471 950 479 972 471 964 l 471 788 b 493 765 471 774 479 765 z m 324 -7 l 415 -7 b 674 239 601 -7 674 92 l 674 454 b 415 700 674 603 600 700 l 324 700 b 67 454 139 700 67 603 l 67 239 b 324 -7 67 92 139 -7 z m 335 175 b 269 243 300 175 269 193 l 269 451 b 335 519 269 500 300 519 l 406 519 b 469 451 440 519 469 500 l 469 243 b 406 175 469 193 440 175 z "},"ò":{"ha":739,"x_min":0,"x_max":0,"o":"m 392 947 b 363 972 383 964 376 972 l 160 972 b 146 947 144 972 133 963 l 268 788 b 304 763 276 775 290 763 l 439 763 b 453 788 454 763 460 771 z m 324 -7 l 415 -7 b 674 239 601 -7 674 92 l 674 454 b 415 700 674 603 600 700 l 324 700 b 67 454 139 700 67 603 l 67 239 b 324 -7 67 92 139 -7 z m 335 175 b 269 243 300 175 269 193 l 269 451 b 335 519 269 500 300 519 l 406 519 b 469 451 440 519 469 500 l 469 243 b 406 175 469 193 440 175 z "},"ő":{"ha":739,"x_min":0,"x_max":0,"o":"m 199 947 l 138 788 b 151 763 131 771 136 763 l 286 763 b 322 788 300 763 314 775 l 444 947 b 431 972 457 963 446 972 l 228 972 b 199 947 214 972 207 964 z m 499 947 l 438 788 b 451 763 431 771 436 763 l 586 763 b 622 788 600 763 614 775 l 744 947 b 731 972 757 963 746 972 l 528 972 b 499 947 514 972 507 964 z m 324 -7 l 415 -7 b 674 239 601 -7 674 92 l 674 454 b 415 700 674 603 600 700 l 324 700 b 67 454 139 700 67 603 l 67 239 b 324 -7 67 92 139 -7 z m 335 175 b 269 243 300 175 269 193 l 269 451 b 335 519 269 500 300 519 l 406 519 b 469 451 440 519 469 500 l 469 243 b 406 175 469 193 440 175 z "},"ō":{"ha":739,"x_min":0,"x_max":0,"o":"m 144 792 l 594 792 b 615 813 607 792 615 799 l 615 951 b 594 972 615 965 607 972 l 144 972 b 124 951 131 972 124 965 l 124 813 b 144 792 124 799 131 792 z m 324 -7 l 415 -7 b 674 239 601 -7 674 92 l 674 454 b 415 700 674 603 600 700 l 324 700 b 67 454 139 700 67 603 l 67 239 b 324 -7 67 92 139 -7 z m 335 175 b 269 243 300 175 269 193 l 269 451 b 335 519 269 500 300 519 l 406 519 b 469 451 440 519 469 500 l 469 243 b 406 175 469 193 440 175 z "},"ø":{"ha":739,"x_min":0,"x_max":0,"o":"m 607 640 l 631 685 b 617 708 639 701 631 708 l 503 708 b 479 696 493 708 486 704 b 415 700 460 699 439 700 l 324 700 b 67 454 139 700 67 603 l 67 239 b 135 53 67 160 88 96 l 108 3 b 122 -21 100 -14 108 -21 l 236 -21 b 263 -3 247 -21 256 -15 b 324 -7 282 -6 301 -7 l 415 -7 b 674 239 601 -7 674 92 l 674 454 b 607 640 674 532 653 597 z m 269 451 b 335 519 269 500 300 519 l 385 519 l 269 304 z m 406 175 l 358 175 l 469 383 l 469 243 b 406 175 469 193 440 175 z "},"õ":{"ha":739,"x_min":0,"x_max":0,"o":"m 460 751 b 607 801 508 751 553 760 b 621 836 618 811 626 819 l 576 949 b 550 956 572 956 563 963 b 463 928 514 938 500 928 b 283 979 397 928 382 979 b 136 929 235 979 190 971 b 122 894 125 919 117 911 l 167 782 b 196 776 171 775 181 768 b 281 803 228 796 243 803 b 460 751 346 803 361 751 z m 324 -7 l 415 -7 b 674 239 601 -7 674 92 l 674 454 b 415 700 674 603 600 700 l 324 700 b 67 454 139 700 67 603 l 67 239 b 324 -7 67 92 139 -7 z m 335 175 b 269 243 300 175 269 193 l 269 451 b 335 519 269 500 300 519 l 406 519 b 469 451 440 519 469 500 l 469 243 b 406 175 469 193 440 175 z "},"œ":{"ha":1126,"x_min":0,"x_max":0,"o":"m 803 700 l 728 700 b 571 665 661 700 610 688 b 415 700 532 688 481 700 l 324 700 b 67 454 139 700 67 603 l 67 239 b 324 -7 67 92 139 -7 l 415 -7 b 578 31 485 -7 538 7 b 767 -7 622 7 685 -7 l 789 -7 b 1035 82 883 -7 982 29 b 1033 108 1042 89 1042 97 l 986 182 b 956 193 978 194 967 197 b 789 165 917 178 881 165 l 772 165 b 674 239 706 165 674 197 l 674 267 l 1019 267 b 1060 307 1047 267 1060 281 l 1060 454 b 803 700 1060 603 988 700 z m 406 175 l 335 175 b 269 243 300 175 269 193 l 269 451 b 335 519 269 500 300 519 l 406 519 b 469 451 440 519 469 500 l 469 243 b 406 175 469 193 440 175 z m 857 414 l 674 414 l 674 453 b 738 519 674 501 701 519 l 792 519 b 857 453 826 519 857 500 z "},"p":{"ha":753,"x_min":0,"x_max":0,"o":"m 458 700 l 449 700 b 301 636 372 700 333 672 l 283 636 l 283 672 b 261 694 283 688 275 694 l 103 694 b 81 672 89 694 81 688 l 81 -224 b 103 -246 81 -239 89 -246 l 261 -246 b 283 -224 275 -246 283 -239 l 283 57 l 301 57 b 449 -7 333 21 372 -7 l 458 -7 b 688 228 617 -7 688 79 l 688 465 b 458 700 688 615 617 700 z m 483 246 b 419 175 483 200 453 175 l 350 175 b 283 247 314 175 283 199 l 283 446 b 350 519 283 496 314 519 l 419 519 b 483 447 453 519 483 494 z "},"þ":{"ha":753,"x_min":0,"x_max":0,"o":"m 458 700 l 449 700 b 301 636 372 700 333 672 l 283 636 l 283 950 b 261 972 283 965 275 972 l 103 972 b 81 950 89 972 81 965 l 81 -224 b 103 -246 81 -239 89 -246 l 261 -246 b 283 -224 275 -246 283 -239 l 283 57 l 301 57 b 449 -7 333 21 372 -7 l 458 -7 b 688 228 617 -7 688 79 l 688 465 b 458 700 688 615 617 700 z m 483 246 b 419 175 483 200 453 175 l 350 175 b 283 247 314 175 283 199 l 283 446 b 350 519 283 496 314 519 l 419 519 b 483 447 453 519 483 494 z "},"q":{"ha":753,"x_min":0,"x_max":0,"o":"m 296 700 b 67 465 136 700 67 615 l 67 228 b 296 -7 67 79 136 -7 l 304 -7 b 453 57 382 -7 421 21 l 469 57 l 469 -224 b 493 -246 469 -239 478 -246 l 650 -246 b 674 -224 665 -246 674 -239 l 674 672 b 650 694 674 688 665 694 l 493 694 b 469 672 478 694 469 688 l 469 636 l 453 636 b 304 700 421 672 382 700 z m 269 246 l 269 447 b 335 519 269 494 301 519 l 404 519 b 469 446 440 519 469 496 l 469 247 b 404 175 469 199 440 175 l 335 175 b 269 246 301 175 269 200 z "},"r":{"ha":700,"x_min":0,"x_max":0,"o":"m 103 0 l 263 0 b 283 24 271 0 283 8 l 283 444 b 363 519 283 496 318 519 l 394 519 b 472 438 446 519 472 492 b 496 413 472 422 481 413 l 633 413 b 656 438 644 413 656 422 l 656 489 b 468 700 656 629 610 700 l 463 700 b 306 626 389 700 335 672 l 283 626 l 283 672 b 263 694 283 688 271 694 l 103 694 b 81 672 89 694 81 688 l 81 24 b 103 0 81 8 89 0 z "},"ŕ":{"ha":700,"x_min":0,"x_max":0,"o":"m 360 947 l 299 788 b 313 763 292 771 297 763 l 447 763 b 483 788 461 763 475 775 l 606 947 b 592 972 618 963 607 972 l 389 972 b 360 947 375 972 368 964 z m 103 0 l 263 0 b 283 24 271 0 283 8 l 283 444 b 363 519 283 496 318 519 l 394 519 b 472 438 446 519 472 492 b 496 413 472 422 481 413 l 633 413 b 656 438 644 413 656 422 l 656 489 b 468 700 656 629 610 700 l 463 700 b 306 626 389 700 335 672 l 283 626 l 283 672 b 263 694 283 688 271 694 l 103 694 b 81 672 89 694 81 688 l 81 24 b 103 0 81 8 89 0 z "},"ř":{"ha":700,"x_min":0,"x_max":0,"o":"m 285 761 l 456 761 b 494 782 471 761 485 771 l 636 944 b 624 972 649 957 638 972 l 472 972 b 426 943 450 972 439 960 l 378 885 l 364 885 l 315 943 b 268 972 301 960 290 972 l 117 972 b 104 944 103 972 93 957 l 246 782 b 285 761 257 768 269 761 z m 103 0 l 263 0 b 283 24 271 0 283 8 l 283 444 b 363 519 283 496 318 519 l 394 519 b 472 438 446 519 472 492 b 496 413 472 422 481 413 l 633 413 b 656 438 644 413 656 422 l 656 489 b 468 700 656 629 610 700 l 463 700 b 306 626 389 700 335 672 l 283 626 l 283 672 b 263 694 283 688 271 694 l 103 694 b 81 672 89 694 81 688 l 81 24 b 103 0 81 8 89 0 z "},"ŗ":{"ha":700,"x_min":0,"x_max":0,"o":"m 103 0 l 263 0 b 283 24 271 0 283 8 l 283 444 b 363 519 283 496 318 519 l 394 519 b 472 438 446 519 472 492 b 496 413 472 422 481 413 l 633 413 b 656 438 644 413 656 422 l 656 489 b 468 700 656 629 610 700 l 463 700 b 306 626 389 700 335 672 l 283 626 l 283 672 b 263 694 283 688 271 694 l 103 694 b 81 672 89 694 81 688 l 81 24 b 103 0 81 8 89 0 z m 247 -83 l 114 -83 b 92 -106 100 -83 92 -92 l 92 -360 l 24 -360 b 1 -382 10 -360 1 -368 l 1 -507 b 24 -529 1 -521 10 -529 l 213 -529 b 269 -474 249 -529 269 -510 l 269 -106 b 247 -83 269 -92 261 -83 z "},"s":{"ha":704,"x_min":0,"x_max":0,"o":"m 315 -7 l 379 -7 b 646 215 565 -7 646 61 b 392 426 646 356 588 406 l 326 433 b 263 486 264 440 263 468 b 310 528 263 510 275 528 l 369 528 b 431 486 406 528 424 511 b 468 464 433 469 450 464 l 606 464 b 631 488 624 464 631 472 b 396 700 631 621 538 700 l 303 700 b 58 481 156 700 58 640 b 310 265 58 365 106 288 l 376 258 b 442 207 443 253 442 228 b 379 165 442 190 433 165 l 333 165 b 263 204 294 165 275 174 b 236 222 260 215 253 222 l 82 222 b 60 192 68 222 60 211 b 315 -7 60 60 149 -7 z "},"ś":{"ha":704,"x_min":0,"x_max":0,"o":"m 335 947 l 274 788 b 288 763 267 771 272 763 l 422 763 b 458 788 436 763 450 775 l 581 947 b 567 972 593 963 582 972 l 364 972 b 335 947 350 972 343 964 z m 315 -7 l 379 -7 b 646 215 565 -7 646 61 b 392 426 646 356 588 406 l 326 433 b 263 486 264 440 263 468 b 310 528 263 510 275 528 l 369 528 b 431 486 406 528 424 511 b 468 464 433 469 450 464 l 606 464 b 631 488 624 464 631 472 b 396 700 631 621 538 700 l 303 700 b 58 481 156 700 58 640 b 310 265 58 365 106 288 l 376 258 b 442 207 443 253 442 228 b 379 165 442 190 433 165 l 333 165 b 263 204 294 165 275 174 b 236 222 260 215 253 222 l 82 222 b 60 192 68 222 60 211 b 315 -7 60 60 149 -7 z "},"š":{"ha":704,"x_min":0,"x_max":0,"o":"m 261 761 l 432 761 b 471 782 447 761 461 771 l 613 944 b 600 972 625 957 614 972 l 449 972 b 403 943 426 972 415 960 l 354 885 l 340 885 l 292 943 b 244 972 278 960 267 972 l 93 972 b 81 944 79 972 69 957 l 222 782 b 261 761 233 768 246 761 z m 315 -7 l 379 -7 b 646 215 565 -7 646 61 b 392 426 646 356 588 406 l 326 433 b 263 486 264 440 263 468 b 310 528 263 510 275 528 l 369 528 b 431 486 406 528 424 511 b 468 464 433 469 450 464 l 606 464 b 631 488 624 464 631 472 b 396 700 631 621 538 700 l 303 700 b 58 481 156 700 58 640 b 310 265 58 365 106 288 l 376 258 b 442 207 443 253 442 228 b 379 165 442 190 433 165 l 333 165 b 263 204 294 165 275 174 b 236 222 260 215 253 222 l 82 222 b 60 192 68 222 60 211 b 315 -7 60 60 149 -7 z "},"ş":{"ha":704,"x_min":0,"x_max":0,"o":"m 488 -32 b 493 0 460 -31 425 -25 l 471 0 b 646 215 592 21 646 89 b 392 426 646 356 588 406 l 326 433 b 263 486 264 440 263 468 b 310 528 263 510 275 528 l 369 528 b 431 486 406 528 424 511 b 468 464 433 469 450 464 l 606 464 b 631 488 624 464 631 472 b 396 700 631 621 538 700 l 303 700 b 58 481 156 700 58 640 b 310 265 58 365 106 288 l 376 258 b 442 207 443 253 442 228 b 379 165 442 190 433 165 l 333 165 b 263 204 294 165 275 174 b 236 222 260 215 253 222 l 82 222 b 60 192 68 222 60 211 b 311 -7 60 61 147 -6 b 254 -82 271 -43 254 -56 b 310 -132 254 -117 279 -129 b 453 -162 435 -143 453 -146 b 419 -176 453 -174 436 -176 l 393 -176 b 365 -169 382 -176 371 -169 b 349 -154 363 -160 358 -154 l 226 -154 b 211 -174 214 -154 211 -161 b 335 -289 211 -242 243 -289 l 464 -289 b 606 -160 556 -289 606 -240 b 488 -32 606 -75 588 -42 z "},"ŝ":{"ha":704,"x_min":0,"x_max":0,"o":"m 265 972 b 226 953 250 972 238 967 l 85 790 b 97 761 74 776 83 761 l 249 761 b 296 790 271 761 282 775 l 344 849 l 358 849 l 407 790 b 453 761 419 775 431 761 l 604 761 b 617 790 618 761 629 776 l 475 953 b 436 972 465 964 451 972 z m 315 -7 l 379 -7 b 646 215 565 -7 646 61 b 392 426 646 356 588 406 l 326 433 b 263 486 264 440 263 468 b 310 528 263 510 275 528 l 369 528 b 431 486 406 528 424 511 b 468 464 433 469 450 464 l 606 464 b 631 488 624 464 631 472 b 396 700 631 621 538 700 l 303 700 b 58 481 156 700 58 640 b 310 265 58 365 106 288 l 376 258 b 442 207 443 253 442 228 b 379 165 442 190 433 165 l 333 165 b 263 204 294 165 275 174 b 236 222 260 215 253 222 l 82 222 b 60 192 68 222 60 211 b 315 -7 60 60 149 -7 z "},"ș":{"ha":704,"x_min":0,"x_max":0,"o":"m 315 -7 l 379 -7 b 646 215 565 -7 646 61 b 392 426 646 356 588 406 l 326 433 b 263 486 264 440 263 468 b 310 528 263 510 275 528 l 369 528 b 431 486 406 528 424 511 b 468 464 433 469 450 464 l 606 464 b 631 488 624 464 631 472 b 396 700 631 621 538 700 l 303 700 b 58 481 156 700 58 640 b 310 265 58 365 106 288 l 376 258 b 442 207 443 253 442 228 b 379 165 442 190 433 165 l 333 165 b 263 204 294 165 275 174 b 236 222 260 215 253 222 l 82 222 b 60 192 68 222 60 211 b 315 -7 60 60 149 -7 z m 411 -83 l 278 -83 b 256 -106 264 -83 256 -92 l 256 -360 l 188 -360 b 165 -382 174 -360 165 -368 l 165 -507 b 188 -529 165 -521 174 -529 l 376 -529 b 433 -474 413 -529 433 -510 l 433 -106 b 411 -83 433 -92 425 -83 z "},"ß":{"ha":842,"x_min":0,"x_max":0,"o":"m 103 0 l 261 0 b 283 24 275 0 283 8 l 283 729 b 349 799 283 779 313 799 l 468 799 b 532 729 504 799 532 779 l 532 667 b 468 611 532 625 522 611 l 435 611 b 410 586 418 611 410 603 l 410 456 b 435 431 410 439 418 431 l 468 431 b 572 328 563 431 572 389 l 572 264 b 464 181 572 183 542 181 l 435 181 b 410 156 418 181 410 172 l 410 25 b 435 0 410 8 418 0 l 464 0 b 776 264 683 0 776 40 l 776 328 b 633 514 776 431 728 497 l 633 532 b 736 667 728 551 736 626 l 736 733 b 478 979 736 881 675 979 l 338 979 b 81 733 142 979 81 881 l 81 24 b 103 0 81 8 89 0 z "},"t":{"ha":536,"x_min":0,"x_max":0,"o":"m 460 694 l 354 694 l 354 836 b 331 860 354 851 346 860 l 174 860 b 150 836 158 860 150 851 l 150 694 l 64 694 b 39 669 46 694 39 686 l 39 540 b 64 515 39 524 46 515 l 150 515 l 150 250 b 371 -7 150 106 165 -7 b 471 50 449 -7 471 11 l 471 131 b 429 171 471 158 460 171 b 354 242 379 171 354 190 l 354 515 l 460 515 b 485 540 476 515 485 524 l 485 669 b 460 694 485 686 476 694 z "},"ŧ":{"ha":536,"x_min":0,"x_max":0,"o":"m 460 515 b 485 540 476 515 485 524 l 485 669 b 460 694 485 686 476 694 l 354 694 l 354 836 b 331 860 354 851 346 860 l 174 860 b 150 836 158 860 150 851 l 150 694 l 64 694 b 39 669 46 694 39 686 l 39 540 b 64 515 39 524 46 515 l 150 515 l 150 451 l 64 451 b 39 426 46 451 39 443 l 39 297 b 64 272 39 281 46 272 l 150 272 l 150 250 b 371 -7 150 106 165 -7 b 471 50 449 -7 471 11 l 471 131 b 429 171 471 158 460 171 b 354 242 379 171 354 190 l 354 272 l 460 272 b 485 297 476 272 485 281 l 485 426 b 460 451 485 443 476 451 l 354 451 l 354 515 z "},"ť":{"ha":525,"x_min":0,"x_max":0,"o":"m 644 1192 l 511 1192 b 489 1169 497 1192 489 1183 l 489 915 l 422 915 b 400 893 408 915 400 907 l 400 768 b 422 746 400 754 408 746 l 611 746 b 667 801 647 746 667 765 l 667 1169 b 644 1192 667 1183 658 1192 z m 460 694 l 354 694 l 354 836 b 331 860 354 851 346 860 l 174 860 b 150 836 158 860 150 851 l 150 694 l 64 694 b 39 669 46 694 39 686 l 39 540 b 64 515 39 524 46 515 l 150 515 l 150 250 b 371 -7 150 106 165 -7 b 471 50 449 -7 471 11 l 471 131 b 429 171 471 158 460 171 b 354 242 379 171 354 190 l 354 515 l 460 515 b 485 540 476 515 485 524 l 485 669 b 460 694 485 686 476 694 z "},"ţ":{"ha":517,"x_min":0,"x_max":0,"o":"m 432 -26 b 414 -4 408 -25 379 -21 b 471 50 457 1 471 19 l 471 131 b 429 171 471 158 460 171 b 354 242 379 171 354 190 l 354 515 l 460 515 b 485 540 476 515 485 524 l 485 669 b 460 694 485 686 476 694 l 354 694 l 354 836 b 331 860 354 851 346 860 l 174 860 b 150 836 158 860 150 851 l 150 694 l 64 694 b 39 669 46 694 39 686 l 39 540 b 64 515 39 524 46 515 l 150 515 l 150 250 b 269 6 150 135 160 39 l 263 6 b 199 -76 218 -36 199 -49 b 254 -126 199 -111 224 -124 b 397 -157 379 -137 397 -140 b 364 -171 397 -168 381 -171 l 338 -171 b 310 -164 326 -171 315 -164 b 293 -149 307 -154 303 -149 l 171 -149 b 156 -168 158 -149 156 -156 b 279 -283 156 -236 188 -283 l 408 -283 b 550 -154 500 -283 550 -235 b 432 -26 550 -69 532 -36 z "},"ț":{"ha":536,"x_min":0,"x_max":0,"o":"m 460 694 l 354 694 l 354 836 b 331 860 354 851 346 860 l 174 860 b 150 836 158 860 150 851 l 150 694 l 64 694 b 39 669 46 694 39 686 l 39 540 b 64 515 39 524 46 515 l 150 515 l 150 250 b 371 -7 150 106 165 -7 b 471 50 449 -7 471 11 l 471 131 b 429 171 471 158 460 171 b 354 242 379 171 354 190 l 354 515 l 460 515 b 485 540 476 515 485 524 l 485 669 b 460 694 485 686 476 694 z m 361 -83 l 228 -83 b 206 -106 214 -83 206 -92 l 206 -360 l 138 -360 b 115 -382 124 -360 115 -368 l 115 -507 b 138 -529 115 -521 124 -529 l 326 -529 b 383 -474 363 -529 383 -510 l 383 -106 b 361 -83 383 -92 375 -83 z "},"u":{"ha":767,"x_min":0,"x_max":0,"o":"m 664 694 l 504 694 b 483 672 496 694 483 688 l 483 250 b 413 176 483 200 451 176 l 346 176 b 283 250 311 176 283 201 l 283 672 b 261 694 283 688 275 694 l 101 694 b 81 672 93 694 81 688 l 81 229 b 293 -6 81 81 138 -6 l 304 -6 b 461 69 376 -6 433 22 l 483 69 l 483 24 b 504 0 483 8 496 0 l 664 0 b 688 24 679 0 688 8 l 688 672 b 664 694 688 688 679 694 z "},"ú":{"ha":767,"x_min":0,"x_max":0,"o":"m 365 947 l 304 788 b 318 763 297 771 303 763 l 453 763 b 489 788 467 763 481 775 l 611 947 b 597 972 624 963 613 972 l 394 972 b 365 947 381 972 374 964 z m 664 694 l 504 694 b 483 672 496 694 483 688 l 483 250 b 413 176 483 200 451 176 l 346 176 b 283 250 311 176 283 201 l 283 672 b 261 694 283 688 275 694 l 101 694 b 81 672 93 694 81 688 l 81 229 b 293 -6 81 81 138 -6 l 304 -6 b 461 69 376 -6 433 22 l 483 69 l 483 24 b 504 0 483 8 496 0 l 664 0 b 688 24 679 0 688 8 l 688 672 b 664 694 688 688 679 694 z "},"ŭ":{"ha":767,"x_min":0,"x_max":0,"o":"m 328 740 l 424 740 b 625 949 563 740 625 808 b 603 972 625 964 617 972 l 482 972 b 460 949 468 972 463 964 b 392 878 454 914 447 878 l 358 878 b 290 949 303 878 296 914 b 268 972 289 964 282 972 l 147 972 b 125 949 133 972 125 964 b 328 740 125 808 188 740 z m 664 694 l 504 694 b 483 672 496 694 483 688 l 483 250 b 413 176 483 200 451 176 l 346 176 b 283 250 311 176 283 201 l 283 672 b 261 694 283 688 275 694 l 101 694 b 81 672 93 694 81 688 l 81 229 b 293 -6 81 81 138 -6 l 304 -6 b 461 69 376 -6 433 22 l 483 69 l 483 24 b 504 0 483 8 496 0 l 664 0 b 688 24 679 0 688 8 l 688 672 b 664 694 688 688 679 694 z "},"ǔ":{"ha":767,"x_min":0,"x_max":0,"o":"m 290 761 l 461 761 b 500 782 476 761 490 771 l 642 944 b 629 972 654 957 643 972 l 478 972 b 432 943 456 972 444 960 l 383 885 l 369 885 l 321 943 b 274 972 307 960 296 972 l 122 972 b 110 944 108 972 99 957 l 251 782 b 290 761 263 768 275 761 z m 664 694 l 504 694 b 483 672 496 694 483 688 l 483 250 b 413 176 483 200 451 176 l 346 176 b 283 250 311 176 283 201 l 283 672 b 261 694 283 688 275 694 l 101 694 b 81 672 93 694 81 688 l 81 229 b 293 -6 81 81 138 -6 l 304 -6 b 461 69 376 -6 433 22 l 483 69 l 483 24 b 504 0 483 8 496 0 l 664 0 b 688 24 679 0 688 8 l 688 672 b 664 694 688 688 679 694 z "},"û":{"ha":767,"x_min":0,"x_max":0,"o":"m 294 972 b 256 953 279 972 267 967 l 114 790 b 126 761 103 776 113 761 l 278 761 b 325 790 300 761 311 775 l 374 849 l 388 849 l 436 790 b 482 761 449 775 460 761 l 633 761 b 646 790 647 761 658 776 l 504 953 b 465 972 494 964 481 972 z m 664 694 l 504 694 b 483 672 496 694 483 688 l 483 250 b 413 176 483 200 451 176 l 346 176 b 283 250 311 176 283 201 l 283 672 b 261 694 283 688 275 694 l 101 694 b 81 672 93 694 81 688 l 81 229 b 293 -6 81 81 138 -6 l 304 -6 b 461 69 376 -6 433 22 l 483 69 l 483 24 b 504 0 483 8 496 0 l 664 0 b 688 24 679 0 688 8 l 688 672 b 664 694 688 688 679 694 z "},"ü":{"ha":767,"x_min":0,"x_max":0,"o":"m 89 765 l 251 765 b 274 788 265 765 274 774 l 274 950 b 251 972 274 964 265 972 l 89 972 b 67 950 75 972 67 964 l 67 788 b 89 765 67 774 75 765 z m 500 765 l 663 765 b 685 788 676 765 685 774 l 685 950 b 663 972 685 964 676 972 l 500 972 b 478 950 486 972 478 964 l 478 788 b 500 765 478 774 486 765 z m 664 694 l 504 694 b 483 672 496 694 483 688 l 483 250 b 413 176 483 200 451 176 l 346 176 b 283 250 311 176 283 201 l 283 672 b 261 694 283 688 275 694 l 101 694 b 81 672 93 694 81 688 l 81 229 b 293 -6 81 81 138 -6 l 304 -6 b 461 69 376 -6 433 22 l 483 69 l 483 24 b 504 0 483 8 496 0 l 664 0 b 688 24 679 0 688 8 l 688 672 b 664 694 688 688 679 694 z "},"ù":{"ha":767,"x_min":0,"x_max":0,"o":"m 397 947 b 368 972 389 964 382 972 l 165 972 b 151 947 150 972 139 963 l 274 788 b 310 763 282 775 296 763 l 444 763 b 458 788 460 763 465 771 z m 664 694 l 504 694 b 483 672 496 694 483 688 l 483 250 b 413 176 483 200 451 176 l 346 176 b 283 250 311 176 283 201 l 283 672 b 261 694 283 688 275 694 l 101 694 b 81 672 93 694 81 688 l 81 229 b 293 -6 81 81 138 -6 l 304 -6 b 461 69 376 -6 433 22 l 483 69 l 483 24 b 504 0 483 8 496 0 l 664 0 b 688 24 679 0 688 8 l 688 672 b 664 694 688 688 679 694 z "},"ű":{"ha":767,"x_min":0,"x_max":0,"o":"m 204 947 l 143 788 b 157 763 136 771 142 763 l 292 763 b 328 788 306 763 319 775 l 450 947 b 436 972 463 963 451 972 l 233 972 b 204 947 219 972 213 964 z m 504 947 l 443 788 b 457 763 436 771 442 763 l 592 763 b 628 788 606 763 619 775 l 750 947 b 736 972 763 963 751 972 l 533 972 b 504 947 519 972 513 964 z m 664 694 l 504 694 b 483 672 496 694 483 688 l 483 250 b 413 176 483 200 451 176 l 346 176 b 283 250 311 176 283 201 l 283 672 b 261 694 283 688 275 694 l 101 694 b 81 672 93 694 81 688 l 81 229 b 293 -6 81 81 138 -6 l 304 -6 b 461 69 376 -6 433 22 l 483 69 l 483 24 b 504 0 483 8 496 0 l 664 0 b 688 24 679 0 688 8 l 688 672 b 664 694 688 688 679 694 z "},"ū":{"ha":767,"x_min":0,"x_max":0,"o":"m 151 792 l 601 792 b 622 813 614 792 622 799 l 622 951 b 601 972 622 965 614 972 l 151 972 b 131 951 138 972 131 965 l 131 813 b 151 792 131 799 138 792 z m 664 694 l 504 694 b 483 672 496 694 483 688 l 483 250 b 413 176 483 200 451 176 l 346 176 b 283 250 311 176 283 201 l 283 672 b 261 694 283 688 275 694 l 101 694 b 81 672 93 694 81 688 l 81 229 b 293 -6 81 81 138 -6 l 304 -6 b 461 69 376 -6 433 22 l 483 69 l 483 24 b 504 0 483 8 496 0 l 664 0 b 688 24 679 0 688 8 l 688 672 b 664 694 688 688 679 694 z "},"ų":{"ha":767,"x_min":0,"x_max":0,"o":"m 664 694 l 504 694 b 483 672 496 694 483 688 l 483 250 b 413 176 483 200 451 176 l 346 176 b 283 250 311 176 283 201 l 283 672 b 261 694 283 688 275 694 l 101 694 b 81 672 93 694 81 688 l 81 229 b 293 -6 81 81 138 -6 l 304 -6 b 461 69 376 -6 433 22 l 483 69 l 483 28 l 467 28 l 467 4 b 418 -31 467 -32 447 -28 l 369 -35 b 274 -158 294 -43 274 -64 b 422 -289 274 -271 307 -289 l 633 -289 b 647 -275 643 -289 647 -283 l 647 -176 b 633 -158 647 -167 642 -158 l 460 -158 b 456 -156 458 -158 456 -156 b 467 -146 456 -151 457 -147 l 561 -135 b 671 -53 632 -125 671 -124 l 671 0 b 688 24 682 3 688 11 l 688 672 b 664 694 688 688 679 694 z "},"ů":{"ha":767,"x_min":0,"x_max":0,"o":"m 385 994 l 367 994 b 250 878 299 994 250 943 l 250 863 b 367 747 250 797 299 747 l 385 747 b 501 863 453 747 501 797 l 501 878 b 385 994 501 943 453 994 z m 400 876 l 400 868 b 382 850 400 860 392 850 l 369 850 b 354 868 363 850 354 860 l 354 876 b 369 893 354 883 363 893 l 382 893 b 400 876 392 893 400 883 z m 664 694 l 504 694 b 483 672 496 694 483 688 l 483 250 b 413 176 483 200 451 176 l 346 176 b 283 250 311 176 283 201 l 283 672 b 261 694 283 688 275 694 l 101 694 b 81 672 93 694 81 688 l 81 229 b 293 -6 81 81 138 -6 l 304 -6 b 461 69 376 -6 433 22 l 483 69 l 483 24 b 504 0 483 8 496 0 l 664 0 b 688 24 679 0 688 8 l 688 672 b 664 694 688 688 679 694 z "},"ũ":{"ha":767,"x_min":0,"x_max":0,"o":"m 465 751 b 613 801 514 751 558 760 b 626 836 624 811 632 819 l 582 949 b 556 956 578 956 568 963 b 468 928 519 938 506 928 b 289 979 403 928 388 979 b 142 929 240 979 196 971 b 128 894 131 919 122 911 l 172 782 b 201 776 176 775 186 768 b 286 803 233 796 249 803 b 465 751 351 803 367 751 z m 664 694 l 504 694 b 483 672 496 694 483 688 l 483 250 b 413 176 483 200 451 176 l 346 176 b 283 250 311 176 283 201 l 283 672 b 261 694 283 688 275 694 l 101 694 b 81 672 93 694 81 688 l 81 229 b 293 -6 81 81 138 -6 l 304 -6 b 461 69 376 -6 433 22 l 483 69 l 483 24 b 504 0 483 8 496 0 l 664 0 b 688 24 679 0 688 8 l 688 672 b 664 694 688 688 679 694 z "},"v":{"ha":765,"x_min":0,"x_max":0,"o":"m 260 0 l 506 0 b 542 31 524 0 536 10 l 719 669 b 700 694 724 686 714 694 l 542 694 b 515 669 528 694 519 686 l 389 190 l 376 190 l 251 669 b 225 694 247 686 238 694 l 67 694 b 47 669 53 694 43 686 l 224 31 b 260 0 229 10 243 0 z "},"w":{"ha":1121,"x_min":0,"x_max":0,"o":"m 221 0 l 451 0 b 488 31 469 0 483 10 l 556 376 l 565 376 l 633 31 b 669 0 638 10 653 0 l 901 0 b 938 31 918 0 933 10 l 1076 669 b 1058 694 1079 686 1072 694 l 903 694 b 876 669 889 694 879 686 l 783 189 l 774 189 l 671 669 b 643 694 667 686 657 694 l 478 694 b 451 669 464 694 456 686 l 347 189 l 338 189 l 246 669 b 218 694 243 686 232 694 l 64 694 b 44 669 50 694 42 686 l 185 31 b 221 0 189 10 203 0 z "},"ẃ":{"ha":1121,"x_min":0,"x_max":0,"o":"m 550 947 l 489 788 b 503 763 482 771 488 763 l 638 763 b 674 788 651 763 665 775 l 796 947 b 782 972 808 963 797 972 l 579 972 b 550 947 565 972 558 964 z m 221 0 l 451 0 b 488 31 469 0 483 10 l 556 376 l 565 376 l 633 31 b 669 0 638 10 653 0 l 901 0 b 938 31 918 0 933 10 l 1076 669 b 1058 694 1079 686 1072 694 l 903 694 b 876 669 889 694 879 686 l 783 189 l 774 189 l 671 669 b 643 694 667 686 657 694 l 478 694 b 451 669 464 694 456 686 l 347 189 l 338 189 l 246 669 b 218 694 243 686 232 694 l 64 694 b 44 669 50 694 42 686 l 185 31 b 221 0 189 10 203 0 z "},"ŵ":{"ha":1121,"x_min":0,"x_max":0,"o":"m 479 972 b 440 953 464 972 451 967 l 299 790 b 311 761 288 776 297 761 l 463 761 b 510 790 485 761 496 775 l 558 849 l 572 849 l 621 790 b 667 761 633 775 644 761 l 818 761 b 831 790 832 761 843 776 l 689 953 b 650 972 679 964 665 972 z m 221 0 l 451 0 b 488 31 469 0 483 10 l 556 376 l 565 376 l 633 31 b 669 0 638 10 653 0 l 901 0 b 938 31 918 0 933 10 l 1076 669 b 1058 694 1079 686 1072 694 l 903 694 b 876 669 889 694 879 686 l 783 189 l 774 189 l 671 669 b 643 694 667 686 657 694 l 478 694 b 451 669 464 694 456 686 l 347 189 l 338 189 l 246 669 b 218 694 243 686 232 694 l 64 694 b 44 669 50 694 42 686 l 185 31 b 221 0 189 10 203 0 z "},"ẅ":{"ha":1121,"x_min":0,"x_max":0,"o":"m 274 765 l 436 765 b 458 788 450 765 458 774 l 458 950 b 436 972 458 964 450 972 l 274 972 b 251 950 260 972 251 964 l 251 788 b 274 765 251 774 260 765 z m 685 765 l 847 765 b 869 788 861 765 869 774 l 869 950 b 847 972 869 964 861 972 l 685 972 b 663 950 671 972 663 964 l 663 788 b 685 765 663 774 671 765 z m 221 0 l 451 0 b 488 31 469 0 483 10 l 556 376 l 565 376 l 633 31 b 669 0 638 10 653 0 l 901 0 b 938 31 918 0 933 10 l 1076 669 b 1058 694 1079 686 1072 694 l 903 694 b 876 669 889 694 879 686 l 783 189 l 774 189 l 671 669 b 643 694 667 686 657 694 l 478 694 b 451 669 464 694 456 686 l 347 189 l 338 189 l 246 669 b 218 694 243 686 232 694 l 64 694 b 44 669 50 694 42 686 l 185 31 b 221 0 189 10 203 0 z "},"ẁ":{"ha":1121,"x_min":0,"x_max":0,"o":"m 582 947 b 553 972 574 964 567 972 l 350 972 b 336 947 335 972 324 963 l 458 788 b 494 763 467 775 481 763 l 629 763 b 643 788 644 763 650 771 z m 221 0 l 451 0 b 488 31 469 0 483 10 l 556 376 l 565 376 l 633 31 b 669 0 638 10 653 0 l 901 0 b 938 31 918 0 933 10 l 1076 669 b 1058 694 1079 686 1072 694 l 903 694 b 876 669 889 694 879 686 l 783 189 l 774 189 l 671 669 b 643 694 667 686 657 694 l 478 694 b 451 669 464 694 456 686 l 347 189 l 338 189 l 246 669 b 218 694 243 686 232 694 l 64 694 b 44 669 50 694 42 686 l 185 31 b 221 0 189 10 203 0 z "},"x":{"ha":694,"x_min":0,"x_max":0,"o":"m 68 0 l 231 0 b 264 28 242 0 253 4 l 342 178 l 353 178 l 428 28 b 463 0 440 4 451 0 l 626 0 b 642 29 644 0 651 14 l 469 346 l 647 665 b 632 694 656 681 649 694 l 471 694 b 435 667 458 694 447 690 l 353 510 l 342 510 l 260 667 b 224 694 247 690 236 694 l 63 694 b 47 665 46 694 39 681 l 225 346 l 53 29 b 68 0 43 14 50 0 z "},"y":{"ha":796,"x_min":0,"x_max":0,"o":"m 731 694 l 574 694 b 547 671 560 694 553 686 l 406 247 l 393 247 l 250 671 b 224 694 244 686 238 694 l 67 694 b 47 669 53 694 40 686 l 297 -10 l 219 -221 b 238 -246 213 -239 224 -246 l 394 -246 b 424 -221 410 -246 417 -239 l 750 669 b 731 694 756 686 744 694 z "},"ý":{"ha":796,"x_min":0,"x_max":0,"o":"m 389 947 l 328 788 b 342 763 321 771 326 763 l 476 763 b 513 788 490 763 504 775 l 635 947 b 621 972 647 963 636 972 l 418 972 b 389 947 404 972 397 964 z m 731 694 l 574 694 b 547 671 560 694 553 686 l 406 247 l 393 247 l 250 671 b 224 694 244 686 238 694 l 67 694 b 47 669 53 694 40 686 l 297 -10 l 219 -221 b 238 -246 213 -239 224 -246 l 394 -246 b 424 -221 410 -246 417 -239 l 750 669 b 731 694 756 686 744 694 z "},"ŷ":{"ha":796,"x_min":0,"x_max":0,"o":"m 318 972 b 279 953 303 972 290 967 l 138 790 b 150 761 126 776 136 761 l 301 761 b 349 790 324 761 335 775 l 397 849 l 411 849 l 460 790 b 506 761 472 775 483 761 l 657 761 b 669 790 671 761 682 776 l 528 953 b 489 972 518 964 504 972 z m 731 694 l 574 694 b 547 671 560 694 553 686 l 406 247 l 393 247 l 250 671 b 224 694 244 686 238 694 l 67 694 b 47 669 53 694 40 686 l 297 -10 l 219 -221 b 238 -246 213 -239 224 -246 l 394 -246 b 424 -221 410 -246 417 -239 l 750 669 b 731 694 756 686 744 694 z "},"ÿ":{"ha":796,"x_min":0,"x_max":0,"o":"m 113 765 l 275 765 b 297 788 289 765 297 774 l 297 950 b 275 972 297 964 289 972 l 113 972 b 90 950 99 972 90 964 l 90 788 b 113 765 90 774 99 765 z m 524 765 l 686 765 b 708 788 700 765 708 774 l 708 950 b 686 972 708 964 700 972 l 524 972 b 501 950 510 972 501 964 l 501 788 b 524 765 501 774 510 765 z m 731 694 l 574 694 b 547 671 560 694 553 686 l 406 247 l 393 247 l 250 671 b 224 694 244 686 238 694 l 67 694 b 47 669 53 694 40 686 l 297 -10 l 219 -221 b 238 -246 213 -239 224 -246 l 394 -246 b 424 -221 410 -246 417 -239 l 750 669 b 731 694 756 686 744 694 z "},"ỳ":{"ha":796,"x_min":0,"x_max":0,"o":"m 421 947 b 392 972 413 964 406 972 l 189 972 b 175 947 174 972 163 963 l 297 788 b 333 763 306 775 319 763 l 468 763 b 482 788 483 763 489 771 z m 731 694 l 574 694 b 547 671 560 694 553 686 l 406 247 l 393 247 l 250 671 b 224 694 244 686 238 694 l 67 694 b 47 669 53 694 40 686 l 297 -10 l 219 -221 b 238 -246 213 -239 224 -246 l 394 -246 b 424 -221 410 -246 417 -239 l 750 669 b 731 694 756 686 744 694 z "},"z":{"ha":601,"x_min":0,"x_max":0,"o":"m 68 0 l 526 0 b 549 24 542 0 549 8 l 549 157 b 524 181 549 172 542 181 l 274 181 l 274 190 l 542 507 b 549 531 546 513 549 522 l 549 672 b 524 694 549 686 542 694 l 78 694 b 54 669 63 694 54 686 l 54 538 b 78 515 54 524 63 515 l 319 515 l 319 504 l 53 188 b 46 163 47 181 46 171 l 46 24 b 68 0 46 8 53 0 z "},"ź":{"ha":601,"x_min":0,"x_max":0,"o":"m 293 947 l 232 788 b 246 763 225 771 231 763 l 381 763 b 417 788 394 763 408 775 l 539 947 b 525 972 551 963 540 972 l 322 972 b 293 947 308 972 301 964 z m 68 0 l 526 0 b 549 24 542 0 549 8 l 549 157 b 524 181 549 172 542 181 l 274 181 l 274 190 l 542 507 b 549 531 546 513 549 522 l 549 672 b 524 694 549 686 542 694 l 78 694 b 54 669 63 694 54 686 l 54 538 b 78 515 54 524 63 515 l 319 515 l 319 504 l 53 188 b 46 163 47 181 46 171 l 46 24 b 68 0 46 8 53 0 z "},"ž":{"ha":601,"x_min":0,"x_max":0,"o":"m 218 761 l 389 761 b 428 782 404 761 418 771 l 569 944 b 557 972 582 957 571 972 l 406 972 b 360 943 383 972 372 960 l 311 885 l 297 885 l 249 943 b 201 972 235 960 224 972 l 50 972 b 38 944 36 972 26 957 l 179 782 b 218 761 190 768 203 761 z m 68 0 l 526 0 b 549 24 542 0 549 8 l 549 157 b 524 181 549 172 542 181 l 274 181 l 274 190 l 542 507 b 549 531 546 513 549 522 l 549 672 b 524 694 549 686 542 694 l 78 694 b 54 669 63 694 54 686 l 54 538 b 78 515 54 524 63 515 l 319 515 l 319 504 l 53 188 b 46 163 47 181 46 171 l 46 24 b 68 0 46 8 53 0 z "},"ż":{"ha":601,"x_min":0,"x_max":0,"o":"m 222 765 l 385 765 b 407 788 399 765 407 774 l 407 950 b 385 972 407 964 399 972 l 222 972 b 200 950 208 972 200 964 l 200 788 b 222 765 200 774 208 765 z m 68 0 l 526 0 b 549 24 542 0 549 8 l 549 157 b 524 181 549 172 542 181 l 274 181 l 274 190 l 542 507 b 549 531 546 513 549 522 l 549 672 b 524 694 549 686 542 694 l 78 694 b 54 669 63 694 54 686 l 54 538 b 78 515 54 524 63 515 l 319 515 l 319 504 l 53 188 b 46 163 47 181 46 171 l 46 24 b 68 0 46 8 53 0 z "},"ﬁ":{"ha":879,"x_min":0,"x_max":0,"o":"m 776 694 l 364 694 l 364 722 b 442 792 364 767 393 792 l 500 792 b 521 813 514 792 521 799 l 521 951 b 500 972 521 965 514 972 l 401 972 b 161 740 229 972 161 888 l 161 694 l 68 694 b 46 672 53 694 46 686 l 46 538 b 68 515 46 524 53 515 l 161 515 l 161 24 b 183 0 161 8 169 0 l 342 0 b 364 24 356 0 364 8 l 364 515 l 596 515 l 596 24 b 618 0 596 8 604 0 l 776 0 b 799 24 790 0 799 8 l 799 672 b 776 694 799 688 790 694 z "},"ﬂ":{"ha":896,"x_min":0,"x_max":0,"o":"m 793 972 l 401 972 b 161 740 229 972 161 888 l 161 694 l 68 694 b 46 672 53 694 46 686 l 46 538 b 68 515 46 524 53 515 l 161 515 l 161 24 b 183 0 161 8 169 0 l 342 0 b 364 24 356 0 364 8 l 364 515 l 493 515 b 515 538 508 515 515 524 l 515 672 b 493 694 515 686 508 694 l 364 694 l 364 722 b 442 792 364 767 393 792 l 613 792 l 613 24 b 636 0 613 8 621 0 l 793 0 b 817 24 808 0 817 8 l 817 950 b 793 972 817 965 808 972 z "},"ª":{"ha":451,"x_min":0,"x_max":0,"o":"m 257 979 l 226 979 b 100 947 178 979 132 967 b 94 924 93 943 93 932 l 114 878 b 135 871 118 867 128 869 b 211 883 160 879 189 883 l 233 883 b 282 843 263 883 282 874 l 185 843 b 69 732 106 843 69 806 b 185 624 69 653 122 624 l 201 624 b 282 660 228 624 257 639 l 282 642 b 300 624 282 628 290 624 l 361 624 b 382 642 372 624 382 628 l 382 843 b 257 979 382 922 335 979 z m 222 717 l 197 717 b 172 735 181 717 172 725 b 197 749 172 746 181 749 l 282 749 l 282 731 b 222 717 267 722 246 717 z "},"º":{"ha":476,"x_min":0,"x_max":0,"o":"m 263 979 l 214 979 b 69 829 128 979 69 918 l 69 775 b 214 624 69 685 128 624 l 263 624 b 407 775 347 624 407 685 l 407 829 b 263 979 407 918 347 979 z m 307 821 l 307 786 b 261 726 307 754 285 726 l 218 726 b 169 786 189 726 169 754 l 169 821 b 218 878 169 853 189 878 l 261 878 b 307 821 285 878 307 853 z "},"А":{"ha":883,"x_min":0,"x_max":0,"o":"m 838 29 l 604 950 b 576 972 600 964 589 972 l 307 972 b 281 950 294 972 285 964 l 47 29 b 67 0 43 14 51 0 l 231 0 b 258 29 244 0 254 14 l 286 146 l 597 146 l 626 29 b 654 0 631 14 640 0 l 818 0 b 838 29 832 0 842 14 z m 331 325 l 431 736 l 453 736 l 554 325 z "},"Б":{"ha":861,"x_min":0,"x_max":0,"o":"m 508 736 l 296 736 l 296 786 l 604 786 b 625 808 618 786 625 794 l 625 950 b 604 972 625 964 618 972 l 110 972 b 88 950 96 972 88 964 l 88 22 b 110 0 88 8 96 0 l 508 0 b 796 292 711 0 796 121 l 796 444 b 508 736 796 615 711 736 z m 588 297 b 490 186 588 213 546 186 l 296 186 l 296 550 l 490 550 b 588 439 546 550 588 525 z "},"В":{"ha":854,"x_min":0,"x_max":0,"o":"m 650 507 l 650 519 b 758 715 733 563 758 615 b 490 972 758 893 679 972 l 110 972 b 88 950 96 972 88 964 l 88 22 b 110 0 88 8 96 0 l 493 0 b 789 257 699 0 789 71 l 789 319 b 650 507 789 404 739 472 z m 550 701 l 550 664 b 457 579 550 589 507 579 l 296 579 l 296 786 l 457 786 b 550 701 510 786 550 779 z m 581 269 b 476 186 581 203 543 186 l 296 186 l 296 415 l 476 415 b 581 324 543 415 581 392 z "},"Г":{"ha":699,"x_min":0,"x_max":0,"o":"m 621 972 l 110 972 b 88 950 96 972 88 964 l 88 22 b 110 0 88 8 96 0 l 274 0 b 296 22 288 0 296 8 l 296 786 l 621 786 b 643 808 635 786 643 794 l 643 950 b 621 972 643 964 635 972 z "},"Ѓ":{"ha":699,"x_min":0,"x_max":0,"o":"m 293 1040 l 428 1040 b 464 1065 442 1040 456 1053 l 586 1225 b 572 1250 599 1240 588 1250 l 369 1250 b 340 1225 356 1250 349 1242 l 279 1065 b 293 1040 272 1049 278 1040 z m 621 972 l 110 972 b 88 950 96 972 88 964 l 88 22 b 110 0 88 8 96 0 l 274 0 b 296 22 288 0 296 8 l 296 786 l 621 786 b 643 808 635 786 643 794 l 643 950 b 621 972 643 964 635 972 z "},"Ґ":{"ha":699,"x_min":0,"x_max":0,"o":"m 621 1069 l 457 1069 b 435 1047 443 1069 435 1061 l 435 972 l 110 972 b 88 950 96 972 88 964 l 88 22 b 110 0 88 8 96 0 l 274 0 b 296 22 288 0 296 8 l 296 786 l 621 786 b 643 808 635 786 643 794 l 643 1047 b 621 1069 643 1061 635 1069 z "},"Д":{"ha":986,"x_min":0,"x_max":0,"o":"m 938 186 l 874 186 l 874 951 b 853 972 874 965 867 972 l 210 972 b 189 951 196 972 189 965 l 189 424 b 83 186 189 272 143 186 l 49 186 b 28 165 35 186 28 179 l 28 -112 b 50 -135 28 -126 36 -135 l 214 -135 b 236 -112 228 -135 236 -126 l 236 0 l 750 0 l 750 -112 b 772 -135 750 -126 758 -135 l 936 -135 b 958 -112 950 -135 958 -126 l 958 165 b 938 186 958 179 951 186 z m 343 186 b 397 424 382 239 397 315 l 397 786 l 665 786 l 665 186 z "},"Е":{"ha":743,"x_min":0,"x_max":0,"o":"m 108 0 l 676 0 b 699 22 690 0 699 8 l 699 164 b 676 186 699 178 690 186 l 296 186 l 296 396 l 638 396 b 658 418 651 396 658 404 l 658 554 b 638 576 658 568 651 576 l 296 576 l 296 786 l 668 786 b 689 808 682 786 689 794 l 689 950 b 668 972 689 964 682 972 l 108 972 b 88 950 94 972 88 964 l 88 22 b 108 0 88 8 94 0 z "},"Ё":{"ha":743,"x_min":0,"x_max":0,"o":"m 97 1043 l 260 1043 b 282 1065 274 1043 282 1051 l 282 1228 b 260 1250 282 1242 274 1250 l 97 1250 b 75 1228 83 1250 75 1242 l 75 1065 b 97 1043 75 1051 83 1043 z m 508 1043 l 671 1043 b 693 1065 685 1043 693 1051 l 693 1228 b 671 1250 693 1242 685 1250 l 508 1250 b 486 1228 494 1250 486 1242 l 486 1065 b 508 1043 486 1051 494 1043 z m 108 0 l 676 0 b 699 22 690 0 699 8 l 699 164 b 676 186 699 178 690 186 l 296 186 l 296 396 l 638 396 b 658 418 651 396 658 404 l 658 554 b 638 576 658 568 651 576 l 296 576 l 296 786 l 668 786 b 689 808 682 786 689 794 l 689 950 b 668 972 689 964 682 972 l 108 972 b 88 950 94 972 88 964 l 88 22 b 108 0 88 8 94 0 z "},"Ж":{"ha":1403,"x_min":0,"x_max":0,"o":"m 1351 38 l 1018 546 l 1335 935 b 1325 972 1350 954 1342 972 l 1142 972 b 1100 949 1124 972 1111 964 l 806 578 l 806 950 b 783 972 806 964 797 972 l 619 972 b 597 950 606 972 597 964 l 597 578 l 304 949 b 261 972 292 964 281 972 l 78 972 b 69 935 61 972 53 954 l 385 546 l 51 38 b 58 0 46 26 40 0 l 247 0 b 286 19 258 0 275 1 l 519 381 l 597 285 l 597 22 b 619 0 597 8 606 0 l 783 0 b 806 22 797 0 806 8 l 806 285 l 885 381 l 1118 19 b 1156 0 1129 1 1146 0 l 1344 0 b 1351 38 1364 0 1358 26 z "},"З":{"ha":825,"x_min":0,"x_max":0,"o":"m 596 489 l 596 504 b 747 710 694 526 747 567 b 464 979 747 851 676 979 l 379 979 b 78 717 164 979 78 892 l 78 688 b 100 665 78 672 86 665 l 258 665 b 281 688 272 665 281 672 b 381 799 281 774 318 799 l 453 799 b 543 710 508 799 543 765 b 438 586 543 649 547 586 l 368 586 b 343 561 351 586 343 578 l 343 432 b 368 407 343 415 351 407 l 438 407 b 557 264 547 407 557 350 b 468 174 557 208 524 174 l 369 174 b 269 285 307 174 269 200 b 247 308 269 300 261 308 l 89 308 b 67 285 75 308 67 300 l 67 256 b 368 -7 67 82 153 -7 l 479 -7 b 760 264 693 -7 760 122 b 596 489 760 435 694 468 z "},"И":{"ha":938,"x_min":0,"x_max":0,"o":"m 829 0 b 851 22 843 0 851 8 l 851 950 b 829 972 851 964 843 972 l 557 972 b 532 957 546 972 535 968 l 308 275 l 296 275 l 296 950 b 274 972 296 964 288 972 l 110 972 b 88 950 96 972 88 964 l 88 22 b 110 0 88 8 96 0 l 382 0 b 407 15 393 0 403 4 l 629 697 l 643 697 l 643 22 b 665 0 643 8 651 0 z "},"Й":{"ha":938,"x_min":0,"x_max":0,"o":"m 401 1018 l 497 1018 b 699 1226 636 1018 699 1086 b 676 1250 699 1242 690 1250 l 556 1250 b 533 1226 542 1250 536 1242 b 465 1156 528 1192 521 1156 l 432 1156 b 364 1226 376 1156 369 1192 b 342 1250 363 1242 356 1250 l 221 1250 b 199 1226 207 1250 199 1242 b 401 1018 199 1086 261 1018 z m 829 0 b 851 22 843 0 851 8 l 851 950 b 829 972 851 964 843 972 l 557 972 b 532 957 546 972 535 968 l 308 275 l 296 275 l 296 950 b 274 972 296 964 288 972 l 110 972 b 88 950 96 972 88 964 l 88 22 b 110 0 88 8 96 0 l 382 0 b 407 15 393 0 403 4 l 629 697 l 643 697 l 643 22 b 665 0 643 8 651 0 z "},"Ѝ":{"ha":938,"x_min":0,"x_max":0,"o":"m 471 1225 b 442 1250 463 1242 456 1250 l 239 1250 b 225 1225 224 1250 213 1240 l 347 1065 b 383 1040 356 1053 369 1040 l 518 1040 b 532 1065 533 1040 539 1049 z m 829 0 b 851 22 843 0 851 8 l 851 950 b 829 972 851 964 843 972 l 557 972 b 532 957 546 972 535 968 l 308 275 l 296 275 l 296 950 b 274 972 296 964 288 972 l 110 972 b 88 950 96 972 88 964 l 88 22 b 110 0 88 8 96 0 l 382 0 b 407 15 393 0 403 4 l 629 697 l 643 697 l 643 22 b 665 0 643 8 651 0 z "},"К":{"ha":893,"x_min":0,"x_max":0,"o":"m 842 38 l 508 546 l 824 935 b 815 972 840 954 832 972 l 632 972 b 589 949 613 972 601 964 l 296 578 l 296 950 b 274 972 296 964 288 972 l 110 972 b 88 950 96 972 88 964 l 88 22 b 110 0 88 8 96 0 l 274 0 b 296 22 288 0 296 8 l 296 285 l 374 381 l 607 19 b 646 0 618 1 635 0 l 835 0 b 842 38 853 0 847 26 z "},"Ќ":{"ha":893,"x_min":0,"x_max":0,"o":"m 383 1040 l 518 1040 b 554 1065 532 1040 546 1053 l 676 1225 b 663 1250 689 1240 678 1250 l 460 1250 b 431 1225 446 1250 439 1242 l 369 1065 b 383 1040 363 1049 368 1040 z m 842 38 l 508 546 l 824 935 b 815 972 840 954 832 972 l 632 972 b 589 949 613 972 601 964 l 296 578 l 296 950 b 274 972 296 964 288 972 l 110 972 b 88 950 96 972 88 964 l 88 22 b 110 0 88 8 96 0 l 274 0 b 296 22 288 0 296 8 l 296 285 l 374 381 l 607 19 b 646 0 618 1 635 0 l 835 0 b 842 38 853 0 847 26 z "},"Л":{"ha":957,"x_min":0,"x_max":0,"o":"m 850 972 l 183 972 b 163 951 169 972 163 965 l 163 317 b 68 211 163 225 119 211 b 42 189 54 211 42 206 l 42 18 b 67 -6 42 4 50 -6 l 138 -6 b 371 232 276 -6 371 65 l 371 786 l 663 786 l 663 22 b 685 0 663 8 671 0 l 849 0 b 871 22 863 0 871 8 l 871 951 b 850 972 871 965 864 972 z "},"М":{"ha":1113,"x_min":0,"x_max":0,"o":"m 110 0 l 274 0 b 296 22 288 0 296 8 l 296 697 l 308 697 l 425 21 b 451 0 426 7 439 0 l 663 0 b 689 21 675 0 686 7 l 804 697 l 818 697 l 818 22 b 840 0 818 8 826 0 l 1004 0 b 1026 22 1018 0 1026 8 l 1026 950 b 1004 972 1026 964 1018 972 l 715 972 b 686 951 701 972 688 965 l 561 254 l 551 254 l 428 951 b 399 972 425 965 413 972 l 110 972 b 88 950 96 972 88 964 l 88 22 b 110 0 88 8 96 0 z "},"Н":{"ha":889,"x_min":0,"x_max":0,"o":"m 781 972 l 614 972 b 592 950 600 972 592 964 l 592 576 l 297 576 l 297 950 b 275 972 297 964 289 972 l 110 972 b 88 950 96 972 88 964 l 88 22 b 110 0 88 8 96 0 l 275 0 b 297 22 289 0 297 8 l 297 396 l 592 396 l 592 22 b 614 0 592 8 600 0 l 781 0 b 803 22 794 0 803 8 l 803 950 b 781 972 803 964 794 972 z "},"О":{"ha":910,"x_min":0,"x_max":0,"o":"m 371 -7 l 540 -7 b 824 281 744 -7 824 108 l 824 692 b 540 979 824 864 744 979 l 371 979 b 88 692 167 979 88 864 l 88 281 b 371 -7 88 108 167 -7 z m 389 179 b 296 286 333 179 296 200 l 296 686 b 389 793 296 771 333 793 l 522 793 b 615 686 578 793 615 771 l 615 286 b 522 179 615 200 578 179 z "},"П":{"ha":882,"x_min":0,"x_max":0,"o":"m 110 0 l 274 0 b 296 22 288 0 296 8 l 296 786 l 588 786 l 588 22 b 610 0 588 8 596 0 l 774 0 b 796 22 788 0 796 8 l 796 951 b 775 972 796 965 789 972 l 108 972 b 88 951 94 972 88 965 l 88 22 b 110 0 88 8 96 0 z "},"Р":{"ha":868,"x_min":0,"x_max":0,"o":"m 508 972 l 110 972 b 88 950 96 972 88 964 l 88 22 b 110 0 88 8 96 0 l 274 0 b 296 22 288 0 296 8 l 296 238 l 508 238 b 796 528 711 238 796 357 l 796 682 b 508 972 796 853 711 972 z m 588 533 b 490 424 588 447 546 424 l 296 424 l 296 786 l 490 786 b 588 676 546 786 588 760 z "},"С":{"ha":893,"x_min":0,"x_max":0,"o":"m 371 -7 l 535 -7 b 819 285 744 -7 819 104 l 819 292 b 796 317 819 307 810 317 l 636 317 b 611 292 621 317 611 308 b 514 179 611 199 567 179 l 389 179 b 296 286 333 179 296 200 l 296 686 b 389 793 296 771 333 793 l 514 793 b 611 679 567 793 611 774 b 636 654 611 663 621 654 l 796 654 b 819 679 810 654 819 664 l 819 686 b 535 979 819 868 744 979 l 371 979 b 88 692 167 979 88 864 l 88 281 b 371 -7 88 108 167 -7 z "},"Т":{"ha":768,"x_min":0,"x_max":0,"o":"m 688 972 l 81 972 b 60 950 67 972 60 964 l 60 808 b 81 786 60 794 67 786 l 281 786 l 281 22 b 303 0 281 8 289 0 l 467 0 b 489 22 481 0 489 8 l 489 786 l 688 786 b 710 808 701 786 710 794 l 710 950 b 688 972 710 964 701 972 z "},"У":{"ha":858,"x_min":0,"x_max":0,"o":"m 792 972 l 626 972 b 596 951 611 972 603 967 l 428 594 l 263 951 b 232 972 256 967 247 972 l 67 972 b 49 946 50 972 39 964 l 321 367 l 161 28 b 179 0 153 10 163 0 l 344 0 b 376 22 361 0 369 6 l 810 946 b 792 972 819 964 808 972 z "},"Ў":{"ha":858,"x_min":0,"x_max":0,"o":"m 397 1018 l 493 1018 b 694 1226 632 1018 694 1086 b 672 1250 694 1242 686 1250 l 551 1250 b 529 1226 538 1250 532 1242 b 461 1156 524 1192 517 1156 l 428 1156 b 360 1226 372 1156 365 1192 b 338 1250 358 1242 351 1250 l 217 1250 b 194 1226 203 1250 194 1242 b 397 1018 194 1086 257 1018 z m 792 972 l 626 972 b 596 951 611 972 603 967 l 428 594 l 263 951 b 232 972 256 967 247 972 l 67 972 b 49 946 50 972 39 964 l 321 367 l 161 28 b 179 0 153 10 163 0 l 344 0 b 376 22 361 0 369 6 l 810 946 b 792 972 819 964 808 972 z "},"Ф":{"ha":1035,"x_min":0,"x_max":0,"o":"m 665 840 l 622 840 l 622 950 b 600 972 622 964 614 972 l 436 972 b 414 950 422 972 414 964 l 414 840 l 371 840 b 88 553 167 840 88 725 l 88 419 b 371 132 88 247 167 132 l 414 132 l 414 22 b 436 0 414 8 422 0 l 600 0 b 622 22 614 0 622 8 l 622 132 l 665 132 b 949 419 869 132 949 247 l 949 553 b 665 840 949 725 869 840 z m 389 318 b 296 425 333 318 296 339 l 296 547 b 389 654 296 632 333 654 l 414 654 l 414 318 z m 740 425 b 647 318 740 339 703 318 l 622 318 l 622 654 l 647 654 b 740 547 703 654 740 632 z "},"Х":{"ha":842,"x_min":0,"x_max":0,"o":"m 82 0 l 250 0 b 278 19 265 0 269 6 l 415 283 l 429 283 l 567 19 b 594 0 572 6 581 0 l 763 0 b 779 28 779 0 788 10 l 531 486 l 778 944 b 761 972 786 963 778 972 l 592 972 b 563 953 578 972 569 967 l 429 689 l 415 689 l 282 953 b 253 972 275 967 267 972 l 86 972 b 67 944 69 972 58 963 l 314 486 l 65 28 b 82 0 57 10 65 0 z "},"Ч":{"ha":875,"x_min":0,"x_max":0,"o":"m 603 0 l 767 0 b 789 22 781 0 789 8 l 789 950 b 767 972 789 964 781 972 l 603 972 b 581 950 589 972 581 964 l 581 521 b 531 440 581 467 572 440 l 342 440 b 278 521 301 440 278 465 l 278 950 b 256 972 278 964 269 972 l 92 972 b 69 950 78 972 69 964 l 69 517 b 332 260 69 340 150 260 l 397 260 b 581 313 457 260 542 257 l 581 22 b 603 0 581 8 589 0 z "},"Ц":{"ha":915,"x_min":0,"x_max":0,"o":"m 867 186 l 796 186 l 796 950 b 774 972 796 964 788 972 l 610 972 b 588 950 596 972 588 964 l 588 186 l 296 186 l 296 950 b 274 972 296 964 288 972 l 110 972 b 88 950 96 972 88 964 l 88 21 b 108 0 88 7 94 0 l 679 0 l 679 -112 b 701 -135 679 -126 688 -135 l 865 -135 b 888 -112 879 -135 888 -126 l 888 165 b 867 186 888 179 881 186 z "},"Ш":{"ha":1313,"x_min":0,"x_max":0,"o":"m 108 0 l 1206 0 b 1226 21 1219 0 1226 7 l 1226 950 b 1204 972 1226 964 1218 972 l 1040 972 b 1018 950 1026 972 1018 964 l 1018 186 l 761 186 l 761 950 b 739 972 761 964 753 972 l 575 972 b 553 950 561 972 553 964 l 553 186 l 296 186 l 296 950 b 274 972 296 964 288 972 l 110 972 b 88 950 96 972 88 964 l 88 21 b 108 0 88 7 94 0 z "},"Щ":{"ha":1346,"x_min":0,"x_max":0,"o":"m 1297 186 l 1226 186 l 1226 950 b 1204 972 1226 964 1218 972 l 1040 972 b 1018 950 1026 972 1018 964 l 1018 186 l 761 186 l 761 950 b 739 972 761 964 753 972 l 575 972 b 553 950 561 972 553 964 l 553 186 l 296 186 l 296 950 b 274 972 296 964 288 972 l 110 972 b 88 950 96 972 88 964 l 88 21 b 108 0 88 7 94 0 l 1110 0 l 1110 -112 b 1132 -135 1110 -126 1118 -135 l 1296 -135 b 1318 -112 1310 -135 1318 -126 l 1318 165 b 1297 186 1318 179 1311 186 z "},"Ь":{"ha":868,"x_min":0,"x_max":0,"o":"m 508 736 l 296 736 l 296 950 b 274 972 296 964 288 972 l 110 972 b 88 950 96 972 88 964 l 88 22 b 110 0 88 8 96 0 l 508 0 b 796 292 711 0 796 121 l 796 444 b 508 736 796 615 711 736 z m 588 297 b 490 186 588 213 546 186 l 296 186 l 296 550 l 490 550 b 588 439 546 550 588 525 z "},"Ъ":{"ha":997,"x_min":0,"x_max":0,"o":"m 624 736 l 411 736 l 411 950 b 389 972 411 964 403 972 l 81 972 b 60 950 67 972 60 964 l 60 808 b 81 786 60 794 67 786 l 203 786 l 203 22 b 225 0 203 8 211 0 l 624 0 b 911 292 826 0 911 121 l 911 444 b 624 736 911 615 826 736 z m 703 297 b 606 186 703 213 661 186 l 411 186 l 411 550 l 606 550 b 703 439 661 550 703 525 z "},"Ы":{"ha":1250,"x_min":0,"x_max":0,"o":"m 508 736 l 296 736 l 296 950 b 274 972 296 964 288 972 l 110 972 b 88 950 96 972 88 964 l 88 22 b 110 0 88 8 96 0 l 508 0 b 796 292 711 0 796 121 l 796 444 b 508 736 796 615 711 736 z m 1142 972 l 978 972 b 956 950 964 972 956 964 l 956 22 b 978 0 956 8 964 0 l 1142 0 b 1164 22 1156 0 1164 8 l 1164 950 b 1142 972 1164 964 1156 972 z m 588 297 b 490 186 588 213 546 186 l 296 186 l 296 550 l 490 550 b 588 439 546 550 588 525 z "},"Є":{"ha":893,"x_min":0,"x_max":0,"o":"m 389 793 l 514 793 b 611 679 567 793 611 774 b 636 654 611 663 621 654 l 796 654 b 819 679 810 654 819 664 l 819 686 b 535 979 819 868 744 979 l 371 979 b 88 692 167 979 88 864 l 88 281 b 371 -7 88 108 167 -7 l 535 -7 b 819 285 744 -7 819 104 l 819 292 b 796 317 819 307 810 317 l 636 317 b 611 292 621 317 611 308 b 514 179 611 199 567 179 l 389 179 b 296 286 333 179 296 200 l 296 393 l 469 393 b 492 415 483 393 492 401 l 492 557 b 469 579 492 571 483 579 l 296 579 l 296 686 b 389 793 296 771 333 793 z "},"Э":{"ha":893,"x_min":0,"x_max":0,"o":"m 524 979 l 360 979 b 74 686 150 979 74 868 l 74 679 b 99 654 74 664 83 654 l 258 654 b 282 679 272 654 282 663 b 379 793 282 774 328 793 l 506 793 b 599 686 561 793 599 771 l 599 579 l 424 579 b 403 557 410 579 403 571 l 403 415 b 424 393 403 401 410 393 l 599 393 l 599 286 b 506 179 599 200 561 179 l 379 179 b 282 292 328 179 282 199 b 258 317 282 308 272 317 l 99 317 b 74 292 83 317 74 307 l 74 285 b 360 -7 74 104 150 -7 l 524 -7 b 807 281 728 -7 807 108 l 807 692 b 524 979 807 864 728 979 z "},"І":{"ha":382,"x_min":0,"x_max":0,"o":"m 110 0 l 274 0 b 296 22 288 0 296 8 l 296 950 b 274 972 296 964 288 972 l 110 972 b 88 950 96 972 88 964 l 88 22 b 110 0 88 8 96 0 z "},"Ї":{"ha":382,"x_min":0,"x_max":0,"o":"m -96 1043 l 67 1043 b 89 1065 81 1043 89 1051 l 89 1228 b 67 1250 89 1242 81 1250 l -96 1250 b -118 1228 -110 1250 -118 1242 l -118 1065 b -96 1043 -118 1051 -110 1043 z m 315 1043 l 478 1043 b 500 1065 492 1043 500 1051 l 500 1228 b 478 1250 500 1242 492 1250 l 315 1250 b 293 1228 301 1250 293 1242 l 293 1065 b 315 1043 293 1051 301 1043 z m 110 0 l 274 0 b 296 22 288 0 296 8 l 296 950 b 274 972 296 964 288 972 l 110 972 b 88 950 96 972 88 964 l 88 22 b 110 0 88 8 96 0 z "},"Ј":{"ha":542,"x_min":0,"x_max":0,"o":"m 74 -7 l 172 -7 b 456 281 376 -7 456 108 l 456 950 b 433 972 456 964 447 972 l 269 972 b 247 950 256 972 247 964 l 247 286 b 154 179 247 200 210 179 l 74 179 b 53 157 60 179 53 171 l 53 15 b 74 -7 53 1 60 -7 z "},"Ю":{"ha":1306,"x_min":0,"x_max":0,"o":"m 936 979 l 767 979 b 483 692 563 979 483 864 l 483 578 l 296 578 l 296 950 b 274 972 296 964 288 972 l 110 972 b 88 950 96 972 88 964 l 88 22 b 110 0 88 8 96 0 l 274 0 b 296 22 288 0 296 8 l 296 397 l 483 397 l 483 281 b 767 -7 483 108 563 -7 l 936 -7 b 1219 281 1140 -7 1219 108 l 1219 692 b 936 979 1219 864 1140 979 z m 1011 286 b 918 179 1011 200 974 179 l 785 179 b 692 286 729 179 692 200 l 692 686 b 785 793 692 771 729 793 l 918 793 b 1011 686 974 793 1011 771 z "},"Я":{"ha":872,"x_min":0,"x_max":0,"o":"m 764 972 l 364 972 b 78 682 161 972 78 853 l 78 528 b 183 285 78 421 110 335 l 82 36 b 108 0 74 14 85 0 l 257 0 b 294 24 274 0 289 8 l 382 238 l 578 238 l 578 22 b 600 0 578 8 586 0 l 764 0 b 786 22 778 0 786 8 l 786 950 b 764 972 786 964 778 972 z m 382 424 b 286 533 326 424 286 447 l 286 676 b 382 786 286 760 326 786 l 578 786 l 578 424 z "},"Ӏ":{"ha":382,"x_min":0,"x_max":0,"o":"m 110 0 l 274 0 b 296 22 288 0 296 8 l 296 950 b 274 972 296 964 288 972 l 110 972 b 88 950 96 972 88 964 l 88 22 b 110 0 88 8 96 0 z "},"Ӣ":{"ha":938,"x_min":0,"x_max":0,"o":"m 224 1069 l 674 1069 b 694 1090 686 1069 694 1076 l 694 1229 b 674 1250 694 1243 686 1250 l 224 1250 b 203 1229 210 1250 203 1243 l 203 1090 b 224 1069 203 1076 210 1069 z m 829 0 b 851 22 843 0 851 8 l 851 950 b 829 972 851 964 843 972 l 557 972 b 532 957 546 972 535 968 l 308 275 l 296 275 l 296 950 b 274 972 296 964 288 972 l 110 972 b 88 950 96 972 88 964 l 88 22 b 110 0 88 8 96 0 l 382 0 b 407 15 393 0 403 4 l 629 697 l 643 697 l 643 22 b 665 0 643 8 651 0 z "},"Ө":{"ha":910,"x_min":0,"x_max":0,"o":"m 540 979 l 371 979 b 88 692 167 979 88 864 l 88 281 b 371 -7 88 108 167 -7 l 540 -7 b 824 281 744 -7 824 108 l 824 692 b 540 979 824 864 744 979 z m 389 793 l 522 793 b 615 686 578 793 615 771 l 615 578 l 296 578 l 296 686 b 389 793 296 771 333 793 z m 522 179 l 389 179 b 296 286 333 179 296 200 l 296 397 l 615 397 l 615 286 b 522 179 615 200 578 179 z "},"Ӭ":{"ha":893,"x_min":0,"x_max":0,"o":"m 157 1043 l 319 1043 b 342 1065 333 1043 342 1051 l 342 1228 b 319 1250 342 1242 333 1250 l 157 1250 b 135 1228 143 1250 135 1242 l 135 1065 b 157 1043 135 1051 143 1043 z m 568 1043 l 731 1043 b 753 1065 744 1043 753 1051 l 753 1228 b 731 1250 753 1242 744 1250 l 568 1250 b 546 1228 554 1250 546 1242 l 546 1065 b 568 1043 546 1051 554 1043 z m 524 979 l 360 979 b 74 686 150 979 74 868 l 74 679 b 99 654 74 664 83 654 l 258 654 b 282 679 272 654 282 663 b 379 793 282 774 328 793 l 506 793 b 599 686 561 793 599 771 l 599 579 l 424 579 b 403 557 410 579 403 571 l 403 415 b 424 393 403 401 410 393 l 599 393 l 599 286 b 506 179 599 200 561 179 l 379 179 b 282 292 328 179 282 199 b 258 317 282 308 272 317 l 99 317 b 74 292 83 317 74 307 l 74 285 b 360 -7 74 104 150 -7 l 524 -7 b 807 281 728 -7 807 108 l 807 692 b 524 979 807 864 728 979 z "},"Ӯ":{"ha":858,"x_min":0,"x_max":0,"o":"m 219 1069 l 669 1069 b 690 1090 682 1069 690 1076 l 690 1229 b 669 1250 690 1243 682 1250 l 219 1250 b 199 1229 206 1250 199 1243 l 199 1090 b 219 1069 199 1076 206 1069 z m 792 972 l 626 972 b 596 951 611 972 603 967 l 428 594 l 263 951 b 232 972 256 967 247 972 l 67 972 b 49 946 50 972 39 964 l 321 367 l 161 28 b 179 0 153 10 163 0 l 344 0 b 376 22 361 0 369 6 l 810 946 b 792 972 819 964 808 972 z "},"а":{"ha":740,"x_min":0,"x_max":0,"o":"m 406 700 l 367 700 b 147 667 271 700 193 683 b 131 638 135 661 128 650 l 151 526 b 181 508 156 510 164 504 b 322 524 213 517 279 524 b 457 453 425 524 457 501 l 457 422 l 278 422 b 60 246 125 422 60 368 l 60 197 b 256 -7 60 71 125 -7 l 268 -7 b 440 82 354 -7 399 33 l 457 82 l 457 24 b 479 0 457 8 465 0 l 638 0 b 660 24 651 0 660 8 l 660 463 b 406 700 660 607 588 700 z m 376 167 l 308 167 b 258 206 281 167 258 174 l 258 233 b 307 281 258 275 279 281 l 457 281 l 457 242 b 376 167 457 206 442 167 z "},"б":{"ha":753,"x_min":0,"x_max":0,"o":"m 449 -7 l 458 -7 b 688 228 617 -7 688 79 l 688 465 b 458 700 688 615 617 700 l 449 700 b 301 636 372 700 333 672 l 283 636 l 283 699 b 346 758 283 731 299 758 b 503 754 421 758 472 754 b 671 940 656 754 671 836 b 647 972 671 961 668 972 l 488 972 b 460 965 478 972 465 974 b 367 939 447 947 410 939 b 253 946 332 939 285 946 b 81 722 129 946 81 892 l 81 24 b 103 0 81 8 89 0 l 261 0 b 283 24 275 0 283 8 l 283 57 l 301 57 b 449 -7 333 21 372 -7 z m 350 175 b 283 247 314 175 283 199 l 283 446 b 350 519 283 496 314 519 l 419 519 b 483 447 453 519 483 494 l 483 246 b 419 175 483 200 453 175 z "},"в":{"ha":696,"x_min":0,"x_max":0,"o":"m 518 357 b 615 499 608 385 615 446 b 404 694 615 646 544 694 l 101 694 b 81 674 88 694 81 688 l 81 21 b 101 0 81 7 88 0 l 404 0 b 631 190 550 0 631 57 b 518 346 631 265 607 317 z m 283 517 l 385 517 b 413 478 399 517 413 508 b 374 433 413 428 388 433 l 283 433 z m 383 178 l 283 178 l 283 278 l 378 279 b 428 229 403 279 428 274 b 383 178 428 196 408 178 z "},"г":{"ha":618,"x_min":0,"x_max":0,"o":"m 538 694 l 103 694 b 81 672 89 694 81 688 l 81 24 b 103 0 81 8 89 0 l 261 0 b 283 24 275 0 283 8 l 283 515 l 538 515 b 563 540 554 515 563 524 l 563 669 b 538 694 563 686 554 694 z "},"ѓ":{"ha":618,"x_min":0,"x_max":0,"o":"m 264 763 l 399 763 b 435 788 413 763 426 775 l 557 947 b 543 972 569 963 558 972 l 340 972 b 311 947 326 972 319 964 l 250 788 b 264 763 243 771 249 763 z m 538 694 l 103 694 b 81 672 89 694 81 688 l 81 24 b 103 0 81 8 89 0 l 261 0 b 283 24 275 0 283 8 l 283 515 l 538 515 b 563 540 554 515 563 524 l 563 669 b 538 694 563 686 554 694 z "},"ґ":{"ha":618,"x_min":0,"x_max":0,"o":"m 539 769 l 382 769 b 358 747 367 769 358 763 l 358 694 l 103 694 b 81 672 89 694 81 688 l 81 24 b 103 0 81 8 89 0 l 261 0 b 283 24 275 0 283 8 l 283 515 l 538 515 b 563 540 554 515 563 524 l 563 747 b 539 769 563 763 554 769 z "},"д":{"ha":935,"x_min":0,"x_max":0,"o":"m 879 181 l 786 181 l 786 674 b 765 694 786 688 779 694 l 224 694 b 203 674 210 694 203 688 l 203 429 b 76 181 203 193 132 181 l 56 181 b 35 160 42 181 35 174 l 35 -86 b 58 -110 35 -101 43 -110 l 215 -110 b 239 -86 231 -110 239 -101 l 239 0 l 696 0 l 696 -86 b 719 -110 696 -101 704 -110 l 876 -110 b 900 -86 892 -110 900 -101 l 900 160 b 879 181 900 174 893 181 z m 358 181 b 407 385 389 231 407 297 l 407 515 l 582 515 l 582 181 z "},"е":{"ha":722,"x_min":0,"x_max":0,"o":"m 385 -7 b 632 82 479 -7 578 29 b 631 108 638 89 638 97 l 582 182 b 553 193 575 194 563 197 b 385 165 514 178 478 165 l 369 165 b 269 239 303 165 269 197 l 269 267 l 617 267 b 657 307 644 267 657 281 l 657 454 b 399 700 657 603 583 700 l 324 700 b 67 456 138 700 67 604 l 67 238 b 363 -7 67 94 140 -7 z m 269 414 l 269 453 b 335 519 269 501 299 519 l 389 519 b 453 453 424 519 453 500 l 453 414 z "},"ё":{"ha":722,"x_min":0,"x_max":0,"o":"m 78 765 l 240 765 b 263 788 254 765 263 774 l 263 950 b 240 972 263 964 254 972 l 78 972 b 56 950 64 972 56 964 l 56 788 b 78 765 56 774 64 765 z m 489 765 l 651 765 b 674 788 665 765 674 774 l 674 950 b 651 972 674 964 665 972 l 489 972 b 467 950 475 972 467 964 l 467 788 b 489 765 467 774 475 765 z m 385 -7 b 632 82 479 -7 578 29 b 631 108 638 89 638 97 l 582 182 b 553 193 575 194 563 197 b 385 165 514 178 478 165 l 369 165 b 269 239 303 165 269 197 l 269 267 l 617 267 b 657 307 644 267 657 281 l 657 454 b 399 700 657 603 583 700 l 324 700 b 67 456 138 700 67 604 l 67 238 b 363 -7 67 94 140 -7 z m 269 414 l 269 453 b 335 519 269 501 299 519 l 389 519 b 453 453 424 519 453 500 l 453 414 z "},"ж":{"ha":1168,"x_min":0,"x_max":0,"o":"m 1131 35 l 842 346 l 1117 656 b 1108 694 1138 678 1128 694 l 917 694 b 876 674 897 694 888 685 l 685 447 l 685 672 b 661 694 685 688 676 694 l 504 694 b 481 672 489 694 481 688 l 481 447 l 289 674 b 249 694 278 685 268 694 l 57 694 b 49 656 38 694 28 678 l 324 346 l 35 35 b 47 0 24 22 26 0 l 242 0 b 288 26 258 0 268 4 l 481 247 l 481 24 b 504 0 481 8 489 0 l 661 0 b 685 24 676 0 685 8 l 685 247 l 878 26 b 924 0 897 4 907 0 l 1118 0 b 1131 35 1139 0 1142 22 z "},"з":{"ha":688,"x_min":0,"x_max":0,"o":"m 267 -8 l 407 -8 b 625 181 536 -8 625 69 b 528 338 625 250 611 313 l 528 353 b 621 501 611 376 621 429 b 407 696 621 611 536 696 l 267 696 b 63 483 139 696 63 632 b 78 465 63 471 67 465 l 256 465 b 271 483 265 465 271 471 b 319 515 271 504 279 515 l 360 515 b 411 472 382 515 411 519 b 369 422 411 426 397 422 l 276 422 b 261 407 267 422 261 418 l 261 281 b 276 265 261 269 267 265 l 369 265 b 404 214 397 265 404 247 b 360 172 404 172 385 172 l 319 172 b 271 194 286 172 271 176 b 256 213 271 208 265 213 l 78 213 b 63 194 67 213 63 208 b 267 -8 63 47 139 -8 z "},"и":{"ha":847,"x_min":0,"x_max":0,"o":"m 103 0 l 347 0 b 372 15 358 0 367 4 l 550 465 l 564 465 l 564 24 b 588 0 564 8 572 0 l 744 0 b 768 24 760 0 768 8 l 768 672 b 744 694 768 688 760 694 l 501 694 b 476 679 490 694 482 690 l 297 231 l 283 231 l 283 672 b 261 694 283 688 275 694 l 103 694 b 81 672 89 694 81 688 l 81 24 b 103 0 81 8 89 0 z "},"й":{"ha":847,"x_min":0,"x_max":0,"o":"m 390 740 l 486 740 b 688 949 625 740 688 808 b 665 972 688 964 679 972 l 544 972 b 522 949 531 972 525 964 b 454 878 517 914 510 878 l 421 878 b 353 949 365 878 358 914 b 331 972 351 964 344 972 l 210 972 b 188 949 196 972 188 964 b 390 740 188 808 250 740 z m 103 0 l 347 0 b 372 15 358 0 367 4 l 550 465 l 564 465 l 564 24 b 588 0 564 8 572 0 l 744 0 b 768 24 760 0 768 8 l 768 672 b 744 694 768 688 760 694 l 501 694 b 476 679 490 694 482 690 l 297 231 l 283 231 l 283 672 b 261 694 283 688 275 694 l 103 694 b 81 672 89 694 81 688 l 81 24 b 103 0 81 8 89 0 z "},"ѝ":{"ha":847,"x_min":0,"x_max":0,"o":"m 460 947 b 431 972 451 964 444 972 l 228 972 b 214 947 213 972 201 963 l 336 788 b 372 763 344 775 358 763 l 507 763 b 521 788 522 763 528 771 z m 103 0 l 347 0 b 372 15 358 0 367 4 l 550 465 l 564 465 l 564 24 b 588 0 564 8 572 0 l 744 0 b 768 24 760 0 768 8 l 768 672 b 744 694 768 688 760 694 l 501 694 b 476 679 490 694 482 690 l 297 231 l 283 231 l 283 672 b 261 694 283 688 275 694 l 103 694 b 81 672 89 694 81 688 l 81 24 b 103 0 81 8 89 0 z "},"к":{"ha":768,"x_min":0,"x_max":0,"o":"m 731 35 l 440 346 l 715 656 b 707 694 736 678 728 694 l 517 694 b 476 674 497 694 488 685 l 283 446 l 283 672 b 261 694 283 688 275 694 l 103 694 b 81 672 89 694 81 688 l 81 24 b 103 0 81 8 89 0 l 261 0 b 283 24 275 0 283 8 l 283 249 l 476 26 b 524 0 496 4 506 0 l 718 0 b 731 35 738 0 740 22 z "},"ќ":{"ha":768,"x_min":0,"x_max":0,"o":"m 342 763 l 476 763 b 513 788 490 763 504 775 l 635 947 b 621 972 647 963 636 972 l 418 972 b 389 947 404 972 397 964 l 328 788 b 342 763 321 771 326 763 z m 731 35 l 440 346 l 715 656 b 707 694 736 678 728 694 l 517 694 b 476 674 497 694 488 685 l 283 446 l 283 672 b 261 694 283 688 275 694 l 103 694 b 81 672 89 694 81 688 l 81 24 b 103 0 81 8 89 0 l 261 0 b 283 24 275 0 283 8 l 283 249 l 476 26 b 524 0 496 4 506 0 l 718 0 b 731 35 738 0 740 22 z "},"л":{"ha":829,"x_min":0,"x_max":0,"o":"m 101 -14 b 321 243 306 -14 321 99 l 321 515 l 546 515 l 546 24 b 569 0 546 8 554 0 l 726 0 b 750 24 742 0 750 8 l 750 672 b 726 694 750 688 742 694 l 140 694 b 118 672 126 694 118 688 l 118 235 b 43 164 118 183 93 164 b 0 124 13 164 0 151 l 0 43 b 101 -14 0 4 24 -14 z "},"м":{"ha":926,"x_min":0,"x_max":0,"o":"m 824 694 l 625 694 b 600 681 614 694 606 692 l 464 350 l 326 681 b 301 694 321 692 313 694 l 103 694 b 81 672 89 694 81 688 l 81 24 b 103 0 81 8 89 0 l 261 0 b 283 24 275 0 283 8 l 283 368 l 392 74 b 414 58 394 63 400 58 l 513 58 b 536 74 528 58 532 63 l 643 368 l 643 24 b 667 0 643 8 651 0 l 824 0 b 847 24 839 0 847 8 l 847 672 b 824 694 847 688 839 694 z "},"н":{"ha":792,"x_min":0,"x_max":0,"o":"m 689 694 l 532 694 b 508 672 517 694 508 688 l 508 438 l 283 438 l 283 672 b 261 694 283 688 275 694 l 103 694 b 81 672 89 694 81 688 l 81 24 b 103 0 81 8 89 0 l 261 0 b 283 24 275 0 283 8 l 283 257 l 508 257 l 508 24 b 532 0 508 8 517 0 l 689 0 b 713 24 704 0 713 8 l 713 672 b 689 694 713 688 704 694 z "},"о":{"ha":739,"x_min":0,"x_max":0,"o":"m 324 -7 l 415 -7 b 674 239 601 -7 674 92 l 674 454 b 415 700 674 603 600 700 l 324 700 b 67 454 139 700 67 603 l 67 239 b 324 -7 67 92 139 -7 z m 335 175 b 269 243 300 175 269 193 l 269 451 b 335 519 269 500 300 519 l 406 519 b 469 451 440 519 469 500 l 469 243 b 406 175 469 193 440 175 z "},"п":{"ha":792,"x_min":0,"x_max":0,"o":"m 99 0 l 261 0 b 283 24 275 0 283 8 l 283 515 l 508 515 l 508 24 b 532 0 508 8 517 0 l 689 0 b 713 24 704 0 713 8 l 713 672 b 689 694 713 688 704 694 l 103 694 b 81 672 89 694 81 688 l 81 24 b 99 0 81 8 85 0 z "},"р":{"ha":753,"x_min":0,"x_max":0,"o":"m 458 700 l 449 700 b 301 636 372 700 333 672 l 283 636 l 283 672 b 261 694 283 688 275 694 l 103 694 b 81 672 89 694 81 688 l 81 -224 b 103 -246 81 -239 89 -246 l 261 -246 b 283 -224 275 -246 283 -239 l 283 57 l 301 57 b 449 -7 333 21 372 -7 l 458 -7 b 688 228 617 -7 688 79 l 688 465 b 458 700 688 615 617 700 z m 483 246 b 419 175 483 200 453 175 l 350 175 b 283 247 314 175 283 199 l 283 446 b 350 519 283 496 314 519 l 419 519 b 483 447 453 519 483 494 z "},"с":{"ha":715,"x_min":0,"x_max":0,"o":"m 358 -7 l 371 -7 b 649 143 481 -7 596 19 b 633 174 654 156 649 167 l 525 224 b 493 214 510 231 500 225 b 375 169 469 176 440 169 l 363 169 b 269 260 299 169 269 199 l 269 453 b 335 519 269 501 299 519 l 394 519 b 463 464 433 519 463 504 l 463 451 b 485 428 463 436 471 428 l 633 428 b 656 451 647 428 656 436 l 656 463 b 406 700 656 606 574 700 l 324 700 b 67 456 138 700 67 604 l 67 238 b 358 -7 67 94 140 -7 z "},"т":{"ha":651,"x_min":0,"x_max":0,"o":"m 574 694 l 79 694 b 56 672 64 694 56 686 l 56 528 b 79 504 56 513 64 504 l 224 504 l 224 24 b 247 0 224 8 232 0 l 404 0 b 428 24 419 0 428 8 l 428 504 l 574 504 b 596 528 589 504 596 513 l 596 672 b 574 694 596 686 589 694 z "},"у":{"ha":796,"x_min":0,"x_max":0,"o":"m 731 694 l 574 694 b 547 671 560 694 553 686 l 406 247 l 393 247 l 250 671 b 224 694 244 686 238 694 l 67 694 b 47 669 53 694 40 686 l 297 -10 l 219 -221 b 238 -246 213 -239 224 -246 l 394 -246 b 424 -221 410 -246 417 -239 l 750 669 b 731 694 756 686 744 694 z "},"ў":{"ha":796,"x_min":0,"x_max":0,"o":"m 351 740 l 447 740 b 649 949 586 740 649 808 b 626 972 649 964 640 972 l 506 972 b 483 949 492 972 486 964 b 415 878 478 914 471 878 l 382 878 b 314 949 326 878 319 914 b 292 972 313 964 306 972 l 171 972 b 149 949 157 972 149 964 b 351 740 149 808 211 740 z m 731 694 l 574 694 b 547 671 560 694 553 686 l 406 247 l 393 247 l 250 671 b 224 694 244 686 238 694 l 67 694 b 47 669 53 694 40 686 l 297 -10 l 219 -221 b 238 -246 213 -239 224 -246 l 394 -246 b 424 -221 410 -246 417 -239 l 750 669 b 731 694 756 686 744 694 z "},"ф":{"ha":1144,"x_min":0,"x_max":0,"o":"m 850 700 l 840 700 b 693 636 764 700 725 672 l 675 636 l 675 672 b 674 682 675 676 675 679 l 674 950 b 650 972 674 965 665 972 l 493 972 b 469 950 478 972 469 965 l 469 636 l 453 636 b 304 700 421 672 382 700 l 296 700 b 67 465 136 700 67 615 l 67 228 b 296 -7 67 79 136 -7 l 304 -7 b 453 57 382 -7 421 21 l 469 57 l 469 24 b 472 11 469 18 471 14 l 472 -224 b 494 -246 472 -239 481 -246 l 653 -246 b 675 -224 667 -246 675 -239 l 675 57 l 693 57 b 840 -7 725 21 764 -7 l 850 -7 b 1079 228 1008 -7 1079 79 l 1079 465 b 850 700 1079 615 1008 700 z m 404 175 l 335 175 b 269 246 301 175 269 200 l 269 447 b 335 519 269 494 301 519 l 404 519 b 469 446 440 519 469 496 l 469 247 b 404 175 469 199 440 175 z m 875 246 b 811 175 875 200 844 175 l 742 175 b 675 247 706 175 675 199 l 675 446 b 742 519 675 496 706 519 l 811 519 b 875 447 844 519 875 494 z "},"х":{"ha":694,"x_min":0,"x_max":0,"o":"m 68 0 l 231 0 b 264 28 242 0 253 4 l 342 178 l 353 178 l 428 28 b 463 0 440 4 451 0 l 626 0 b 642 29 644 0 651 14 l 469 346 l 647 665 b 632 694 656 681 649 694 l 471 694 b 435 667 458 694 447 690 l 353 510 l 342 510 l 260 667 b 224 694 247 690 236 694 l 63 694 b 47 665 46 694 39 681 l 225 346 l 53 29 b 68 0 43 14 50 0 z "},"ч":{"ha":782,"x_min":0,"x_max":0,"o":"m 521 0 l 679 0 b 701 24 693 0 701 8 l 701 672 b 679 694 701 688 693 694 l 521 694 b 499 672 507 694 499 688 l 499 417 b 439 333 499 367 485 333 l 342 333 b 283 417 299 333 283 367 l 283 672 b 261 694 283 688 275 694 l 103 694 b 81 672 89 694 81 688 l 81 374 b 274 147 81 239 146 147 l 392 147 b 499 206 449 147 481 176 l 499 24 b 521 0 499 8 507 0 z "},"ц":{"ha":861,"x_min":0,"x_max":0,"o":"m 806 181 l 713 181 l 713 672 b 689 694 713 688 704 694 l 532 694 b 508 672 517 694 508 688 l 508 181 l 283 181 l 283 672 b 261 694 283 688 275 694 l 99 694 b 81 672 85 694 81 688 l 81 24 b 103 0 81 8 89 0 l 622 0 l 622 -86 b 646 -110 622 -101 631 -110 l 803 -110 b 826 -86 818 -110 826 -101 l 826 160 b 806 181 826 174 819 181 z "},"ш":{"ha":1088,"x_min":0,"x_max":0,"o":"m 103 0 l 985 0 b 1007 24 999 0 1007 8 l 1007 672 b 985 694 1007 688 999 694 l 826 694 b 804 672 813 694 804 688 l 804 181 l 646 181 l 646 672 b 622 694 646 688 638 694 l 461 694 b 442 672 446 694 442 688 l 442 181 l 283 181 l 283 672 b 261 694 283 688 275 694 l 99 694 b 81 672 85 694 81 688 l 81 24 b 103 0 81 8 89 0 z "},"щ":{"ha":1153,"x_min":0,"x_max":0,"o":"m 1097 181 l 1007 181 l 1007 672 b 985 694 1007 688 999 694 l 826 694 b 804 672 813 694 804 688 l 804 181 l 646 181 l 646 672 b 622 694 646 688 638 694 l 461 694 b 442 672 446 694 442 688 l 442 181 l 283 181 l 283 672 b 261 694 283 688 275 694 l 99 694 b 81 672 85 694 81 688 l 81 24 b 103 0 81 8 89 0 l 914 0 l 914 -86 b 938 -110 914 -101 922 -110 l 1094 -110 b 1118 -86 1110 -110 1118 -101 l 1118 160 b 1097 181 1118 174 1111 181 z "},"ь":{"ha":747,"x_min":0,"x_max":0,"o":"m 447 496 l 283 496 l 283 672 b 261 694 283 688 275 694 l 103 694 b 81 672 89 694 81 688 l 81 24 b 103 0 81 8 89 0 l 447 0 b 681 249 613 0 681 64 b 447 496 681 432 613 496 z m 408 181 l 283 181 l 283 317 l 408 317 b 478 249 436 317 478 311 b 408 181 478 185 436 181 z "},"ъ":{"ha":789,"x_min":0,"x_max":0,"o":"m 489 496 l 325 496 l 325 672 b 303 694 325 688 317 694 l 60 694 b 35 669 43 694 35 686 l 35 540 b 60 515 35 524 43 515 l 122 515 l 122 24 b 144 0 122 8 131 0 l 489 0 b 722 249 654 0 722 64 b 489 496 722 432 654 496 z m 450 181 l 325 181 l 325 317 l 450 317 b 519 249 478 317 519 311 b 450 181 519 185 478 181 z "},"ы":{"ha":1007,"x_min":0,"x_max":0,"o":"m 447 496 l 283 496 l 283 672 b 261 694 283 688 275 694 l 103 694 b 81 672 89 694 81 688 l 81 24 b 103 0 81 8 89 0 l 447 0 b 681 249 613 0 681 64 b 447 496 681 432 613 496 z m 904 694 l 747 694 b 724 672 732 694 724 688 l 724 24 b 747 0 724 8 732 0 l 904 0 b 928 24 919 0 928 8 l 928 672 b 904 694 928 688 919 694 z m 408 181 l 283 181 l 283 317 l 408 317 b 478 249 436 317 478 311 b 408 181 478 185 436 181 z "},"є":{"ha":715,"x_min":0,"x_max":0,"o":"m 485 428 l 633 428 b 656 451 647 428 656 436 l 656 463 b 406 700 656 606 574 700 l 324 700 b 67 456 138 700 67 604 l 67 238 b 358 -7 67 94 140 -7 l 371 -7 b 649 143 481 -7 596 19 b 633 174 654 156 649 167 l 525 224 b 493 214 510 231 500 225 b 375 169 469 176 440 169 l 363 169 b 269 250 303 169 272 196 l 385 250 b 410 275 403 250 410 258 l 410 404 b 385 429 410 421 403 429 l 269 429 l 269 453 b 335 519 269 501 299 519 l 394 519 b 463 464 433 519 463 504 l 463 451 b 485 428 463 436 471 428 z "},"э":{"ha":715,"x_min":0,"x_max":0,"o":"m 392 700 l 311 700 b 60 463 142 700 60 606 l 60 451 b 83 428 60 436 68 428 l 231 428 b 254 451 246 428 254 436 l 254 464 b 321 519 254 504 282 519 l 382 519 b 446 453 418 519 446 501 l 446 429 l 331 429 b 306 404 314 429 306 421 l 306 275 b 331 250 306 258 314 250 l 446 250 b 353 169 443 196 413 169 l 340 169 b 224 214 275 169 246 176 b 190 224 217 225 207 231 l 83 174 b 67 143 68 167 61 156 b 344 -7 119 19 235 -7 l 358 -7 b 650 238 575 -7 650 94 l 650 456 b 392 700 650 604 578 700 z "},"і":{"ha":363,"x_min":0,"x_max":0,"o":"m 103 781 l 260 781 b 282 803 274 781 282 788 l 282 950 b 260 972 282 965 274 972 l 103 972 b 81 950 89 972 81 965 l 81 803 b 103 781 81 788 89 781 z m 103 0 l 260 0 b 283 24 275 0 283 8 l 283 672 b 260 694 283 688 275 694 l 103 694 b 79 672 88 694 79 688 l 79 24 b 103 0 79 8 88 0 z "},"ї":{"ha":357,"x_min":0,"x_max":0,"o":"m -112 765 l 50 765 b 72 788 64 765 72 774 l 72 950 b 50 972 72 964 64 972 l -112 972 b -135 950 -126 972 -135 964 l -135 788 b -112 765 -135 774 -126 765 z m 299 765 l 461 765 b 483 788 475 765 483 774 l 483 950 b 461 972 483 964 475 972 l 299 972 b 276 950 285 972 276 964 l 276 788 b 299 765 276 774 285 765 z m 100 0 l 257 0 b 281 24 272 0 281 8 l 281 672 b 257 694 281 688 272 694 l 100 694 b 76 672 85 694 76 688 l 76 24 b 100 0 76 8 85 0 z "},"ј":{"ha":376,"x_min":0,"x_max":0,"o":"m 118 781 l 274 781 b 297 803 289 781 297 788 l 297 950 b 274 972 297 965 289 972 l 118 972 b 94 950 103 972 94 965 l 94 803 b 118 781 94 788 103 781 z m 76 -264 b 297 -7 282 -264 297 -151 l 297 672 b 274 694 297 688 289 694 l 117 694 b 93 672 101 694 93 688 l 93 -15 b 18 -86 93 -67 68 -86 b -25 -126 -12 -86 -25 -99 l -25 -207 b 76 -264 -25 -246 -1 -264 z "},"ю":{"ha":1094,"x_min":0,"x_max":0,"o":"m 771 700 l 679 700 b 421 454 494 700 421 603 l 421 424 l 283 424 l 283 672 b 261 696 283 688 275 696 l 103 696 b 81 672 89 696 81 688 l 81 24 b 103 1 81 8 89 1 l 261 1 b 283 24 275 1 283 8 l 283 243 l 421 243 l 421 239 b 679 -7 421 92 494 -7 l 771 -7 b 1028 239 956 -7 1028 92 l 1028 454 b 771 700 1028 603 956 700 z m 825 243 b 760 175 825 193 794 175 l 689 175 b 625 243 654 175 625 193 l 625 451 b 689 519 625 500 654 519 l 760 519 b 825 451 794 519 825 500 z "},"я":{"ha":753,"x_min":0,"x_max":0,"o":"m 650 694 l 286 694 b 72 485 140 694 72 599 b 181 315 72 400 94 354 l 181 306 b 67 131 96 274 67 222 l 67 21 b 89 0 67 7 74 0 l 247 0 b 269 21 263 0 269 7 l 269 104 b 333 204 269 158 265 204 l 469 204 l 469 24 b 493 0 469 8 478 0 l 650 0 b 674 24 665 0 674 8 l 674 672 b 650 694 674 688 665 694 z m 331 383 b 269 442 293 383 269 400 b 331 508 269 490 289 508 l 469 508 l 469 383 z "},"ӣ":{"ha":847,"x_min":0,"x_max":0,"o":"m 213 792 l 663 792 b 683 813 675 792 683 799 l 683 951 b 663 972 683 965 675 972 l 213 972 b 192 951 199 972 192 965 l 192 813 b 213 792 192 799 199 792 z m 103 0 l 347 0 b 372 15 358 0 367 4 l 550 465 l 564 465 l 564 24 b 588 0 564 8 572 0 l 744 0 b 768 24 760 0 768 8 l 768 672 b 744 694 768 688 760 694 l 501 694 b 476 679 490 694 482 690 l 297 231 l 283 231 l 283 672 b 261 694 283 688 275 694 l 103 694 b 81 672 89 694 81 688 l 81 24 b 103 0 81 8 89 0 z "},"ө":{"ha":739,"x_min":0,"x_max":0,"o":"m 415 700 l 324 700 b 67 454 139 700 67 603 l 67 239 b 324 -7 67 92 139 -7 l 415 -7 b 674 239 600 -7 674 92 l 674 454 b 415 700 674 603 601 700 z m 335 519 l 406 519 b 469 451 440 519 469 500 l 469 436 l 269 436 l 269 451 b 335 519 269 500 300 519 z m 406 175 l 335 175 b 269 243 300 175 269 193 l 269 256 l 469 256 l 469 243 b 406 175 469 193 440 175 z "},"ӭ":{"ha":715,"x_min":0,"x_max":0,"o":"m 228 765 b 250 788 242 765 250 774 l 250 950 b 228 972 250 964 242 972 l 65 972 b 43 950 51 972 43 964 l 43 788 b 65 765 43 774 51 765 z m 639 972 l 476 972 b 454 950 463 972 454 964 l 454 788 b 476 765 454 774 463 765 l 639 765 b 661 788 653 765 661 774 l 661 950 b 639 972 661 964 653 972 z m 392 700 l 311 700 b 60 463 142 700 60 606 l 60 451 b 83 428 60 436 68 428 l 231 428 b 254 451 246 428 254 436 l 254 464 b 321 519 254 504 282 519 l 382 519 b 446 453 418 519 446 501 l 446 429 l 331 429 b 306 404 314 429 306 421 l 306 275 b 331 250 306 258 314 250 l 446 250 b 353 169 443 196 413 169 l 340 169 b 224 214 275 169 246 176 b 190 224 217 225 207 231 l 83 174 b 67 143 68 167 61 156 b 344 -7 119 19 235 -7 l 358 -7 b 650 238 575 -7 650 94 l 650 456 b 392 700 650 604 578 700 z "},"ӯ":{"ha":796,"x_min":0,"x_max":0,"o":"m 190 792 l 640 792 b 661 813 653 792 661 799 l 661 951 b 640 972 661 965 653 972 l 190 972 b 169 951 176 972 169 965 l 169 813 b 190 792 169 799 176 792 z m 731 694 l 574 694 b 547 671 560 694 553 686 l 406 247 l 393 247 l 250 671 b 224 694 244 686 238 694 l 67 694 b 47 669 53 694 40 686 l 297 -10 l 219 -221 b 238 -246 213 -239 224 -246 l 394 -246 b 424 -221 410 -246 417 -239 l 750 669 b 731 694 756 686 744 694 z "},"Δ":{"ha":842,"x_min":0,"x_max":0,"o":"m 803 22 l 519 990 b 493 1013 515 1004 506 1013 l 365 1013 b 339 990 353 1013 343 1004 l 54 22 b 69 0 50 7 56 0 l 786 0 b 803 22 800 0 806 7 z m 303 208 l 431 714 l 553 208 z "},"Ω":{"ha":826,"x_min":0,"x_max":0,"o":"m 740 417 l 740 740 b 454 1025 740 922 614 1025 l 372 1025 b 88 740 213 1025 88 922 l 88 417 b 192 208 88 289 129 244 l 108 208 b 88 188 94 208 88 201 l 88 21 b 108 0 88 7 94 0 l 357 0 b 378 21 371 0 378 7 l 378 214 b 357 235 378 228 371 235 l 353 235 b 296 454 283 235 296 375 l 296 733 b 379 817 296 813 324 817 l 447 817 b 532 733 503 817 532 813 l 532 454 b 475 235 532 375 544 235 l 471 235 b 450 214 457 235 450 228 l 450 21 b 471 0 450 7 457 0 l 719 0 b 740 21 733 0 740 7 l 740 188 b 719 208 740 201 733 208 l 635 208 b 740 417 699 244 740 289 z "},"μ":{"ha":767,"x_min":0,"x_max":0,"o":"m 664 694 l 504 694 b 483 672 496 694 483 688 l 483 250 b 413 176 483 200 451 176 l 346 176 b 285 232 315 176 290 196 l 285 632 l 283 632 l 283 672 b 261 694 283 688 275 694 l 101 694 b 81 672 93 694 81 688 l 81 -257 b 101 -278 81 -271 88 -278 l 264 -278 b 285 -257 278 -278 285 -271 l 285 -6 l 293 -6 l 304 -6 b 461 69 376 -6 433 22 l 483 69 l 483 24 b 504 0 483 8 496 0 l 664 0 b 688 24 679 0 688 8 l 688 672 b 664 694 688 688 679 694 z "},"π":{"ha":861,"x_min":0,"x_max":0,"o":"m 785 694 l 75 694 b 56 674 61 694 56 688 l 56 507 b 76 486 56 493 61 486 l 157 486 l 157 21 b 178 0 157 7 164 0 l 344 0 b 365 21 358 0 365 7 l 365 486 l 494 486 l 494 21 b 515 0 494 7 501 0 l 682 0 b 703 21 696 0 703 7 l 703 486 l 785 486 b 806 506 799 486 806 493 l 806 674 b 785 694 806 686 799 694 z "},"¹":{"ha":419,"x_min":0,"x_max":0,"o":"m 167 951 l 167 564 b 188 543 167 550 174 543 l 232 543 b 253 564 246 543 253 550 l 253 951 b 232 972 253 965 246 972 l 188 972 b 167 951 174 972 167 965 z "},"²":{"ha":444,"x_min":0,"x_max":0,"o":"m 340 624 l 190 624 l 268 692 b 360 847 317 733 360 776 b 240 972 360 913 322 972 l 206 972 b 83 857 129 972 83 924 l 83 839 b 104 818 83 825 90 818 l 146 818 b 167 839 160 818 167 825 l 167 849 b 218 893 167 878 188 893 b 275 839 253 893 275 874 b 226 761 275 807 250 783 l 106 647 b 86 608 92 635 86 628 l 86 563 b 107 542 86 549 93 542 l 340 542 b 361 563 354 542 361 549 l 361 603 b 340 624 361 617 354 624 z "},"³":{"ha":449,"x_min":0,"x_max":0,"o":"m 301 757 b 360 853 343 778 360 810 b 243 972 360 913 322 972 l 208 972 b 86 857 132 972 86 924 l 86 839 b 107 818 86 825 93 818 l 149 818 b 169 839 163 818 169 825 l 169 849 b 224 893 169 878 190 893 b 278 840 258 893 278 874 b 226 793 278 810 264 793 l 204 793 b 185 772 192 793 185 786 l 185 742 b 204 721 185 728 192 721 l 226 721 b 281 674 267 721 281 704 b 224 621 281 640 261 621 b 167 665 188 621 167 636 l 167 675 b 146 696 167 689 160 696 l 104 696 b 83 675 90 696 83 689 l 83 657 b 208 542 83 590 129 542 l 243 542 b 368 661 331 542 368 601 b 301 757 368 704 346 736 z "},"⁄":{"ha":175,"x_min":0,"x_max":0,"o":"m 321 951 l -240 21 b -226 0 -249 7 -240 0 l -174 0 b -146 21 -160 0 -154 7 l 415 951 b 401 972 424 965 415 972 l 349 972 b 321 951 335 972 329 965 z "},"½":{"ha":1039,"x_min":0,"x_max":0,"o":"m 167 951 l 167 564 b 188 543 167 550 174 543 l 232 543 b 253 564 246 543 253 550 l 253 951 b 232 972 253 965 246 972 l 188 972 b 167 951 174 972 167 965 z m 740 951 l 179 21 b 193 0 171 7 179 0 l 246 0 b 274 21 260 0 265 7 l 835 951 b 821 972 843 965 835 972 l 768 972 b 740 951 754 972 749 965 z m 935 82 l 785 82 l 863 150 b 954 306 911 192 954 235 b 835 431 954 371 917 431 l 800 431 b 678 315 724 431 678 382 l 678 297 b 699 276 678 283 685 276 l 740 276 b 761 297 754 276 761 283 l 761 307 b 813 351 761 336 782 351 b 869 297 847 351 869 332 b 821 219 869 265 844 242 l 700 106 b 681 67 686 93 681 86 l 681 21 b 701 0 681 7 688 0 l 935 0 b 956 21 949 0 956 7 l 956 61 b 935 82 956 75 949 82 z "},"¼":{"ha":1061,"x_min":0,"x_max":0,"o":"m 167 951 l 167 564 b 188 543 167 550 174 543 l 232 543 b 253 564 246 543 253 550 l 253 951 b 232 972 253 965 246 972 l 188 972 b 167 951 174 972 167 965 z m 740 951 l 179 21 b 193 0 171 7 179 0 l 246 0 b 274 21 260 0 265 7 l 835 951 b 821 972 843 965 835 972 l 768 972 b 740 951 754 972 749 965 z m 957 150 l 938 150 l 938 410 b 917 431 938 424 931 431 l 847 431 b 824 415 839 431 829 426 l 685 151 b 678 126 682 146 678 138 l 678 92 b 701 71 678 78 686 71 l 854 71 l 854 21 b 875 0 854 7 861 0 l 917 0 b 938 21 931 0 938 7 l 938 71 l 957 71 b 978 92 971 71 978 78 l 978 129 b 957 150 978 143 971 150 z m 854 153 l 774 153 l 854 315 z "},"¾":{"ha":1090,"x_min":0,"x_max":0,"o":"m 301 757 b 360 853 343 778 360 810 b 243 972 360 913 322 972 l 208 972 b 86 857 132 972 86 924 l 86 839 b 107 818 86 825 93 818 l 149 818 b 169 839 163 818 169 825 l 169 849 b 224 893 169 878 190 893 b 278 840 258 893 278 874 b 226 793 278 810 264 793 l 204 793 b 185 772 192 793 185 786 l 185 742 b 204 721 185 728 192 721 l 226 721 b 281 674 267 721 281 704 b 224 621 281 640 261 621 b 167 665 188 621 167 636 l 167 675 b 146 696 167 689 160 696 l 104 696 b 83 675 90 696 83 689 l 83 657 b 208 542 83 590 129 542 l 243 542 b 368 661 331 542 368 601 b 301 757 368 704 346 736 z m 769 951 l 208 21 b 222 0 200 7 208 0 l 275 0 b 303 21 289 0 294 7 l 864 951 b 850 972 872 965 864 972 l 797 972 b 769 951 783 972 778 965 z m 986 150 l 967 150 l 967 410 b 946 431 967 424 960 431 l 876 431 b 853 415 868 431 858 426 l 714 151 b 707 126 711 146 707 138 l 707 92 b 731 71 707 78 715 71 l 883 71 l 883 21 b 904 0 883 7 890 0 l 946 0 b 967 21 960 0 967 7 l 967 71 l 986 71 b 1007 92 1000 71 1007 78 l 1007 129 b 986 150 1007 143 1000 150 z m 883 153 l 803 153 l 883 315 z "},"⅛":{"ha":1043,"x_min":0,"x_max":0,"o":"m 167 951 l 167 564 b 188 543 167 550 174 543 l 232 543 b 253 564 246 543 253 550 l 253 951 b 232 972 253 965 246 972 l 188 972 b 167 951 174 972 167 965 z m 740 951 l 179 21 b 193 0 171 7 179 0 l 246 0 b 274 21 260 0 265 7 l 835 951 b 821 972 843 965 835 972 l 768 972 b 740 951 754 972 749 965 z m 903 226 b 949 317 931 244 949 274 b 831 431 949 381 907 431 l 807 431 b 689 317 735 431 689 381 b 735 226 689 274 707 244 b 678 122 707 210 678 182 b 806 0 678 50 721 0 l 832 0 b 960 122 917 0 960 50 b 903 226 960 182 931 210 z m 822 258 l 815 258 b 769 307 788 258 769 276 b 815 356 769 338 788 356 l 822 356 b 868 307 850 356 868 338 b 822 258 868 276 850 258 z m 811 78 b 763 131 782 78 763 94 b 811 186 763 165 782 186 l 826 186 b 875 131 856 186 875 165 b 826 78 875 94 856 78 z "},"⅜":{"ha":1072,"x_min":0,"x_max":0,"o":"m 301 757 b 360 853 343 778 360 810 b 243 972 360 913 322 972 l 208 972 b 86 857 132 972 86 924 l 86 839 b 107 818 86 825 93 818 l 149 818 b 169 839 163 818 169 825 l 169 849 b 224 893 169 878 190 893 b 278 840 258 893 278 874 b 226 793 278 810 264 793 l 204 793 b 185 772 192 793 185 786 l 185 742 b 204 721 185 728 192 721 l 226 721 b 281 674 267 721 281 704 b 224 621 281 640 261 621 b 167 665 188 621 167 636 l 167 675 b 146 696 167 689 160 696 l 104 696 b 83 675 90 696 83 689 l 83 657 b 208 542 83 590 129 542 l 243 542 b 368 661 331 542 368 601 b 301 757 368 704 346 736 z m 769 951 l 208 21 b 222 0 200 7 208 0 l 275 0 b 303 21 289 0 294 7 l 864 951 b 850 972 872 965 864 972 l 797 972 b 769 951 783 972 778 965 z m 932 226 b 978 317 960 244 978 274 b 860 431 978 381 936 431 l 836 431 b 718 317 764 431 718 381 b 764 226 718 274 736 244 b 707 122 736 210 707 182 b 835 0 707 50 750 0 l 861 0 b 989 122 946 0 989 50 b 932 226 989 182 960 210 z m 851 258 l 844 258 b 799 307 817 258 799 276 b 844 356 799 338 817 356 l 851 356 b 897 307 879 356 897 338 b 851 258 897 276 879 258 z m 840 78 b 792 131 811 78 792 94 b 840 186 792 165 811 186 l 856 186 b 904 131 885 186 904 165 b 856 78 904 94 885 78 z "},"⅝":{"ha":1075,"x_min":0,"x_max":0,"o":"m 238 824 b 169 799 215 824 188 818 l 169 892 l 332 892 b 353 913 346 892 353 899 l 353 951 b 332 972 353 965 346 972 l 110 972 b 89 951 96 972 89 965 l 89 757 b 110 736 89 743 96 736 l 168 736 b 221 754 181 749 201 754 b 281 682 268 754 281 726 b 224 621 281 640 261 621 b 167 665 188 621 167 636 l 167 675 b 146 696 167 689 160 696 l 104 696 b 83 675 90 696 83 689 l 83 657 b 208 542 83 590 129 542 l 243 542 b 368 682 331 542 368 601 b 238 824 368 769 325 824 z m 772 951 l 211 21 b 225 0 203 7 211 0 l 278 0 b 306 21 292 0 297 7 l 867 951 b 853 972 875 965 867 972 l 800 972 b 772 951 786 972 781 965 z m 935 226 b 981 317 963 244 981 274 b 863 431 981 381 939 431 l 839 431 b 721 317 767 431 721 381 b 767 226 721 274 739 244 b 710 122 739 210 710 182 b 838 0 710 50 753 0 l 864 0 b 992 122 949 0 992 50 b 935 226 992 182 963 210 z m 854 258 l 847 258 b 801 307 819 258 801 276 b 847 356 801 338 819 356 l 854 356 b 900 307 882 356 900 338 b 854 258 900 276 882 258 z m 843 78 b 794 131 814 78 794 94 b 843 186 794 165 814 186 l 858 186 b 907 131 888 186 907 165 b 858 78 907 94 888 78 z "},"⅞":{"ha":1060,"x_min":0,"x_max":0,"o":"m 353 908 l 353 951 b 332 972 353 965 346 972 l 104 972 b 83 951 90 972 83 965 l 83 910 b 104 889 83 896 90 889 l 260 889 l 104 561 b 117 542 100 551 104 542 l 175 542 b 197 561 186 542 193 551 l 347 885 b 353 908 353 896 353 903 z m 757 951 l 196 21 b 210 0 188 7 196 0 l 263 0 b 290 21 276 0 282 7 l 851 951 b 838 972 860 965 851 972 l 785 972 b 757 951 771 972 765 965 z m 919 226 b 965 317 947 244 965 274 b 847 431 965 381 924 431 l 824 431 b 706 317 751 431 706 381 b 751 226 706 274 724 244 b 694 122 724 210 694 182 b 822 0 694 50 738 0 l 849 0 b 976 122 933 0 976 50 b 919 226 976 182 947 210 z m 839 258 l 832 258 b 786 307 804 258 786 276 b 832 356 786 338 804 356 l 839 356 b 885 307 867 356 885 338 b 839 258 885 276 867 258 z m 828 78 b 779 131 799 78 779 94 b 828 186 779 165 799 186 l 843 186 b 892 131 872 186 892 165 b 843 78 892 94 872 78 z "},".":{"ha":304,"x_min":0,"x_max":0,"o":"m 71 0 l 233 0 b 256 22 247 0 256 8 l 256 185 b 233 207 256 199 247 207 l 71 207 b 49 185 57 207 49 199 l 49 22 b 71 0 49 8 57 0 z "},",":{"ha":351,"x_min":0,"x_max":0,"o":"m 281 207 l 147 207 b 125 185 133 207 125 199 l 125 -69 l 57 -69 b 35 -92 43 -69 35 -78 l 35 -217 b 57 -239 35 -231 43 -239 l 246 -239 b 303 -183 282 -239 303 -219 l 303 185 b 281 207 303 199 294 207 z "},":":{"ha":304,"x_min":0,"x_max":0,"o":"m 71 488 l 233 488 b 256 510 247 488 256 496 l 256 672 b 233 694 256 686 247 694 l 71 694 b 49 672 57 694 49 686 l 49 510 b 71 488 49 496 57 488 z m 71 0 l 233 0 b 256 22 247 0 256 8 l 256 185 b 233 207 256 199 247 207 l 71 207 b 49 185 57 207 49 199 l 49 22 b 71 0 49 8 57 0 z "}}}
